<?xml version="1.0" standalone="no"?>
<!DOCTYPE svg PUBLIC "-//W3C//DTD SVG 20010904//EN"
 "http://www.w3.org/TR/2001/REC-SVG-20010904/DTD/svg10.dtd">
<svg version="1.0" xmlns="http://www.w3.org/2000/svg"
 width="260.000000pt" height="260.000000pt" viewBox="0 0 260.000000 260.000000"
 preserveAspectRatio="xMidYMid meet">
<metadata>
Created by potrace 1.14, written by Peter Selinger 2001-2017
</metadata>
<g transform="translate(0.000000,260.000000) scale(0.100000,-0.100000)"
fill="#000000" stroke="none">
<path d="M575 2378 c-116 -75 -278 -241 -360 -366 -141 -216 -215 -464 -215
-721 0 -88 24 -260 48 -337 l17 -56 190 -104 c105 -56 193 -100 196 -96 4 4
138 342 299 752 161 410 294 750 296 755 4 9 -364 225 -384 225 -4 0 -44 -23
-87 -52z"/>
<path d="M1851 2211 c-146 -42 -266 -81 -268 -87 -3 -10 27 -83 369 -869 110
-253 206 -474 214 -491 13 -30 12 -33 -50 -111 -35 -44 -97 -108 -137 -142
-70 -59 -206 -148 -213 -140 -2 2 -28 78 -57 169 -29 91 -54 167 -56 169 -3 5
-725 62 -728 58 -1 -1 -22 -60 -45 -132 -24 -71 -45 -135 -47 -141 -2 -6 29
-28 69 -49 40 -21 75 -40 78 -42 2 -2 -54 -62 -125 -133 -79 -79 -126 -133
-120 -138 20 -18 162 -70 245 -91 247 -60 484 -52 716 24 347 114 622 356 778
686 87 184 133 405 123 595 -18 337 -136 616 -360 850 -49 52 -97 94 -106 93
-9 0 -135 -36 -280 -78z"/>
<path d="M1171 1483 c-61 -179 -109 -328 -106 -331 4 -5 416 39 424 45 6 5
-192 613 -200 613 -4 0 -57 -147 -118 -327z"/>
</g>
</svg>
