<?xml version="1.0" standalone="no"?>
<!DOCTYPE svg PUBLIC "-//W3C//DTD SVG 20010904//EN"
 "http://www.w3.org/TR/2001/REC-SVG-20010904/DTD/svg10.dtd">
<svg version="1.0" xmlns="http://www.w3.org/2000/svg"
 width="260.000000pt" height="260.000000pt" viewBox="0 0 260.000000 260.000000"
 preserveAspectRatio="xMidYMid meet">
<metadata>
Created by potrace 1.14, written by Peter Selinger 2001-2017
</metadata>
<g transform="translate(0.000000,260.000000) scale(0.100000,-0.100000)"
fill="#000000" stroke="none">
<path d="M2005 2234 c-154 -113 -286 -210 -292 -217 -10 -10 16 -94 123 -402
74 -215 186 -536 248 -715 62 -179 117 -325 122 -325 12 1 115 125 162 194 91
137 163 317 197 491 22 117 30 334 16 453 -14 122 -41 247 -53 247 -5 0 -125
-108 -266 -239 -141 -132 -258 -238 -260 -236 -2 1 65 215 147 474 83 259 151
474 151 476 0 13 -33 -10 -295 -201z"/>
<path d="M1165 2264 l-130 -63 138 -1 c155 0 144 -7 129 86 l-7 40 -130 -62z"/>
<path d="M147 2177 c-195 -455 -173 -914 62 -1287 56 -90 169 -235 176 -228 4
4 515 1467 515 1474 0 1 -104 -47 -230 -107 -127 -61 -234 -107 -240 -104 -5
3 -59 77 -120 165 -61 88 -115 162 -119 165 -5 2 -25 -32 -44 -78z"/>
<path d="M1241 1748 c-73 -231 -161 -516 -161 -521 0 -4 83 -7 185 -7 102 0
185 4 185 9 0 12 -148 501 -160 529 -14 32 -37 27 -49 -10z"/>
<path d="M878 628 l-55 -163 -96 -3 c-53 -1 -97 -6 -97 -11 0 -4 36 -27 80
-52 l79 -44 -52 -53 c-62 -62 -65 -58 83 -106 148 -48 233 -60 405 -60 216 0
381 40 575 138 105 53 270 163 270 179 0 4 -84 8 -187 9 l-186 3 -51 163 -50
162 -332 0 -332 0 -54 -162z"/>
</g>
</svg>
