<svg width="220" height="220" viewBox="0 0 220 220" fill="none" xmlns="http://www.w3.org/2000/svg">
<g clip-path="url(#clip0_1427_17344)">
<g clip-path="url(#clip1_1427_17344)">
<path d="M-5.5 -4.40039H232.1V233.2H-5.5V-4.40039Z" fill="#0786E2"/>
<path opacity="0.5" d="M162.556 165.861L111.24 179.842L187.447 181.782L162.556 165.861Z" fill="#F208F6"/>
<path d="M53.1552 28.7318L26.9004 4.40039L38.7022 50.0472L53.1552 28.7318Z" fill="white"/>
<path d="M158.542 28.3906L167.74 30.3956L167.092 35.0352L158.542 28.3906Z" fill="#93DA5F"/>
<path d="M42.5527 173.607L52.6887 148.035L68.6828 149.988L42.5527 173.607Z" fill="#ECB1A8"/>
<path opacity="0.5" d="M72.8145 197.895L82.5568 208.487L77.4514 206.701L72.8145 197.895Z" fill="#6726B8"/>
<path d="M165.384 173.133L184.537 176.287H161.99L165.384 173.133Z" fill="#F5A26E"/>
<path d="M146.908 113.302L170.583 113.895L182.619 97.5625L146.908 113.302Z" fill="#B1FBA3"/>
<path d="M170.098 64.3837L176.013 60.4629L174.831 63.6062L170.098 64.3837Z" fill="#F208F6"/>
<path d="M99.3383 205.789L78.8818 140.141L124.624 142.356L125.128 168.653L99.3383 205.789Z" fill="#ECB1A8"/>
<path d="M133.189 159.694V134.098L97.8701 154.814L111.205 194.82L133.189 159.694Z" fill="#92574E"/>
<path d="M125.128 168.655L124.02 136.716L86.3125 133.145L106.265 193.715L125.128 168.655Z" fill="#C48980"/>
<path d="M109.108 177.908L103.616 160.779L119.284 152.537L120.191 164.424L109.108 177.908Z" fill="#92574E"/>
<path d="M76.7445 143.39L59.1826 78.8628L68.0617 51.6876L100.601 37.7148L125.675 42.6914L136.394 60.3009L144.966 100.913L132.14 148.302L115.154 162.169L101.516 160.915L76.7445 143.39Z" fill="#F6BBB2"/>
<path d="M87.4797 100.202L81.6684 102.704L106.125 97.7007L102.967 97.1196L87.4797 100.202Z" fill="black"/>
<path d="M132.149 99.5423L119.404 97.1836L116.15 98.5234L134.545 100.748L132.149 99.5423Z" fill="black"/>
<path d="M110.801 126.412L109.523 115.479L104.718 125.913L110.801 126.412Z" fill="white"/>
<path d="M94.8578 123.112L77.9678 111.547L78.9271 119.129L87.6125 128.102L94.8578 123.112Z" fill="white"/>
<path d="M127.863 129.156L122.334 122.79L134.816 117.68L133.699 124.242L127.863 129.156Z" fill="white"/>
<path d="M113.198 126.41L112.608 121.406L114.778 124.64L113.198 126.41Z" fill="#92574E"/>
<path d="M109.411 131.391L110.402 128.436L111.212 131.737L109.411 131.391Z" fill="#92574E"/>
<path d="M84.2388 135.066L75.1689 124.191L79.763 140.996L89.0687 147.278L84.2388 135.066Z" fill="#92574E"/>
<path d="M127.708 140.869L126.643 146.629L129.314 143.902L130.865 137.949L127.708 140.869Z" fill="#92574E"/>
<path d="M108.611 146.951L101.169 143.049L118.002 140.617L113.661 146.576L111.136 145.722L108.611 146.951Z" fill="#B9E6B6"/>
<path d="M133.597 103.411C126.106 103.261 121.371 106.642 118.327 109.788L131.958 108.641C132.222 107.686 133.214 104.558 133.597 103.411Z" fill="#F208F6"/>
<path d="M103.533 111.99C97.6601 105.057 88.9847 103.096 85.5654 102.871L87.4344 108.964C91.0246 109.189 99.9569 111.364 103.533 111.99Z" fill="#F208F6"/>
<path d="M126.249 111.303C129.669 110.893 131.479 109.305 131.992 108.621C131.266 107.672 128.584 106.758 125.576 106.895C122.567 107.031 119.096 109.251 118.298 109.821C120.694 111.012 123.187 111.671 126.249 111.303Z" fill="#B9E6B6"/>
<path d="M94.7447 107.727C91.2183 107.053 88.3993 108.111 87.2861 108.868C88.0351 110.226 90.9783 112.434 94.2786 112.797C97.5788 113.161 102.104 112.883 103.521 112.012C102.564 110.959 99.1802 108.574 94.7447 107.727Z" fill="#B9E6B6"/>
<path d="M108.874 136.635L101.164 143.052L118 140.619L114.626 136.062L111.384 138.759L108.874 136.635Z" fill="#F208F6"/>
<path d="M64.4668 49.7584L57.1934 72.7273L62.1293 92.6504L70.3598 108.346L72.9764 88.4704L126.823 76.8861V70.1868L144.774 100.641L141.372 56.2831L126.823 41.6589L97.8047 34.7754L64.4668 49.7584Z" fill="#F208F6"/>
<path d="M70.9316 115.004L66.5463 53.4805C60.3345 55.4181 49.9361 70.3577 49.2272 84.0434C48.0607 106.564 63.0914 113.719 70.9316 115.004Z" fill="#F5A26E"/>
<path d="M58.4849 92.3711L41.0332 97.1986L77.3098 107.563L58.4849 92.3711Z" fill="#101BE3"/>
<path d="M126.816 76.3027L161.891 106.116C161.496 101.229 158.546 89.6051 149.908 82.2002C141.27 74.7953 130.914 75.1832 126.816 76.3027Z" fill="#F5A26E"/>
<path d="M169.464 103.692L144.522 87.7939C146.779 86.1977 153.041 84.1298 160.036 88.6284C167.03 93.1269 169.235 100.545 169.464 103.692Z" fill="#6726B8"/>
<path d="M137.027 117.798C137.811 102.26 139.981 80.5793 139.981 80.5793L123.57 42.6426L137.027 117.798Z" fill="#6726B8"/>
<path d="M75.0685 34.4648L67.0127 44.8611L73.2093 73.9179L75.0685 34.4648Z" fill="#B1FBA3"/>
<path d="M83.8566 79.3224L77.3096 16.1055C83.9109 18.56 97.7651 27.6887 100.126 46.5648C102.251 63.5515 89.8435 75.1888 83.8566 79.3224Z" fill="#101BE3"/>
<path d="M157.054 53.0222L87.7511 87.7886C87.1047 80.4487 98.8996 58.765 115.111 49.5105C131.449 40.184 149.838 47.3277 157.054 53.0222Z" fill="#C5930F"/>
<path d="M100.301 71.1201L128.719 15.2793C134.003 21.9773 139.59 36.6181 130.358 55.0824C123.077 69.6446 106.228 70.9492 100.301 71.1201Z" fill="#B9E6B6"/>
<path d="M128.552 74.6456C112.082 86.3785 96.4441 82.3561 91.8722 79.333L143.823 36.0857C144.803 43.7471 145.023 62.9126 128.552 74.6456Z" fill="#6726B8"/>
<path d="M121.612 67.8575L73.6896 37.1565C73.6897 42.7168 74.0055 55.0445 88.6925 65.413C102.885 75.4322 116.31 72.4713 121.612 67.8575Z" fill="#F5A26E"/>
<path d="M103.759 70.5001L101.981 82.3536L100.697 89.1692L155.222 63.6855L103.759 70.5001Z" fill="#93DA5F"/>
<path d="M73.9656 97.0623L73.6455 77.1905L131.994 70.9277L73.9656 97.0623Z" fill="#B1FBA3"/>
<path d="M157.939 147.552C157.499 160.78 159.181 174.366 160.077 179.506C160.077 179.506 158.095 160.5 159.516 148.697C159.326 148.04 158.431 147.409 157.939 147.552Z" fill="black"/>
<path d="M160.767 144.419C159.725 161.097 161.459 181.005 162.354 186.145C162.354 186.145 160.227 163.443 162.345 145.564C162.154 144.907 161.259 144.276 160.767 144.419Z" fill="black"/>
<path d="M71.6754 205.306L73.0856 202.962L69.4016 218.702L71.6754 205.306Z" fill="black"/>
<path d="M74.0198 204.719L75.4586 202.991L70.0082 224.652C70.0082 224.652 73.0387 207.786 74.0198 204.719Z" fill="black"/>
<path d="M133.04 161.881C133.05 162.052 133.051 162.195 133.043 162.307C133.042 162.165 133.041 162.023 133.04 161.881C132.863 158.811 129.971 146.673 129.971 146.673L131.109 144.957C131.727 147.513 132.96 154.414 133.04 161.881Z" fill="black"/>
<path d="M130.953 136.335C133.446 148.974 134.678 162.465 134.982 167.631C135.177 154.988 132.776 140.333 131.552 134.585C131.308 135.003 131.109 135.586 130.953 136.335Z" fill="black"/>
<path d="M82.7425 118.151C72.0824 113.969 64.291 102.687 61.7279 97.5692C66.5699 111.276 77.1772 117.915 81.8756 119.522C82.0322 119.173 82.4295 118.849 82.7425 118.151Z" fill="black"/>
<path d="M88.6145 117.766C81.0803 116.328 72.5928 109.148 69.2909 105.738C76.6473 114.74 84.3237 118.55 87.2423 119.329C87.6391 119.005 88.1689 118.572 88.6145 117.766Z" fill="black"/>
<path d="M122.897 67.624L121.78 66.3293C120.405 72.6087 115.986 87.9874 113.948 94.8919C113.948 94.8919 119.542 80.5406 122.897 67.624Z" fill="black"/>
<path d="M119.147 72.7516L118.03 71.4569C116.206 81.3834 111.545 97.8644 111.545 97.8644C111.545 97.8644 118.314 77.353 119.147 72.7516Z" fill="black"/>
</g>
</g>
<defs>
<clipPath id="clip0_1427_17344">
<rect width="220" height="220" fill="white"/>
</clipPath>
<clipPath id="clip1_1427_17344">
<rect width="220" height="220" fill="white"/>
</clipPath>
</defs>
</svg>
