<svg width="220" height="220" viewBox="0 0 220 220" fill="none" xmlns="http://www.w3.org/2000/svg">
<g clip-path="url(#clip0_1427_16154)">
<g clip-path="url(#clip1_1427_16154)">
<path d="M-5.5 -4.40039H232.1V233.2H-5.5V-4.40039Z" fill="#0786E2"/>
<path opacity="0.5" d="M162.556 165.861L111.24 179.842L187.447 181.782L162.556 165.861Z" fill="#F208F6"/>
<path d="M53.1552 28.7318L26.9004 4.40039L38.7022 50.0472L53.1552 28.7318Z" fill="white"/>
<path d="M158.542 28.3906L167.74 30.3956L167.092 35.0352L158.542 28.3906Z" fill="#93DA5F"/>
<path d="M42.5527 173.607L52.6887 148.035L68.6828 149.988L42.5527 173.607Z" fill="#ECB1A8"/>
<path opacity="0.5" d="M72.8145 197.895L82.5568 208.487L77.4514 206.701L72.8145 197.895Z" fill="#6726B8"/>
<path d="M165.384 173.133L184.537 176.287H161.99L165.384 173.133Z" fill="#F5A26E"/>
<path d="M146.908 113.302L170.583 113.895L182.619 97.5625L146.908 113.302Z" fill="#B1FBA3"/>
<path d="M170.098 64.3837L176.013 60.4629L174.831 63.6062L170.098 64.3837Z" fill="#F208F6"/>
<path d="M99.3383 205.789L78.8818 140.141L124.624 142.356L125.128 168.653L99.3383 205.789Z" fill="#ECB1A8"/>
<path d="M133.189 159.694V134.098L97.8701 154.814L111.205 194.82L133.189 159.694Z" fill="#92574E"/>
<path d="M125.128 168.655L124.02 136.716L86.3125 133.145L106.265 193.715L125.128 168.655Z" fill="#C48980"/>
<path d="M109.108 177.908L103.616 160.779L119.284 152.537L120.191 164.424L109.108 177.908Z" fill="#92574E"/>
<path d="M76.7445 143.39L59.1826 78.8628L68.0617 51.6876L100.601 37.7148L125.675 42.6914L136.394 60.3009L144.966 100.913L132.14 148.302L115.154 162.169L101.516 160.915L76.7445 143.39Z" fill="#F6BBB2"/>
<path d="M87.4797 100.202L81.6684 102.704L106.125 97.7007L102.967 97.1196L87.4797 100.202Z" fill="black"/>
<path d="M132.149 99.5423L119.404 97.1836L116.15 98.5234L134.545 100.748L132.149 99.5423Z" fill="black"/>
<path d="M110.801 126.412L109.523 115.479L104.718 125.913L110.801 126.412Z" fill="white"/>
<path d="M94.8578 123.112L77.9678 111.547L78.9271 119.129L87.6125 128.102L94.8578 123.112Z" fill="white"/>
<path d="M127.863 129.156L122.334 122.79L134.816 117.68L133.699 124.242L127.863 129.156Z" fill="white"/>
<path d="M113.198 126.41L112.608 121.406L114.778 124.64L113.198 126.41Z" fill="#92574E"/>
<path d="M109.411 131.391L110.402 128.436L111.212 131.737L109.411 131.391Z" fill="#92574E"/>
<path d="M84.2388 135.066L75.1689 124.191L79.763 140.996L89.0687 147.278L84.2388 135.066Z" fill="#92574E"/>
<path d="M127.708 140.869L126.643 146.629L129.314 143.902L130.865 137.949L127.708 140.869Z" fill="#92574E"/>
<path d="M108.611 146.951L101.169 143.049L118.002 140.617L113.661 146.576L111.136 145.722L108.611 146.951Z" fill="#B9E6B6"/>
<path d="M133.597 103.411C126.106 103.261 121.371 106.642 118.327 109.788L131.958 108.641C132.222 107.686 133.214 104.558 133.597 103.411Z" fill="#F208F6"/>
<path d="M103.533 111.99C97.6601 105.057 88.9847 103.096 85.5654 102.871L87.4344 108.964C91.0246 109.189 99.9569 111.364 103.533 111.99Z" fill="#F208F6"/>
<path d="M126.249 111.303C129.669 110.893 131.479 109.305 131.992 108.621C131.266 107.672 128.584 106.758 125.576 106.895C122.567 107.031 119.096 109.251 118.298 109.821C120.694 111.012 123.187 111.671 126.249 111.303Z" fill="#B9E6B6"/>
<path d="M94.7447 107.727C91.2183 107.053 88.3993 108.111 87.2861 108.868C88.0351 110.226 90.9783 112.434 94.2786 112.797C97.5788 113.161 102.104 112.883 103.521 112.012C102.564 110.959 99.1802 108.574 94.7447 107.727Z" fill="#B9E6B6"/>
<path d="M108.874 136.635L101.164 143.052L118 140.619L114.626 136.062L111.384 138.759L108.874 136.635Z" fill="#F208F6"/>
<path d="M64.4668 49.7584L57.1934 72.7273L62.1293 92.6504L70.3598 108.346L72.9764 88.4704L126.823 76.8861V70.1868L144.774 100.641L141.372 56.2831L126.823 41.6589L97.8047 34.7754L64.4668 49.7584Z" fill="#F208F6"/>
<path d="M70.9316 115.004L66.5463 53.4805C60.3345 55.4181 49.9361 70.3577 49.2272 84.0434C48.0607 106.564 63.0914 113.719 70.9316 115.004Z" fill="#F5A26E"/>
<path d="M58.4849 92.3711L41.0332 97.1986L77.3098 107.563L58.4849 92.3711Z" fill="#101BE3"/>
<path d="M126.816 76.3027L161.891 106.116C161.496 101.229 158.546 89.6051 149.908 82.2002C141.27 74.7953 130.914 75.1832 126.816 76.3027Z" fill="#F5A26E"/>
<path d="M169.464 103.692L144.522 87.7939C146.779 86.1977 153.041 84.1298 160.036 88.6284C167.03 93.1269 169.235 100.545 169.464 103.692Z" fill="#6726B8"/>
<path d="M137.027 117.798C137.811 102.26 139.981 80.5793 139.981 80.5793L123.57 42.6426L137.027 117.798Z" fill="#6726B8"/>
<path d="M75.0685 34.4648L67.0127 44.8611L73.2093 73.9179L75.0685 34.4648Z" fill="#B1FBA3"/>
<path d="M83.8566 79.3224L77.3096 16.1055C83.9109 18.56 97.7651 27.6887 100.126 46.5648C102.251 63.5515 89.8435 75.1888 83.8566 79.3224Z" fill="#101BE3"/>
<path d="M157.054 53.0222L87.7511 87.7886C87.1047 80.4487 98.8996 58.765 115.111 49.5105C131.449 40.184 149.838 47.3277 157.054 53.0222Z" fill="#C5930F"/>
<path d="M100.301 71.1201L128.719 15.2793C134.003 21.9773 139.59 36.6181 130.358 55.0824C123.077 69.6446 106.228 70.9492 100.301 71.1201Z" fill="#B9E6B6"/>
<path d="M128.552 74.6456C112.082 86.3785 96.4441 82.3561 91.8722 79.333L143.823 36.0857C144.803 43.7471 145.023 62.9126 128.552 74.6456Z" fill="#6726B8"/>
<path d="M121.612 67.8575L73.6896 37.1565C73.6897 42.7168 74.0055 55.0445 88.6925 65.413C102.885 75.4322 116.31 72.4713 121.612 67.8575Z" fill="#F5A26E"/>
<path d="M103.759 70.5001L101.981 82.3536L100.697 89.1692L155.222 63.6855L103.759 70.5001Z" fill="#93DA5F"/>
<path d="M73.9656 97.0623L73.6455 77.1905L131.994 70.9277L73.9656 97.0623Z" fill="#B1FBA3"/>
<path d="M157.939 147.552C157.499 160.78 159.181 174.366 160.077 179.506C160.077 179.506 158.095 160.5 159.516 148.697C159.326 148.04 158.431 147.409 157.939 147.552Z" fill="black"/>
<path d="M160.767 144.419C159.725 161.097 161.459 181.005 162.354 186.145C162.354 186.145 160.227 163.443 162.345 145.564C162.154 144.907 161.259 144.276 160.767 144.419Z" fill="black"/>
<path d="M71.6754 205.306L73.0856 202.962L69.4016 218.702L71.6754 205.306Z" fill="black"/>
<path d="M74.0198 204.719L75.4586 202.991L70.0082 224.652C70.0082 224.652 73.0387 207.786 74.0198 204.719Z" fill="black"/>
<path d="M133.04 161.881C133.05 162.052 133.051 162.195 133.043 162.307C133.042 162.165 133.041 162.023 133.04 161.881C132.863 158.811 129.971 146.673 129.971 146.673L131.109 144.957C131.727 147.513 132.96 154.414 133.04 161.881Z" fill="black"/>
<path d="M130.953 136.335C133.446 148.974 134.678 162.465 134.982 167.631C135.177 154.988 132.776 140.333 131.552 134.585C131.308 135.003 131.109 135.586 130.953 136.335Z" fill="black"/>
<path d="M82.7425 118.151C72.0824 113.969 64.291 102.687 61.7279 97.5692C66.5699 111.276 77.1772 117.915 81.8756 119.522C82.0322 119.173 82.4295 118.849 82.7425 118.151Z" fill="black"/>
<path d="M88.6145 117.766C81.0803 116.328 72.5928 109.148 69.2909 105.738C76.6473 114.74 84.3237 118.55 87.2423 119.329C87.6391 119.005 88.1689 118.572 88.6145 117.766Z" fill="black"/>
<path d="M122.897 67.624L121.78 66.3293C120.405 72.6087 115.986 87.9874 113.948 94.8919C113.948 94.8919 119.542 80.5406 122.897 67.624Z" fill="black"/>
<path d="M119.147 72.7516L118.03 71.4569C116.206 81.3834 111.545 97.8644 111.545 97.8644C111.545 97.8644 118.314 77.353 119.147 72.7516Z" fill="black"/>
<path d="M-5.5 -4.40039H232.1V233.2H-5.5V-4.40039Z" fill="#E28A07"/>
<path opacity="0.5" d="M164.236 175.464L184.679 171.954L186.773 166.535L164.236 175.464Z" fill="#A53794"/>
<path d="M65.4258 22.6504L70.1546 45.7326L71.6976 25.9917L65.4258 22.6504Z" fill="#C92127"/>
<path d="M53.2948 46.9668L40.9043 53.907L53.2948 53.9068V46.9668Z" fill="#A6C1E2"/>
<path d="M154.559 39.6739L164.361 27.0957L162.047 39.6739H154.559Z" fill="#D7C086"/>
<path d="M28.9756 138.408L32.8058 125.76L60.7393 129.72L28.9756 138.408Z" fill="#A7CFE4"/>
<path d="M66.2838 167.998L53.7969 165.883L80.4604 190.853L66.2838 167.998Z" fill="#961E1F"/>
<path d="M177.909 163.236L132.309 188.207L158.123 161.438L177.909 163.236Z" fill="#74295E"/>
<path d="M165.306 104.871L155.837 95.9805L176.221 102.992L165.306 104.871Z" fill="#4F2A5F"/>
<path d="M174.224 58.7637L164.611 59.6152L172.015 60.6669L174.224 58.7637Z" fill="#8E2F92"/>
<path d="M98.7737 25.4125L97.3013 20.6582L88.7627 35.6771L98.7737 25.4125Z" fill="#985AA4"/>
<path d="M107.63 198.261L88.7363 145.209L105.806 148.377L129.16 164.872L107.63 198.261Z" fill="#C3E4F8"/>
<path d="M140.412 148.083L137.185 121.645L105.665 144.919L119.391 186.097L140.412 148.083Z" fill="#5682B8"/>
<path d="M131.034 155.011L131.69 120.775L96.8477 134.132L113.401 182.22L131.034 155.011Z" fill="#88B3DF"/>
<path d="M116.333 169.902L110.878 154.241L122.818 142.803L126.689 154.241L116.333 169.902Z" fill="#C3E4F8"/>
<path d="M79.6342 138.81L67.4463 88.5455L74.6612 49.1194L107.744 35.9883L140.124 45.248L146.006 60.6151L143.109 101.169L134.844 142.907L118.802 157.074L104.427 156.588L79.6342 138.81Z" fill="#ACD2EF"/>
<path d="M88.9772 91.1094L84.4385 92.0491L108.456 97.5198L105.542 93.9292L88.9772 91.1094Z" fill="black"/>
<path d="M133.127 90.3633L120.388 93.8316L118.866 97.0126L134.78 91.0438L133.127 90.3633Z" fill="black"/>
<path d="M115.432 122.548L111.829 99.9102L105.68 120.945L115.432 122.548Z" fill="#DDEDF9"/>
<path d="M100.277 117.804C96.992 115.633 79.3611 103.779 78.6572 103.639L80.4057 113.003L92.0801 124.886L100.277 117.804Z" fill="#DDEDF9"/>
<path d="M130.082 125.564L122.515 115.885L139.397 108.312L138.098 116.917L130.082 125.564Z" fill="#DDEDF9"/>
<path d="M118.451 122.059L116.79 115.891C117.905 117.416 120.451 120.116 120.451 120.116C120.451 120.116 119.331 121.238 118.451 122.059Z" fill="#5682B8"/>
<path d="M112.799 129.597L114.181 125.062L115.509 130.214L112.799 129.597Z" fill="#5682B8"/>
<path d="M89.5082 127.799L75.0391 113.131L82.1017 138.714L98.8948 149.72L89.5082 127.799Z" fill="#5682B8"/>
<path d="M129.971 131.411L126.833 146.111L133.763 139.798L136.627 125.031L129.971 131.411Z" fill="#5682B8"/>
<path d="M109.834 140.502L100.087 136.747L115.133 133.068L125.04 133.911L119.046 139.713L114.483 138.811L109.834 140.502Z" fill="#6EA2CE"/>
<path d="M135.138 96.9453C127.618 97.1393 122.204 100.446 120.388 103.266L133.678 101.932C134.004 100.9 134.944 97.8852 135.138 96.9453Z" fill="#5A266B"/>
<path d="M105.578 104.435C100.933 99.9296 95.2877 97.2723 88.5762 97.0332L90.4974 102.056C94.1929 102.232 100.475 102.499 105.578 104.435Z" fill="#5A266B"/>
<path d="M127.929 105.515C128.641 105.336 133.083 102.53 133.611 101.826C132.907 101.532 130.267 101.1 127.17 101.24C124.073 101.381 121.003 102.814 120.182 103.4C120.827 104.045 126.45 105.553 127.929 105.515Z" fill="#BA2462"/>
<path d="M98.1528 101.516C95.0557 100.672 91.7316 101.821 90.7344 102.408C91.6142 103.17 94.3595 105.468 96.7469 106.529C99.7975 106.344 104.28 104.712 105.395 104.302C104.515 103.833 101.25 102.361 98.1528 101.516Z" fill="#BA2462"/>
<path d="M110.566 130.106L100.085 136.754L111.496 135.515L114.68 136.078L117.13 134.923L125.047 133.909L119.975 129.852L115.637 131.88L110.566 130.106Z" fill="#662873"/>
<path d="M68.5107 100.001L73.0164 112.192L79.9067 90.549L129.451 72.4272L127.629 61.6209L137.679 85.0669V67.0913L157.872 61.9899C157.872 61.9899 145.401 46.6147 129.108 55.4315L100.345 48.873L75.8438 59.7192L68.5107 100.001Z" fill="#E14E4C"/>
<path d="M67.1629 52.465L73.2317 106.369C66.0135 105.048 54.6195 100.388 52.2883 83.0924C49.8863 65.2721 60.3216 55.8508 67.1629 52.465Z" fill="#893C96"/>
<path d="M73.9082 93.5809L78.1176 73.0977H131.145L73.9082 93.5809Z" fill="#2A266A"/>
<path d="M80.9533 127.274L66.2283 91.0801C62.0148 92.9456 60.6999 103.918 64.2284 112.637C69.3914 125.397 76.4712 127.274 80.9533 127.274Z" fill="#D7C086"/>
<path d="M63.6196 86.8535L55.6357 110.574L65.5717 99.7489L63.6196 86.8535Z" fill="#D22027"/>
<path d="M88.7963 81.4051L103.22 35.484C97.1937 35.484 85.3374 39.4498 81.3492 53.1788C77.6324 65.9739 84.9866 78.6345 88.7963 81.4051Z" fill="#E14F4B"/>
<path d="M101.024 71.4688L125.24 85.1552L155.677 88.6015L130.408 77.1152L101.024 71.4688Z" fill="#D7C086"/>
<path d="M106.282 66.5117L148.069 36.4785C149.77 43.8694 144.896 54.5148 135.894 61.4033C125.937 69.0226 114.788 69.9139 106.282 66.5117Z" fill="#312564"/>
<path d="M92.5854 48.9882L73.7542 109.862C68.708 106.517 59.8652 94.6155 64.5897 75.7884C70.8653 50.7809 86.5759 50.0521 92.5854 48.9882Z" fill="#C62D74"/>
<path d="M112.329 59.635C98.6809 75.3501 84.6604 75.4358 79.3561 73.5143L120.901 17.7026C123.731 25.1321 125.978 43.9199 112.329 59.635Z" fill="#D62B27"/>
<path d="M127.654 68.875L144.857 111.366C146.383 106.556 150.131 96.9739 143.777 84.6012C138.815 74.9387 131.995 69.4029 127.654 68.875Z" fill="#8F3B96"/>
<path d="M153.723 112.782L140.16 89.8633C143.018 90.1037 148.433 92.8348 151.28 98.2283C153.896 103.186 154.661 109.673 153.723 112.782Z" fill="#DB3327"/>
<path d="M132.131 78.5519L108.778 76.2547L134.428 69.5547L163.43 81.9019L132.131 78.5519Z" fill="#DB3127"/>
<path d="M89.7288 66.0506L70.3369 86.8535L95.6889 69.337L89.7288 66.0506Z" fill="#F39A32"/>
<path d="M101.349 67.2067L135.523 24.921C140.832 34.305 141.207 45.4512 132 56.2107C120.82 69.2764 108.499 68.2375 101.349 67.2067Z" fill="#BF3275"/>
<path d="M81.2126 60.0791L120.154 39.5387C120.923 46.4297 117.534 54.6011 108.229 60.0791C96.3601 67.0662 85.2324 63.1419 81.2126 60.0791Z" fill="#843694"/>
<path d="M146.873 77.5931L167.93 68.596L116.789 61.1543L112.896 64.3132L146.873 77.5931Z" fill="#995CA5"/>
<path d="M183.854 154.244C171.437 159.847 159.652 167.572 155.312 170.734C155.312 170.734 171.965 160.27 183.513 156.221C184.033 155.747 184.209 154.634 183.854 154.244Z" fill="black"/>
<path d="M188.033 155.435C172.155 162.049 154.555 172.693 150.215 175.855C150.215 175.855 170.216 163.578 187.692 157.412C188.212 156.938 188.388 155.825 188.033 155.435Z" fill="black"/>
<path d="M70.1404 214.034L68.2222 211.973L82.7476 220.09L70.1404 214.034Z" fill="black"/>
<path d="M70.2279 211.546L68.9271 209.632L88.8078 221.179C88.8078 221.179 72.984 213.388 70.2279 211.546Z" fill="black"/>
<path d="M134.531 159.566C134.441 159.718 134.361 159.841 134.29 159.932C134.371 159.81 134.451 159.688 134.531 159.566C136.14 156.84 140.627 144.806 140.627 144.806L142.583 143.991C141.646 146.53 138.744 153.136 134.531 159.566Z" fill="black"/>
<path d="M147.393 136.528C142.277 148.762 135.597 161.001 132.896 165.592C140.31 154.896 146.659 140.991 148.907 135.375C148.46 135.593 147.955 135.977 147.393 136.528Z" fill="black"/>
<path d="M77.84 119.864C71.2011 110.124 71.1186 96.0124 71.9073 90.1738C68.0754 104.637 73.2444 116.435 76.3078 120.527C76.6432 120.321 77.1693 120.275 77.84 119.864Z" fill="black"/>
<path d="M83.0528 122.947C77.4803 117.355 74.4272 106.327 73.5972 101.512C74.6318 113.433 78.9498 121.125 80.9794 123.48C81.5049 123.435 82.2066 123.374 83.0528 122.947Z" fill="black"/>
<path d="M109.249 71.8585L107.778 72.8246C114.003 75.0692 129.106 81.638 135.88 84.6419C135.88 84.6419 121.982 77.0114 109.249 71.8585Z" fill="black"/>
<path d="M113.981 76.3717L112.51 77.3378C122.397 80.5288 138.592 87.4917 138.592 87.4917C138.592 87.4917 118.566 77.8379 113.981 76.3717Z" fill="black"/>
<path d="M0 0H220V220H0V0Z" fill="#AA2D87"/>
<path opacity="0.5" d="M167.971 166.39L167.319 168.345L172.696 165.412L167.971 166.39Z" fill="#5322E6"/>
<path opacity="0.5" d="M83.0797 33.2703L54.4023 30.8262L77.8656 38.3214L83.0797 33.2703Z" fill="#A44F33"/>
<path d="M69.882 17.6289L32.0801 21.8653L77.0513 43.3733L69.882 17.6289Z" fill="white"/>
<path d="M153.306 44.0236L144.996 29.0332L180.517 33.1067L153.306 44.0236Z" fill="#FBE216"/>
<path d="M59.2897 161.177L55.7051 148.305L61.408 145.209L59.2897 161.177Z" fill="#7ED4C3"/>
<path opacity="0.5" d="M77.2127 190.668L70.5322 198.489L95.7878 187.246L77.2127 190.668Z" fill="#CAEF5C"/>
<path d="M177.097 185.458L123.49 157.758L164.062 165.742L177.097 185.458Z" fill="#8F6BCE"/>
<path d="M159.172 105.615L160.312 87.2031C164.169 96.1105 171.979 114.088 172.37 114.74C172.761 115.392 163.734 108.928 159.172 105.615Z" fill="#284CF0"/>
<path d="M167.93 64.7099L176.03 64.2168L167.072 67.7026L167.93 64.7099Z" fill="#8F6BCE"/>
<path opacity="0.5" d="M99.0663 27.6206L86.9893 21.3457L93.8522 32.6718L99.0663 27.6206Z" fill="#A44F33"/>
<path d="M108.498 194.577L92.6924 142.6L108.498 145.533L130.168 164.759L108.498 194.577Z" fill="#7ED4C3"/>
<path d="M118.438 169.162L112.572 152.379L94.8115 145.861L107.521 183.989L118.438 169.162Z" fill="#56AC9B"/>
<path d="M131.962 152.377V138.527L97.2559 143.253L110.617 185.291L131.962 152.377Z" fill="#247A69"/>
<path d="M110.29 171.279L105.239 156.777H112.246L115.83 167.368L110.29 171.279Z" fill="#7ED4C3"/>
<path d="M80.3101 136.9L66.7861 86.0625L73.4666 49.5569L104.099 37.3984L134.08 45.9722L139.527 60.2011L145.812 94.2095L134.08 140.158L117.46 155.312L104.099 154.171L80.3101 136.9Z" fill="#88DECD"/>
<path d="M90.0856 93.2305L85.3604 93.8822L109.149 97.7928C108.226 97.0324 106.314 95.479 106.054 95.3487C105.793 95.2183 95.2997 93.8822 90.0856 93.2305Z" fill="black"/>
<path d="M132.613 92.0898L120.882 95.8374L118.601 98.2815L135.709 92.9045L132.613 92.0898Z" fill="black"/>
<path d="M113.711 122.56L112.082 100.074L105.564 122.071L113.711 122.56Z" fill="white"/>
<path d="M95.1376 116.371C92.096 114.362 85.85 110.31 85.1982 110.18L86.0129 114.09L91.227 119.141L95.1376 116.371Z" fill="white"/>
<path d="M129.354 125.659L122.348 116.697L138.479 110.18L136.36 118.327L129.354 125.659Z" fill="white"/>
<path d="M116.645 122.562L115.342 115.393C116.374 116.805 118.503 119.694 118.764 119.955C119.024 120.216 117.46 121.802 116.645 122.562Z" fill="#247A69"/>
<path d="M111.595 128.589L112.898 124.516L115.016 129.241L111.595 128.589Z" fill="#247A69"/>
<path d="M86.8279 128.752L84.3838 125.656L85.5244 130.707L88.1314 132.337L86.8279 128.752Z" fill="#247A69"/>
<path d="M129.844 133.804L129.029 137.388L131.148 136.573L131.799 132.5L129.844 133.804Z" fill="#247A69"/>
<path d="M110.779 138.692L99.5361 136.574L113.549 133.152L125.606 133.804L120.229 137.878H114.689L110.779 138.692Z" fill="#18B9B9"/>
<path d="M134.568 100.075C127.269 99.4234 122.076 102.519 120.393 104.149L132.45 102.845C133.102 101.867 133.591 100.727 134.568 100.075Z" fill="#8F6BCE"/>
<path d="M104.262 104.801C99.9602 100.629 92.3672 99.2606 89.1084 99.0977L91.7154 103.334C95.1372 103.497 99.5365 103.008 104.262 104.801Z" fill="#8F6BCE"/>
<path d="M126.747 105.451C130.005 105.06 131.798 103.658 132.287 103.007C131.635 102.735 129.614 102.225 126.747 102.355C123.879 102.485 121.641 103.604 120.881 104.147C121.478 104.745 123.488 105.842 126.747 105.451Z" fill="#18BAB9"/>
<path d="M98.0695 102.521C95.2017 101.739 92.6382 102.629 91.7148 103.173C92.5295 103.879 94.8433 105.356 97.5807 105.616C100.318 105.877 103.066 105.182 104.098 104.802C103.284 104.367 100.937 103.303 98.0695 102.521Z" fill="#18BAB9"/>
<path d="M109.639 131.521L98.8848 136.573L112.083 134.943L115.668 135.758L117.134 134.291L125.607 133.64L119.252 131.521L115.016 132.662L109.639 131.521Z" fill="#8F6BCE"/>
<path d="M62.5479 79.7058L74.9312 104.473L76.7236 88.1787L124.954 73.1882L122.51 61.1307L145.321 89.6451L139.781 41.9039L103.609 32.7793L69.5542 48.4215L62.5479 79.7058Z" fill="#8F6BCE"/>
<path d="M102.471 71.7226L79.0078 11.9238C85.6883 12.5756 100.744 18.0829 107.522 34.8983C114.3 51.7136 106.979 66.4542 102.471 71.7226Z" fill="#18BAB9"/>
<path d="M79.4944 93.7184L76.5615 73.188L130.494 59.6641L79.4944 93.7184Z" fill="#284CF0"/>
<path d="M66.1338 109.035L71.3479 51.1914C65.4277 53.0381 52.8379 61.3914 49.8399 80.0317C46.8418 98.6719 59.4533 107.134 66.1338 109.035Z" fill="#5322E6"/>
<path d="M81.4492 88.668L46.7432 98.9332L69.3917 100.563L81.4492 88.668Z" fill="#A44F33"/>
<path d="M113.385 68.7869L71.5098 38.1543C71.5098 43.9658 71.5098 57.3811 82.9155 65.854C92.7699 73.1744 107.031 71.231 113.385 68.7869Z" fill="#2AD425"/>
<path d="M113.06 58.5239L110.941 66.1821L144.181 53.7987L153.794 30.8242L113.06 58.5239Z" fill="#267849"/>
<path d="M89.5967 81.9867L144.996 45.4883C146.571 52.3317 146.071 68.5605 131.472 78.7279C116.873 88.8953 97.4721 85.1369 89.5967 81.9867Z" fill="#A44F33"/>
<path d="M109.149 77.0995L135.22 22.6777C136.849 28.5979 141.9 40.9269 133.101 58.5244C126.162 72.403 114.798 76.9366 109.149 77.0995Z" fill="#284CF0"/>
<path d="M119.578 44.185C137.306 36.6246 149.016 42.2297 152.655 45.9773L95.4629 75.6324C96.1146 68.3001 101.85 51.7453 119.578 44.185Z" fill="#2AD425"/>
<path d="M128.539 72.5352L148.744 111.478C150.156 107.024 151.742 95.7051 146.788 86.0591C141.835 76.4131 132.558 73.024 128.539 72.5352Z" fill="#5322E6"/>
<path d="M156.565 111.641L139.782 88.9921C142.335 88.3403 148.614 88.6336 153.306 95.0208C157.999 101.408 157.434 108.762 156.565 111.641Z" fill="#CAEF5C"/>
<path d="M167.156 93.5555C155.262 84.7024 131.212 66.8334 130.169 66.1816L124.955 76.6098L167.156 93.5555Z" fill="#CAEF5C"/>
<path d="M121.696 85.0823L100.84 76.4465L121.696 71.2324L160.15 82.9641L121.696 85.0823Z" fill="#FBE216"/>
<path d="M88.9458 49.7242L61.2461 45.9766C72.3803 50.5932 94.779 59.8264 95.3004 59.8264C95.8218 59.8264 91.2812 53.0916 88.9458 49.7242Z" fill="#284CF0"/>
<path d="M86.1748 70.907L117.296 10.9453C120.121 18.006 128.702 32.2904 115.993 51.0284C106.437 65.1171 92.8553 70.5811 86.1748 70.907Z" fill="#CAEF5C"/>
<path d="M75.4201 83.8862L109.102 25.3245C111.619 32.5006 119.575 47.1423 106.069 65.3139C95.9133 78.9768 82.1085 83.8491 75.4201 83.8862Z" fill="#5322E6"/>
<path d="M178.4 158.73C166.408 154.82 153.525 152.756 148.582 152.213C148.582 152.213 166.505 155.439 176.933 159.871C177.585 159.871 178.4 159.219 178.4 158.73Z" fill="black"/>
<path d="M180.518 162.152C165.528 156.775 146.844 153.082 141.901 152.539C141.901 152.539 163.246 156.613 179.052 163.293C179.703 163.293 180.518 162.641 180.518 162.152Z" fill="black"/>
<path d="M70.2086 208.264H67.6016L82.2661 203.539L70.2086 208.264Z" fill="black"/>
<path d="M68.5782 206.637L66.46 206.311L86.8274 200.119C86.8274 200.119 71.5654 205.931 68.5782 206.637Z" fill="black"/>
<path d="M124.696 140.745C124.535 140.713 124.403 140.679 124.303 140.645C124.434 140.678 124.565 140.712 124.696 140.745C127.567 141.33 139.456 141.622 139.456 141.622L140.76 143.089C138.254 143.035 131.596 142.49 124.696 140.745Z" fill="black"/>
<path d="M148.744 145.045C136.491 144.263 123.76 142.112 118.926 141.135C130.527 144.394 144.616 145.751 150.21 146.023C149.884 145.697 149.395 145.371 148.744 145.045Z" fill="black"/>
<path d="M90.2493 102.355C80.7337 107.7 67.7094 106.646 62.3867 105.451C75.4219 110.144 86.719 106.32 90.7382 103.822C90.5752 103.496 90.5752 103.007 90.2493 102.355Z" fill="black"/>
<path d="M93.5079 97.793C87.9028 102.486 77.4855 104.419 72.9775 104.799C84.0574 104.799 91.4983 101.432 93.8338 99.7482C93.8338 99.2598 93.8338 98.6077 93.5079 97.793Z" fill="black"/>
<path d="M120.231 65.0421L118.927 64.0645C118.927 70.191 117.95 85.4095 117.461 92.253C117.461 92.253 119.742 77.7514 120.231 65.0421Z" fill="black"/>
<path d="M117.785 70.5812L116.482 69.6035C116.808 79.2169 115.83 95.5109 115.83 95.5109C115.83 95.5109 117.948 75.0348 117.785 70.5812Z" fill="black"/>
</g>
</g>
<defs>
<clipPath id="clip0_1427_16154">
<rect width="220" height="220" fill="white"/>
</clipPath>
<clipPath id="clip1_1427_16154">
<rect width="220" height="220" fill="white"/>
</clipPath>
</defs>
</svg>
