<svg width="400" height="400" viewBox="0 0 400 400" fill="none" xmlns="http://www.w3.org/2000/svg">
<g clip-path="url(#clip0_1202_67198)">
<path d="M0 0H400V400H0V0Z" fill="#AA2D87"/>
<path opacity="0.5" d="M305.404 302.526L304.219 306.081L313.995 300.748L305.404 302.526Z" fill="#5322E6"/>
<path opacity="0.5" d="M151.055 60.4887L98.9141 56.0449L141.575 69.6726L151.055 60.4887Z" fill="#A44F33"/>
<path d="M127.059 32.0508L58.3281 39.7534L140.094 78.8588L127.059 32.0508Z" fill="white"/>
<path d="M278.739 80.0405L263.63 52.7852L328.213 60.1915L278.739 80.0405Z" fill="#FBE216"/>
<path d="M107.8 293.048L101.282 269.644L111.651 264.016L107.8 293.048Z" fill="#7ED4C3"/>
<path opacity="0.5" d="M140.388 346.667L128.241 360.887L174.16 340.445L140.388 346.667Z" fill="#CAEF5C"/>
<path d="M321.996 337.191L224.528 286.828L298.295 301.345L321.996 337.191Z" fill="#8F6BCE"/>
<path d="M289.404 192.025L291.478 158.549C298.489 174.744 312.69 207.431 313.401 208.616C314.112 209.801 297.699 198.049 289.404 192.025Z" fill="#284CF0"/>
<path d="M305.327 117.654L320.056 116.758L303.767 123.096L305.327 117.654Z" fill="#8F6BCE"/>
<path opacity="0.5" d="M180.12 50.2176L158.162 38.8086L170.64 59.4014L180.12 50.2176Z" fill="#A44F33"/>
<path d="M197.268 353.778L168.531 259.273L197.268 264.606L236.67 299.564L197.268 353.778Z" fill="#7ED4C3"/>
<path d="M215.342 307.565L204.676 277.051L172.385 265.201L195.493 334.524L215.342 307.565Z" fill="#56AC9B"/>
<path d="M239.93 277.049V251.867L176.828 260.459L201.121 336.892L239.93 277.049Z" fill="#247A69"/>
<path d="M200.529 311.417L191.345 285.051H204.084L210.601 304.307L200.529 311.417Z" fill="#7ED4C3"/>
<path d="M146.019 248.907L121.43 156.476L133.576 90.1024L189.272 67.9961L243.782 83.5848L253.685 109.455L265.113 171.289L243.782 254.832L213.564 282.384L189.272 280.31L146.019 248.907Z" fill="#88DECD"/>
<path d="M163.793 169.51L155.201 170.695L198.454 177.805C196.775 176.422 193.299 173.598 192.825 173.361C192.351 173.124 173.273 170.695 163.793 169.51Z" fill="black"/>
<path d="M241.116 167.436L219.786 174.249L215.639 178.693L246.745 168.917L241.116 167.436Z" fill="black"/>
<path d="M206.749 222.836L203.787 181.953L191.937 221.947L206.749 222.836Z" fill="white"/>
<path d="M172.977 211.582C167.447 207.928 156.09 200.561 154.905 200.324L156.387 207.434L165.867 216.618L172.977 211.582Z" fill="white"/>
<path d="M235.189 228.468L222.45 212.174L251.779 200.324L247.928 215.137L235.189 228.468Z" fill="white"/>
<path d="M212.082 222.838L209.712 209.803C211.588 212.37 215.459 217.624 215.933 218.098C216.407 218.572 213.563 221.455 212.082 222.838Z" fill="#247A69"/>
<path d="M202.9 233.799L205.27 226.393L209.122 234.984L202.9 233.799Z" fill="#247A69"/>
<path d="M157.87 234.094L153.426 228.465L155.5 237.649L160.24 240.611L157.87 234.094Z" fill="#247A69"/>
<path d="M236.08 243.278L234.599 249.796L238.45 248.315L239.635 240.908L236.08 243.278Z" fill="#247A69"/>
<path d="M201.417 252.166L180.976 248.315L206.453 242.094L228.376 243.279L218.6 250.685H208.527L201.417 252.166Z" fill="#18B9B9"/>
<path d="M244.67 181.952C231.397 180.767 221.957 186.396 218.896 189.359L240.818 186.989C242.003 185.211 242.892 183.137 244.67 181.952Z" fill="#8F6BCE"/>
<path d="M189.567 190.543C181.746 182.959 167.941 180.47 162.016 180.174L166.756 187.876C172.977 188.173 180.976 187.284 189.567 190.543Z" fill="#8F6BCE"/>
<path d="M230.449 191.729C236.374 191.018 239.633 188.471 240.522 187.286C239.337 186.792 235.663 185.864 230.449 186.101C225.235 186.338 221.167 188.372 219.784 189.359C220.87 190.446 224.524 192.44 230.449 191.729Z" fill="#18BAB9"/>
<path d="M178.309 186.4C173.095 184.978 168.434 186.597 166.755 187.585C168.236 188.868 172.443 191.554 177.42 192.028C182.397 192.502 187.394 191.238 189.27 190.547C187.789 189.757 183.523 187.822 178.309 186.4Z" fill="#18BAB9"/>
<path d="M199.345 239.131L179.792 248.315L203.789 245.352L210.306 246.833L212.972 244.167L228.378 242.982L216.824 239.131L209.121 241.205L199.345 239.131Z" fill="#8F6BCE"/>
<path d="M113.725 144.921L136.24 189.951L139.499 160.326L227.19 133.07L222.746 111.148L264.221 162.992L254.149 76.1898L188.38 59.5996L126.464 88.0399L113.725 144.921Z" fill="#8F6BCE"/>
<path d="M186.311 130.405L143.65 21.6797C155.797 22.8647 183.171 32.8781 195.495 63.4514C207.819 94.0248 194.507 120.826 186.311 130.405Z" fill="#18BAB9"/>
<path d="M144.537 170.397L139.204 133.069L237.264 108.48L144.537 170.397Z" fill="#284CF0"/>
<path d="M120.244 198.248L129.724 93.0781C118.96 96.4357 96.0699 111.624 90.6188 145.515C85.1678 179.406 108.098 194.792 120.244 198.248Z" fill="#5322E6"/>
<path d="M148.09 161.217L84.9883 179.881L126.168 182.843L148.09 161.217Z" fill="#A44F33"/>
<path d="M206.156 125.069L130.019 69.373C130.019 79.9394 130.019 104.331 150.756 119.736C168.673 133.046 194.602 129.512 206.156 125.069Z" fill="#2AD425"/>
<path d="M205.563 106.408L201.712 120.332L262.148 97.8166L279.627 56.0449L205.563 106.408Z" fill="#267849"/>
<path d="M162.903 149.07L263.629 82.709C266.493 95.1516 265.585 124.658 239.04 143.145C212.496 161.631 177.222 154.797 162.903 149.07Z" fill="#A44F33"/>
<path d="M198.455 140.181L245.856 41.2324C248.818 51.9963 258.002 74.4128 242.004 106.408C229.387 131.642 208.725 139.885 198.455 140.181Z" fill="#284CF0"/>
<path d="M217.414 80.339C249.646 66.5928 270.937 76.7839 277.553 83.5977L173.568 137.516C174.753 124.185 185.181 94.0851 217.414 80.339Z" fill="#2AD425"/>
<path d="M233.708 131.885L270.443 202.689C273.011 194.592 275.894 174.012 266.888 156.474C257.882 138.936 241.016 132.774 233.708 131.885Z" fill="#5322E6"/>
<path d="M284.664 202.983L254.15 161.804C258.792 160.619 270.207 161.152 278.739 172.766C287.272 184.379 286.244 197.75 284.664 202.983Z" fill="#CAEF5C"/>
<path d="M303.921 170.103C282.295 154.006 238.568 121.517 236.672 120.332L227.191 139.292L303.921 170.103Z" fill="#CAEF5C"/>
<path d="M221.266 154.697L183.346 138.996L221.266 129.516L291.182 150.846L221.266 154.697Z" fill="#FBE216"/>
<path d="M161.72 90.4076L111.356 83.5938C131.6 91.9876 172.325 108.775 173.273 108.775C174.221 108.775 165.966 96.5302 161.72 90.4076Z" fill="#284CF0"/>
<path d="M156.682 128.924L213.266 19.9023C218.401 32.74 234.004 58.7115 210.896 92.7807C193.522 118.397 168.828 128.331 156.682 128.924Z" fill="#CAEF5C"/>
<path d="M137.128 152.521L198.369 46.0453C202.944 59.0928 217.411 85.7139 192.853 118.753C174.389 143.595 149.289 152.454 137.128 152.521Z" fill="#5322E6"/>
<path d="M324.363 288.602C302.559 281.492 279.135 277.739 270.148 276.752C270.148 276.752 302.736 282.618 321.697 290.676C322.882 290.676 324.363 289.491 324.363 288.602Z" fill="black"/>
<path d="M328.213 294.823C300.958 285.046 266.987 278.331 258.001 277.344C258.001 277.344 296.81 284.75 325.547 296.896C326.732 296.896 328.213 295.711 328.213 294.823Z" fill="black"/>
<path d="M127.651 378.664H122.911L149.574 370.072L127.651 378.664Z" fill="black"/>
<path d="M124.686 375.704L120.835 375.111L157.867 363.854C157.867 363.854 130.118 374.42 124.686 375.704Z" fill="black"/>
<path d="M226.719 255.9C226.428 255.84 226.188 255.779 226.005 255.717C226.243 255.779 226.481 255.84 226.719 255.9C231.941 256.963 253.556 257.494 253.556 257.494L255.926 260.161C251.372 260.064 239.265 259.073 226.719 255.9Z" fill="black"/>
<path d="M270.443 263.717C248.165 262.295 225.017 258.385 216.229 256.607C237.322 262.532 262.938 265.001 273.109 265.495C272.517 264.902 271.628 264.31 270.443 263.717Z" fill="black"/>
<path d="M164.089 186.102C146.788 195.819 123.107 193.903 113.43 191.73C137.13 200.262 157.67 193.31 164.978 188.768C164.682 188.175 164.682 187.286 164.089 186.102Z" fill="black"/>
<path d="M170.012 177.805C159.821 186.337 140.881 189.852 132.685 190.544C152.83 190.544 166.359 184.421 170.605 181.36C170.605 180.472 170.605 179.286 170.012 177.805Z" fill="black"/>
<path d="M218.601 118.258L216.231 116.48C216.231 127.62 214.453 155.29 213.564 167.732C213.564 167.732 217.712 141.366 218.601 118.258Z" fill="black"/>
<path d="M214.155 128.328L211.785 126.551C212.377 144.03 210.6 173.655 210.6 173.655C210.6 173.655 214.451 136.426 214.155 128.328Z" fill="black"/>
</g>
<defs>
<clipPath id="clip0_1202_67198">
<rect width="400" height="400" fill="white"/>
</clipPath>
</defs>
</svg>
