<svg width="271" height="360" viewBox="0 0 271 360" fill="none" xmlns="http://www.w3.org/2000/svg">
<path opacity="0.5" d="M247.777 283.524L246.592 287.079L256.368 281.746L247.777 283.524Z" fill="#5322E6"/>
<path opacity="0.5" d="M93.4277 41.4868L41.2871 37.043L83.9476 50.6706L93.4277 41.4868Z" fill="#A44F33"/>
<path d="M69.432 13.0488L0.701172 20.7514L82.4671 59.8569L69.432 13.0488Z" fill="white"/>
<path d="M221.111 61.0385L206.002 33.7832L270.585 41.1895L221.111 61.0385Z" fill="#FBE216"/>
<path d="M50.1738 274.047L43.6562 250.642L54.0251 245.014L50.1738 274.047Z" fill="#7ED4C3"/>
<path opacity="0.5" d="M82.7616 327.667L70.6152 341.887L116.535 321.445L82.7616 327.667Z" fill="#CAEF5C"/>
<path d="M264.37 318.189L166.902 267.826L240.669 282.343L264.37 318.189Z" fill="#8F6BCE"/>
<path d="M231.777 173.024L233.851 139.547C240.862 155.742 255.063 188.429 255.774 189.614C256.485 190.799 240.072 179.047 231.777 173.024Z" fill="#284CF0"/>
<path d="M247.701 98.6524L262.43 97.7559L246.141 104.094L247.701 98.6524Z" fill="#8F6BCE"/>
<path opacity="0.5" d="M122.493 31.2156L100.535 19.8066L113.013 40.3995L122.493 31.2156Z" fill="#A44F33"/>
<path d="M139.643 334.776L110.906 240.271L139.643 245.604L179.045 280.562L139.643 334.776Z" fill="#7ED4C3"/>
<path d="M157.716 288.563L147.051 258.049L114.76 246.199L137.868 315.522L157.716 288.563Z" fill="#56AC9B"/>
<path d="M182.305 258.047V232.865L119.203 241.457L143.496 317.89L182.305 258.047Z" fill="#247A69"/>
<path d="M142.903 292.415L133.719 266.049H146.458L152.975 285.305L142.903 292.415Z" fill="#7ED4C3"/>
<path d="M88.3918 229.905L63.8027 137.474L75.9491 71.1004L131.645 48.9941L186.155 64.5829L196.058 90.4535L207.486 152.287L186.155 235.83L155.938 263.382L131.645 261.308L88.3918 229.905Z" fill="#88DECD"/>
<path d="M106.166 150.508L97.5742 151.693L140.827 158.803C139.148 157.42 135.672 154.596 135.198 154.359C134.724 154.122 115.646 151.693 106.166 150.508Z" fill="black"/>
<path d="M183.49 148.434L162.159 155.247L158.012 159.691L189.118 149.915L183.49 148.434Z" fill="black"/>
<path d="M149.123 203.834L146.161 162.951L134.311 202.945L149.123 203.834Z" fill="white"/>
<path d="M115.351 192.58C109.821 188.926 98.4643 181.559 97.2793 181.322L98.7606 188.432L108.241 197.616L115.351 192.58Z" fill="white"/>
<path d="M177.563 209.466L164.824 193.172L194.153 181.322L190.302 196.135L177.563 209.466Z" fill="white"/>
<path d="M154.456 203.836L152.086 190.801C153.962 193.368 157.833 198.622 158.307 199.096C158.781 199.57 155.937 202.453 154.456 203.836Z" fill="#247A69"/>
<path d="M145.273 214.797L147.643 207.391L151.495 215.982L145.273 214.797Z" fill="#247A69"/>
<path d="M100.243 215.092L95.7988 209.463L97.8726 218.647L102.613 221.609L100.243 215.092Z" fill="#247A69"/>
<path d="M178.452 224.276L176.971 230.794L180.822 229.313L182.007 221.906L178.452 224.276Z" fill="#247A69"/>
<path d="M143.791 233.164L123.35 229.313L148.827 223.092L170.75 224.277L160.974 231.683H150.901L143.791 233.164Z" fill="#18B9B9"/>
<path d="M187.042 162.951C173.769 161.765 164.329 167.394 161.268 170.357L183.19 167.987C184.375 166.209 185.264 164.136 187.042 162.951Z" fill="#8F6BCE"/>
<path d="M131.94 171.541C124.119 163.957 110.314 161.468 104.389 161.172L109.129 168.874C115.35 169.171 123.349 168.282 131.94 171.541Z" fill="#8F6BCE"/>
<path d="M172.823 172.727C178.748 172.016 182.007 169.469 182.896 168.284C181.711 167.79 178.037 166.862 172.823 167.099C167.609 167.336 163.541 169.37 162.158 170.357C163.244 171.444 166.898 173.438 172.823 172.727Z" fill="#18BAB9"/>
<path d="M120.683 167.398C115.469 165.976 110.808 167.595 109.129 168.583C110.61 169.866 114.817 172.552 119.794 173.026C124.771 173.5 129.768 172.236 131.644 171.545C130.163 170.755 125.897 168.82 120.683 167.398Z" fill="#18BAB9"/>
<path d="M141.717 220.129L122.164 229.313L146.161 226.35L152.678 227.831L155.344 225.165L170.75 223.98L159.196 220.129L151.493 222.203L141.717 220.129Z" fill="#8F6BCE"/>
<path d="M56.0977 125.919L78.6129 170.949L81.8717 141.324L169.563 114.068L165.119 92.1457L206.594 143.99L196.522 57.1878L130.753 40.5977L68.8365 69.038L56.0977 125.919Z" fill="#8F6BCE"/>
<path d="M128.684 111.403L86.0234 2.67773C98.1698 3.86275 125.544 13.8761 137.868 44.4495C150.192 75.0228 136.88 101.824 128.684 111.403Z" fill="#18BAB9"/>
<path d="M86.9107 151.395L81.5781 114.068L179.638 89.4785L86.9107 151.395Z" fill="#284CF0"/>
<path d="M62.6172 179.246L72.0973 74.0762C61.3334 77.4337 38.4429 92.6216 32.9919 126.513C27.5408 160.404 50.4708 175.79 62.6172 179.246Z" fill="#5322E6"/>
<path d="M90.4633 142.215L27.3613 160.879L68.5405 163.841L90.4633 142.215Z" fill="#A44F33"/>
<path d="M148.528 106.067L72.3906 50.3711C72.3906 60.9375 72.3906 85.329 93.1284 100.734C111.045 114.044 136.974 110.511 148.528 106.067Z" fill="#2AD425"/>
<path d="M147.937 87.406L144.086 101.33L204.522 78.8147L222.001 37.043L147.937 87.406Z" fill="#267849"/>
<path d="M105.277 130.068L206.003 63.707C208.867 76.1497 207.959 105.657 181.414 124.143C154.87 142.629 119.596 135.795 105.277 130.068Z" fill="#A44F33"/>
<path d="M140.828 121.179L188.229 22.2305C191.191 32.9943 200.375 55.4108 184.377 87.4062C171.76 112.64 151.098 120.883 140.828 121.179Z" fill="#284CF0"/>
<path d="M159.787 61.337C192.019 47.5908 213.31 57.782 219.926 64.5958L115.941 118.514C117.126 105.183 127.555 75.0832 159.787 61.337Z" fill="#2AD425"/>
<path d="M176.082 112.883L212.817 183.687C215.385 175.59 218.269 155.01 209.262 137.472C200.256 119.934 183.39 113.772 176.082 112.883Z" fill="#5322E6"/>
<path d="M227.038 183.983L196.523 142.804C201.165 141.619 212.58 142.152 221.112 153.766C229.645 165.379 228.618 178.75 227.038 183.983Z" fill="#CAEF5C"/>
<path d="M246.294 151.101C224.668 135.004 180.941 102.515 179.045 101.33L169.564 120.29L246.294 151.101Z" fill="#CAEF5C"/>
<path d="M163.639 135.695L125.719 119.994L163.639 110.514L233.555 131.844L163.639 135.695Z" fill="#FBE216"/>
<path d="M104.092 71.4056L53.7285 64.5918C73.9725 72.9856 114.697 89.7733 115.645 89.7733C116.593 89.7733 108.338 77.5282 104.092 71.4056Z" fill="#284CF0"/>
<path d="M99.0547 109.922L155.639 0.900391C160.774 13.738 176.377 39.7096 153.269 73.7787C135.895 99.3946 111.201 109.329 99.0547 109.922Z" fill="#CAEF5C"/>
<path d="M79.5006 133.519L140.741 27.0434C145.316 40.0908 159.783 66.712 135.225 99.7514C116.761 124.593 91.6612 133.452 79.5006 133.519Z" fill="#5322E6"/>
<path d="M266.736 269.602C244.932 262.492 221.508 258.739 212.521 257.752C212.521 257.752 245.109 263.618 264.07 271.676C265.255 271.676 266.736 270.491 266.736 269.602Z" fill="black"/>
<path d="M270.587 275.823C243.332 266.046 209.361 259.331 200.375 258.344C200.375 258.344 239.184 265.75 267.921 277.896C269.106 277.896 270.587 276.711 270.587 275.823Z" fill="black"/>
<path d="M70.0233 359.664H65.2832L91.946 351.072L70.0233 359.664Z" fill="black"/>
<path d="M67.0603 356.704L63.209 356.111L100.241 344.854C100.241 344.854 72.4916 355.42 67.0603 356.704Z" fill="black"/>
<path d="M169.091 236.9C168.8 236.84 168.56 236.779 168.377 236.717C168.615 236.779 168.853 236.84 169.091 236.9C174.313 237.963 195.929 238.494 195.929 238.494L198.299 241.161C193.744 241.064 181.637 240.073 169.091 236.9Z" fill="black"/>
<path d="M212.816 244.718C190.538 243.295 167.39 239.385 158.602 237.607C179.695 243.532 205.311 246.001 215.482 246.495C214.89 245.903 214.001 245.31 212.816 244.718Z" fill="black"/>
<path d="M106.462 167.102C89.1609 176.819 65.4803 174.903 55.8027 172.73C79.503 181.262 100.043 174.31 107.351 169.768C107.055 169.175 107.055 168.286 106.462 167.102Z" fill="black"/>
<path d="M112.387 158.805C102.195 167.337 83.2549 170.852 75.0586 171.544C95.2038 171.544 108.733 165.421 112.979 162.36C112.979 161.472 112.979 160.286 112.387 158.805Z" fill="black"/>
<path d="M160.974 99.258L158.604 97.4805C158.604 108.62 156.826 136.29 155.938 148.732C155.938 148.732 160.085 122.366 160.974 99.258Z" fill="black"/>
<path d="M156.528 109.328L154.158 107.551C154.75 125.03 152.973 154.655 152.973 154.655C152.973 154.655 156.824 117.426 156.528 109.328Z" fill="black"/>
</svg>
