<svg width="17" height="17" viewBox="0 0 17 17" fill="none" xmlns="http://www.w3.org/2000/svg">
<path d="M12.3528 0.0303097C11.097 0.381083 10.1766 1.39619 9.9596 2.66907C9.88727 3.08362 9.90831 3.61642 10.0122 4.02034L10.0372 4.12265L9.99641 4.18244C9.7926 4.47607 9.20481 5.17895 8.68409 5.75028C8.07659 6.4186 6.7853 7.7433 6.12651 8.37575C5.24024 9.22478 4.50386 9.88646 3.96079 10.3183L3.80694 10.4405H3.68728C3.46111 10.4405 3.13106 10.4923 2.86544 10.5694C1.895 10.8511 1.09814 11.5765 0.729956 12.5106C0.630019 12.7644 0.564272 13.0142 0.516934 13.3304C0.49458 13.4699 0.49458 13.9735 0.515619 14.1343C0.580051 14.6166 0.737845 15.0776 0.978481 15.4762C1.05738 15.6064 1.09025 15.6463 1.13496 15.6636C1.17967 15.6808 1.2441 15.6569 1.2704 15.6117C1.28224 15.5918 1.45975 15.1108 1.66226 14.5448C1.86607 13.9801 2.05674 13.4659 2.08567 13.4035C2.15405 13.2587 2.30395 13.1019 2.44465 13.0288C2.62611 12.9331 2.84703 12.8999 3.03243 12.9398C3.12448 12.9597 4.62747 13.5124 4.74582 13.5696C4.97988 13.6838 5.16528 13.9256 5.21262 14.1754C5.23235 14.2817 5.22709 14.4757 5.20079 14.5727C5.18895 14.6205 4.9996 15.1547 4.78 15.7619C4.36316 16.9139 4.36579 16.9072 4.41839 16.967C4.46705 17.0188 4.52227 17.0135 4.80367 16.9232C5.88719 16.5737 6.71693 15.6808 6.99307 14.5661C7.08248 14.206 7.11273 13.8273 7.07985 13.4805C7.04961 13.1617 6.9694 12.8135 6.86289 12.5465L6.80503 12.4017L6.91943 12.2675C8.12261 10.8564 9.98195 8.95373 11.268 7.81505C11.8597 7.29288 12.3344 6.9142 12.7249 6.65511L12.8525 6.57008L13.1917 6.56742C13.5599 6.56609 13.6901 6.55147 13.9768 6.48105C14.5816 6.33357 15.0971 6.04392 15.5363 5.60412C16.061 5.07797 16.3621 4.46412 16.4831 3.67089C16.5054 3.53138 16.5054 3.02781 16.4844 2.86704C16.4331 2.48173 16.3292 2.13095 16.1675 1.79745C16.0833 1.62473 15.9702 1.43074 15.9255 1.38025C15.8558 1.30451 15.7638 1.3178 15.7204 1.40948C15.7059 1.44004 15.5284 1.92501 15.3246 2.48837C15.1221 3.0504 14.9354 3.55663 14.9078 3.6111C14.8446 3.74264 14.6882 3.90341 14.5553 3.9725C14.3739 4.06817 14.153 4.10139 13.9676 4.06153C13.8755 4.0416 12.3725 3.48886 12.2542 3.43173C12.0701 3.34138 11.9189 3.18061 11.84 2.99061C11.79 2.8697 11.7742 2.78732 11.7742 2.64648C11.7742 2.4897 11.7874 2.44319 11.9478 1.99676C12.0267 1.77752 12.2108 1.26997 12.3554 0.868708C12.6434 0.066185 12.6421 0.0741577 12.5593 0.0236664C12.5067 -0.00955009 12.4922 -0.00822067 12.3528 0.0303097Z" fill="#FFA620"/>
</svg>
