<svg width="27" height="26" viewBox="0 0 27 26" fill="none" xmlns="http://www.w3.org/2000/svg">
<path d="M1.66256 13.8797L1.75008 13.7484L7.4389 4.86024C7.52642 4.72889 7.70146 4.7289 7.78898 4.90403C8.7517 7.04944 9.53938 9.67646 9.1893 11.3402C9.01426 12.0408 8.57666 12.9602 8.05154 13.7921C8.00778 13.9235 7.92026 14.0548 7.83274 14.1424C7.78898 14.1862 7.74522 14.23 7.6577 14.23H1.79384C1.66256 14.1862 1.57504 14.0111 1.66256 13.8797Z" fill="#2081E2"/>
<path d="M27 15.5432V16.9443C27 17.0319 26.9562 17.0757 26.8687 17.1195C26.4311 17.2946 24.8995 17.9951 24.2869 18.8708C22.6677 21.1038 21.4425 24.3 18.7293 24.3H7.30794C3.28201 24.3 0 21.0162 0 16.9443V16.813C0 16.7254 0.0875209 16.6378 0.175041 16.6378H6.60778C6.73906 16.6378 6.82658 16.7692 6.82658 16.8568C6.78282 17.2508 6.87034 17.6886 7.04538 18.0827C7.43922 18.8708 8.2269 19.3086 9.05834 19.3086H12.2091V16.8568H9.1021C8.92706 16.8568 8.83955 16.6816 8.92707 16.5503C8.97083 16.5065 9.01458 16.4627 9.05834 16.3751C9.36467 15.9373 9.75851 15.3243 10.1961 14.58C10.5024 14.0984 10.765 13.5292 10.9838 13.0038C11.0276 12.9162 11.0713 12.8286 11.1151 12.6973C11.1588 12.5222 11.2463 12.347 11.2901 12.2157C11.3339 12.0843 11.3776 11.953 11.4214 11.8216C11.5089 11.3838 11.5527 10.9022 11.5527 10.3768C11.5527 10.2016 11.5527 9.9827 11.5089 9.76378C11.5089 9.54486 11.4652 9.32594 11.4652 9.10702C11.4652 8.93188 11.4214 8.71297 11.3776 8.53784C11.3339 8.23135 11.2901 7.96865 11.2026 7.66216L11.1588 7.57459C11.1151 7.39945 11.0713 7.18054 10.9838 7.0054C10.8088 6.39243 10.5899 5.77946 10.3711 5.25405C10.2836 5.03513 10.1961 4.81622 10.1086 4.5973C9.97731 4.29081 9.84603 3.98432 9.71475 3.72162C9.67099 3.59027 9.58347 3.5027 9.53971 3.37135C9.49594 3.24 9.40843 3.10864 9.36467 2.97729C9.32091 2.88972 9.27715 2.80216 9.23339 2.71459L8.83954 2.01405C8.79578 1.92648 8.88331 1.79513 8.97083 1.83892L11.3776 2.49567L11.684 2.58324L12.034 2.67081L12.1653 2.71459V1.26973C12.1653 0.569186 12.7342 0 13.3906 0C13.7407 0 14.047 0.131346 14.2658 0.350265C14.4846 0.569184 14.6159 0.87567 14.6159 1.22594V3.32756L14.8784 3.41513C14.8784 3.41513 14.9222 3.41513 14.9222 3.45892C14.966 3.5027 15.0535 3.59027 15.1848 3.67783C15.2723 3.7654 15.3598 3.85297 15.4911 3.94054C15.7099 4.11567 16.0162 4.37837 16.3225 4.64108C16.41 4.72864 16.4976 4.77243 16.5413 4.86C16.9352 5.21027 17.3728 5.64811 17.8104 6.12973C17.9417 6.26108 18.0292 6.39243 18.1604 6.52378C18.2917 6.65513 18.3793 6.83027 18.5105 6.96162C18.6418 7.13675 18.8169 7.35567 18.9481 7.53081C18.9919 7.61838 19.0794 7.70594 19.1232 7.83729C19.2982 8.1 19.4295 8.3627 19.6045 8.6254C19.6483 8.75675 19.7358 8.8881 19.7796 9.01945C19.9546 9.36972 20.0859 9.71999 20.1297 10.114C20.1734 10.2016 20.1734 10.2892 20.1734 10.333C20.2172 10.4205 20.2172 10.5519 20.2172 10.6832C20.2609 11.0773 20.2172 11.4276 20.1734 11.8216C20.1297 11.9968 20.0859 12.1281 20.0421 12.3032C19.9984 12.4346 19.9546 12.6097 19.8671 12.7849C19.7358 13.0913 19.5608 13.3978 19.3857 13.7043C19.342 13.7919 19.2545 13.9232 19.1669 14.0546C19.0794 14.1859 18.9919 14.2735 18.9481 14.4049C18.8606 14.5362 18.7293 14.6676 18.6418 14.7989C18.5543 14.9303 18.4668 15.0616 18.3355 15.193C18.2042 15.3681 18.0292 15.5432 17.8979 15.7184C17.8104 15.8059 17.7229 15.9373 17.5916 16.0249C17.5041 16.1124 17.4165 16.2438 17.2852 16.3313C17.154 16.4627 17.0227 16.594 16.8914 16.6816L16.6288 16.9005C16.5851 16.9443 16.5413 16.9443 16.4976 16.9443H14.5721V19.3962H16.9789C17.504 19.3962 18.0292 19.2211 18.423 18.8708C18.5543 18.7395 19.1669 18.214 19.9109 17.4259C19.9546 17.3822 19.9546 17.3822 19.9984 17.3822L26.6499 15.4557C26.9125 15.3243 27 15.4119 27 15.5432Z" fill="#2081E2"/>
</svg>
