<svg width="1920" height="1200" viewBox="0 0 1920 1200" fill="none" xmlns="http://www.w3.org/2000/svg">
<rect width="1920" height="1200" fill="#7B1F92"/>
<mask id="mask0_817_92186" style="mask-type:alpha" maskUnits="userSpaceOnUse" x="0" y="0" width="1920" height="1200">
<rect width="1920" height="1200" fill="#7B1F92"/>
</mask>
<g mask="url(#mask0_817_92186)">
<path d="M149.5 -273C526.976 -273 833 -0.346924 833 336C833 672.331 526.976 945 149.5 945C-227.993 945 -534 672.331 -534 336C-534 -0.346924 -227.993 -273 149.5 -273Z" fill="#2681D3"/>
<path d="M130.854 -178.2C430.871 -213.709 700.909 -50.3589 733.982 186.664C767.053 423.676 550.637 644.613 250.62 680.123C-49.4104 715.634 -319.436 552.271 -352.508 315.259C-385.581 78.2358 -169.176 -142.689 130.854 -178.2Z" fill="#1D2A9D"/>
<path d="M1611.27 29.896L2694.69 464.507L1645.87 1638.91C1645.87 1638.91 1077.83 706.507 1611.27 29.896Z" fill="#EBC62A"/>
<path d="M823.941 836.782C984.017 816.681 2130.01 648.999 2130.01 648.999L2255.77 1759C2255.77 1759 1136.63 1881.29 823.941 836.782Z" fill="#2681D3"/>
<path d="M132.084 892.43C125.706 906.218 109.361 912.235 95.5686 905.865C81.7764 899.495 75.7634 883.151 82.1328 869.358L177.612 662.64C183.981 648.847 200.326 642.83 214.118 649.2C227.91 655.57 233.923 671.913 227.554 685.707L132.084 892.43Z" fill="#EBC62A"/>
<path d="M377.748 1032.89C369.409 1045.59 352.36 1049.13 339.661 1040.79C326.953 1032.45 323.417 1015.4 331.755 1002.7L456.715 812.347C465.053 799.646 482.103 796.107 494.801 804.443C507.509 812.784 511.046 829.838 502.708 842.539L377.748 1032.89Z" fill="#EBC62A"/>
<path d="M633.916 1133.59C627.726 1147.46 611.465 1153.7 597.588 1147.52C583.711 1141.33 577.478 1125.07 583.658 1111.19L676.337 903.204C682.517 889.325 698.778 883.088 712.655 889.27C726.532 895.453 732.774 911.719 726.585 925.593L633.916 1133.59Z" fill="#EBC62A"/>
<path d="M896.333 1263.11C890.2 1277.01 873.958 1283.31 860.059 1277.17C846.16 1271.04 839.87 1254.8 846.003 1240.9L937.921 1032.58C944.054 1018.68 960.296 1012.38 974.195 1018.51C988.095 1024.65 994.393 1040.89 988.261 1054.79L896.333 1263.11Z" fill="#EBC62A"/>
<path d="M1122.29 1365.5C1115.86 1379.26 1099.48 1385.2 1085.72 1378.76C1071.96 1372.32 1066.02 1355.94 1072.46 1342.18L1168.95 1135.94C1175.38 1122.17 1191.76 1116.24 1205.52 1122.67C1219.28 1129.11 1225.22 1145.49 1218.78 1159.25L1122.29 1365.5Z" fill="#EBC62A"/>
<path d="M1073.17 136.16C1071.87 169.418 1043.85 195.33 1010.59 194.037C977.336 192.744 951.425 164.736 952.718 131.478L952.952 125.457C954.245 92.1994 982.253 66.278 1015.51 67.571C1048.77 68.8639 1074.69 96.8819 1073.4 130.14L1073.17 136.16Z" fill="#F45741"/>
<path d="M1272.83 78.0755C1271.36 115.847 1239.55 145.287 1201.76 143.818C1163.98 142.349 1134.56 110.529 1136.03 72.7574L1136.63 57.2393C1138.1 19.461 1169.91 -9.97482 1207.68 -8.50623C1245.47 -7.0371 1274.9 24.7792 1273.43 62.5575L1272.83 78.0755Z" fill="#F45741"/>
<path d="M1515.53 68.9217C1513.85 112.088 1477.5 145.716 1434.33 144.038C1391.17 142.36 1357.53 106.011 1359.21 62.8446L1359.25 61.7379C1360.93 18.5719 1397.29 -15.0609 1440.45 -13.3831C1483.62 -11.7048 1517.25 24.6489 1515.58 67.815L1515.53 68.9217Z" fill="#F45741"/>
<path d="M1800.05 78.0347C1798.09 128.422 1755.65 167.67 1705.26 165.711L1697.23 165.399C1646.85 163.44 1607.59 121.017 1609.55 70.629C1611.51 20.2469 1653.95 -19.0077 1704.32 -17.0494L1712.36 -16.7369C1762.75 -14.7781 1802.01 27.6525 1800.05 78.0347Z" fill="#F45741"/>
<path d="M2138.42 161.889C2136.03 223.33 2084.29 271.184 2022.86 268.796L1977.88 267.047C1916.44 264.659 1868.59 212.933 1870.98 151.492L1871.86 128.711C1874.25 67.2804 1925.98 19.4151 1987.42 21.8036L2032.4 23.5522C2093.83 25.9402 2141.69 77.6773 2139.3 139.107L2138.42 161.889Z" fill="#F45741"/>
</g>
</svg>
