<svg width="345" height="345" viewBox="0 0 345 345" fill="none" xmlns="http://www.w3.org/2000/svg">
<g clip-path="url(#clip0_817_92212)">
<path d="M0 0H345V345H0V0Z" fill="black"/>
<path d="M172.499 6.8999C263.957 6.8999 338.098 81.0414 338.098 172.5C338.098 263.959 263.957 338.1 172.499 338.1C81.0403 338.1 6.89844 263.959 6.89844 172.5C6.89844 81.0414 81.0403 6.8999 172.499 6.8999Z" fill="#2A2A2A"/>
<path d="M274.612 345C273.759 257.544 227.563 187.063 170.938 187.239L171.44 345C181.941 345.168 274.612 345 274.612 345Z" fill="black"/>
<path d="M63.4383 345C62.6953 253.002 110.113 178.01 169.931 177.086L172.498 345H63.4383Z" fill="black"/>
<path d="M112.438 59.1597C113.267 173.869 143.774 266.643 180.578 266.377L179.076 58.6777L112.438 59.1597Z" fill="black"/>
<path d="M237.112 31.5784C236.351 167.082 202.321 276.743 161.105 276.511L162.483 31.1592L237.112 31.5784Z" fill="black"/>
<path d="M97.1897 147.041C96.9216 147.606 96.246 147.846 95.6818 147.577C95.1168 147.309 94.8768 146.634 95.1449 146.07L99.7341 136.409C100.002 135.844 100.677 135.604 101.242 135.872C101.806 136.14 102.046 136.815 101.778 137.38L97.1897 147.041Z" fill="black"/>
<path d="M142.378 152.389C142.61 152.969 142.327 153.628 141.747 153.86C141.167 154.092 140.508 153.809 140.276 153.229L136.597 144.015C136.365 143.435 136.648 142.775 137.228 142.544C137.809 142.312 138.467 142.595 138.699 143.175L142.378 152.389Z" fill="black"/>
<path d="M111.867 152.926C111.683 153.536 111.04 153.881 110.43 153.698C109.821 153.514 109.475 152.871 109.659 152.261L113.016 141.111C113.2 140.501 113.843 140.155 114.453 140.339C115.062 140.523 115.408 141.166 115.224 141.775L111.867 152.926Z" fill="black"/>
<path d="M126.46 156.391C126.425 156.952 125.943 157.379 125.382 157.345C124.821 157.311 124.393 156.828 124.428 156.268L125.209 143.419C125.243 142.858 125.726 142.43 126.286 142.465C126.848 142.499 127.275 142.982 127.241 143.542L126.46 156.391Z" fill="black"/>
<path d="M156.617 144.722C156.961 145.292 156.777 146.033 156.207 146.376C155.637 146.72 154.897 146.536 154.553 145.966L148.462 135.857C148.119 135.287 148.302 134.547 148.872 134.203C149.443 133.86 150.183 134.043 150.527 134.614L156.617 144.722Z" fill="black"/>
<path d="M154.128 180.505C153.906 183.673 156.294 186.421 159.461 186.643L166.824 187.159C168.344 187.266 169.846 186.763 170.997 185.763C172.148 184.763 172.855 183.346 172.961 181.825L176.913 125.435C177.019 123.914 176.517 122.412 175.517 121.261C174.516 120.11 173.1 119.403 171.579 119.297L164.217 118.781C161.049 118.559 158.301 120.947 158.079 124.115L154.128 180.505Z" fill="black"/>
<path d="M185.078 229.801L134.406 210.394C137.281 204.764 151.297 198.176 166.391 204.644C185.421 212.8 186.635 225.129 185.078 229.801Z" fill="black"/>
<path d="M161.287 211.885C163.488 211.885 165.272 210.204 165.272 208.129C165.272 206.055 163.488 204.374 161.287 204.374C159.085 204.374 157.301 206.055 157.301 208.129C157.301 210.204 159.085 211.885 161.287 211.885Z" fill="black"/>
<path d="M207.393 85.8638C224.51 85.8638 238.384 100.308 238.384 118.126C238.384 135.944 224.51 150.389 207.393 150.389C190.277 150.389 176.402 135.944 176.402 118.126C176.402 100.308 190.277 85.8638 207.393 85.8638Z" fill="black"/>
<path d="M208.12 90.0869C223.765 90.0869 236.448 102.726 236.448 118.318C236.448 133.909 223.765 146.549 208.12 146.549C192.475 146.549 179.793 133.909 179.793 118.318C179.793 102.726 192.475 90.0869 208.12 90.0869Z" fill="black"/>
<path d="M206.058 95.8076C220.564 95.8076 232.324 106.086 232.324 118.766C232.324 131.445 220.564 141.724 206.058 141.724C191.552 141.724 179.793 131.445 179.793 118.766C179.793 106.086 191.552 95.8076 206.058 95.8076Z" fill="black"/>
<path d="M204.177 94.1948C214.647 94.1948 223.134 103.387 223.134 114.726C223.134 126.065 214.647 135.256 204.177 135.256C193.706 135.256 185.219 126.065 185.219 114.726C185.219 103.387 193.706 94.1948 204.177 94.1948Z" fill="white"/>
<path d="M203.772 111.413C199.162 111.53 195.323 107.554 195.195 102.533C195.067 97.5119 198.701 93.3467 203.31 93.2296C207.919 93.1124 211.759 97.0878 211.886 102.109C212.014 107.131 208.381 111.296 203.772 111.413Z" fill="black"/>
<path d="M129.295 92.2217C144.432 92.2217 156.703 103.778 156.703 118.034C156.703 132.29 144.432 143.847 129.295 143.847C114.158 143.847 101.887 132.29 101.887 118.034C101.887 103.778 114.158 92.2217 129.295 92.2217Z" fill="black"/>
<path d="M125.194 101.457C137.696 101.158 148.014 108.594 148.241 118.066C148.468 127.537 138.517 135.459 126.015 135.758C113.513 136.057 103.195 128.621 102.969 119.15C102.742 109.678 112.693 101.756 125.194 101.457Z" fill="black"/>
<path d="M128.568 103.467C136.24 103.467 142.46 109.943 142.46 117.932C142.46 125.92 136.24 132.397 128.568 132.397C120.895 132.397 114.676 125.92 114.676 117.932C114.676 109.943 120.895 103.467 128.568 103.467Z" fill="white"/>
<path d="M125.619 108.684C129.311 108.684 132.304 111.493 132.304 114.958C132.304 118.423 129.311 121.232 125.619 121.232C121.926 121.232 118.934 118.423 118.934 114.958C118.934 111.493 121.926 108.684 125.619 108.684Z" fill="black"/>
<path d="M156.704 86.7317C133.305 78.3827 92.726 101.424 91.543 135.719L156.704 86.7317Z" fill="black"/>
<path d="M246.52 111.677C228.373 84.2059 173.277 65.135 166.883 92.8366L246.52 111.677Z" fill="black"/>
<path d="M112.316 216.453C113.071 217.1 113.159 218.238 112.512 218.994C111.865 219.75 110.727 219.838 109.971 219.191L103.633 213.762C102.876 213.114 102.788 211.977 103.436 211.221C104.084 210.465 105.221 210.377 105.977 211.025L112.316 216.453Z" fill="black"/>
<path d="M178.995 239.333C179.958 239.212 180.838 239.896 180.958 240.86C181.078 241.824 180.393 242.703 179.429 242.823L171.062 243.865C170.098 243.985 169.22 243.301 169.1 242.337C168.98 241.373 169.663 240.495 170.627 240.375L178.995 239.333Z" fill="black"/>
<path d="M201.442 233.406C202.358 233.081 203.363 233.56 203.688 234.475C204.012 235.39 203.533 236.396 202.618 236.72L194.67 239.538C193.754 239.862 192.749 239.383 192.424 238.468C192.1 237.552 192.579 236.547 193.495 236.222L201.442 233.406Z" fill="black"/>
<path d="M218.792 221.651C219.556 221.05 220.661 221.182 221.262 221.945C221.863 222.709 221.731 223.814 220.968 224.415L214.342 229.631C213.579 230.232 212.474 230.1 211.873 229.337C211.272 228.574 211.403 227.468 212.167 226.867L218.792 221.651Z" fill="black"/>
<path d="M230.447 207.456C231.016 206.715 232.077 206.575 232.819 207.143C233.559 207.711 233.7 208.774 233.131 209.514L227.917 216.313C227.349 217.054 226.288 217.194 225.546 216.626C224.805 216.057 224.665 214.996 225.233 214.254L230.447 207.456Z" fill="black"/>
<path d="M240.144 192.243C240.689 191.44 241.782 191.229 242.586 191.775C243.39 192.319 243.6 193.413 243.055 194.217L238.324 201.197C237.779 202.001 236.685 202.211 235.882 201.666C235.077 201.121 234.868 200.028 235.412 199.224L240.144 192.243Z" fill="black"/>
<path d="M132.129 229.529C132.997 229.964 133.349 231.021 132.913 231.889C132.478 232.757 131.422 233.109 130.553 232.674L123.014 228.896C122.146 228.461 121.795 227.405 122.23 226.536C122.664 225.668 123.721 225.317 124.59 225.752L132.129 229.529Z" fill="black"/>
<path d="M155.85 239.667C156.759 239.938 157.275 240.894 157.004 241.802C156.734 242.711 155.778 243.227 154.87 242.957L146.707 240.524C145.799 240.254 145.282 239.298 145.552 238.389C145.823 237.482 146.779 236.964 147.687 237.235L155.85 239.667Z" fill="black"/>
<path d="M86.2689 205.349C93.5513 205.349 99.4551 199.188 99.4551 191.588C99.4551 183.987 93.5513 177.826 86.2689 177.826C78.9858 177.826 73.082 183.987 73.082 191.588C73.082 199.188 78.9858 205.349 86.2689 205.349Z" fill="black"/>
<path d="M265.467 126.657C265.467 128.467 264 129.934 262.191 129.934H237.438C235.627 129.934 234.16 128.467 234.16 126.657C234.16 124.847 235.627 123.38 237.438 123.38H262.191C264 123.38 265.467 124.847 265.467 126.657Z" fill="black"/>
<path d="M255.32 106.48C255.32 107.322 254.637 108.005 253.794 108.005H239.909C239.066 108.005 238.383 107.322 238.383 106.48C238.383 105.637 239.066 104.954 239.909 104.954H253.794C254.637 104.954 255.32 105.637 255.32 106.48Z" fill="black"/>
<path d="M260.657 113.54C262.085 113.571 263.218 114.753 263.187 116.181C263.157 117.609 261.975 118.742 260.547 118.712L241.766 118.312C240.338 118.281 239.205 117.099 239.235 115.671C239.265 114.243 240.448 113.111 241.876 113.141L260.657 113.54Z" fill="black"/>
<path d="M191.441 73.9188C191.441 75.638 190.047 77.0317 188.328 77.0317C186.608 77.0317 185.215 75.638 185.215 73.9188V73.6076C185.215 71.8883 186.608 70.4941 188.328 70.4941C190.047 70.4941 191.441 71.8883 191.441 73.6076V73.9188Z" fill="black"/>
<path d="M202.259 70.227C202.259 72.1795 200.677 73.7629 198.723 73.7629C196.77 73.7629 195.188 72.1795 195.188 70.227V69.4248C195.188 67.4719 196.77 65.8887 198.723 65.8887C200.677 65.8887 202.259 67.4719 202.259 69.4248V70.227Z" fill="black"/>
<path d="M214.042 68.9409C214.042 71.1723 212.233 72.981 210.001 72.981C207.77 72.981 205.961 71.1723 205.961 68.9409V68.8836C205.961 66.6522 207.77 64.8433 210.001 64.8433C212.233 64.8433 214.042 66.6522 214.042 68.8836V68.9409Z" fill="black"/>
<path d="M228.926 69.5591C228.926 72.1638 226.814 74.2748 224.209 74.2748H223.794C221.19 74.2748 219.078 72.1638 219.078 69.5591C219.078 66.9546 221.19 64.8433 223.794 64.8433H224.209C226.814 64.8433 228.926 66.9546 228.926 69.5591Z" fill="black"/>
<path d="M246.145 72.8163C246.145 75.9925 243.571 78.5663 240.395 78.5663H238.07C234.894 78.5663 232.32 75.9925 232.32 72.8163V71.6387C232.32 68.4631 234.894 65.8887 238.07 65.8887H240.395C243.571 65.8887 246.145 68.4631 246.145 71.6387V72.8163Z" fill="black"/>
<path d="M99.3254 67.0503C99.316 68.1011 98.4571 68.9459 97.4063 68.9372C96.3555 68.9285 95.511 68.0695 95.5196 67.0187L95.6504 51.2689C95.659 50.218 96.5179 49.3732 97.5688 49.3819C98.6196 49.3907 99.4641 50.2496 99.4555 51.3005L99.3254 67.0503Z" fill="black"/>
<path d="M118.81 68.9074C118.646 69.9455 117.672 70.6542 116.634 70.4904C115.596 70.3266 114.887 69.3523 115.051 68.3143L117.506 52.7564C117.67 51.7183 118.644 51.0096 119.682 51.1734C120.72 51.3372 121.429 52.3115 121.265 53.3496L118.81 68.9074Z" fill="black"/>
<path d="M137.825 67.9585C137.83 69.0093 136.983 69.8657 135.932 69.8712C134.881 69.8767 134.025 69.0292 134.019 67.9783L133.938 52.2282C133.932 51.1773 134.779 50.321 135.83 50.3155C136.881 50.31 137.738 51.1575 137.743 52.2084L137.825 67.9585Z" fill="black"/>
<path d="M158.058 68.6484C158.067 69.6993 157.223 70.5587 156.172 70.568C155.121 70.5773 154.262 69.7329 154.253 68.6821L154.113 52.9323C154.104 51.8815 154.949 51.0221 155.999 51.0128C157.05 51.0035 157.91 51.8479 157.919 52.8987L158.058 68.6484Z" fill="black"/>
<path d="M175.215 68.6671C175.202 69.7179 174.339 70.5585 173.288 70.5446C172.237 70.5308 171.396 69.6677 171.41 68.6169L171.618 52.8679C171.632 51.8171 172.495 50.9765 173.546 50.9904C174.597 51.0043 175.437 51.8674 175.423 52.9182L175.215 68.6671Z" fill="black"/>
</g>
<defs>
<clipPath id="clip0_817_92212">
<rect width="345" height="345" fill="white"/>
</clipPath>
</defs>
</svg>
