<svg width="345" height="346" viewBox="0 0 345 346" fill="none" xmlns="http://www.w3.org/2000/svg">
<g clip-path="url(#clip0_838_100727)">
<path d="M0 0.5H345V345.5H0V0.5Z" fill="#FF614D"/>
<path d="M172.456 7.48242C263.914 7.48242 338.055 81.6239 338.055 173.082C338.055 264.541 263.914 338.682 172.456 338.682C80.9974 338.682 6.85547 264.541 6.85547 173.082C6.85547 81.6239 80.9974 7.48242 172.456 7.48242Z" fill="black"/>
<path d="M345 345.5V274.844C311.466 226.165 245.115 193.394 170.879 193.512L171.827 345.5H345Z" fill="#FF312C"/>
<path d="M0 345.499V251.383C37.1862 209.967 99.2561 182.806 168.32 182.262L173.243 345.499H0Z" fill="#B80800"/>
<path d="M94.2344 27.0245C95.1676 171.37 131.647 288.114 173.053 287.779L169.207 26.418L94.2344 27.0245Z" fill="#108179"/>
<path d="M256.126 4.08789C255.153 174.343 211.587 309.066 158.895 308.775L160.656 4.08789H256.126Z" fill="#00554F"/>
<path d="M99.3737 136.35C98.9015 136.802 98.1522 136.785 97.7007 136.313C97.2486 135.841 97.2652 135.093 97.7374 134.641L103.866 128.097C104.338 127.645 105.087 127.661 105.539 128.134C105.99 128.605 105.974 129.354 105.502 129.806L99.3737 136.35Z" fill="black"/>
<path d="M143.13 142.342C143.401 142.936 143.14 143.638 142.546 143.91C141.952 144.182 141.25 143.92 140.978 143.327L137.063 136.729C136.791 136.136 137.052 135.433 137.646 135.162C138.241 134.889 138.943 135.151 139.215 135.745L143.13 142.342Z" fill="black"/>
<path d="M112.593 143.61C112.355 144.232 111.658 144.543 111.036 144.306C110.415 144.068 110.103 143.372 110.341 142.749L113.657 134.682C113.896 134.061 114.592 133.749 115.214 133.987C115.836 134.225 116.147 134.922 115.909 135.543L112.593 143.61Z" fill="black"/>
<path d="M127.571 145.683C127.589 146.271 127.127 146.761 126.54 146.78C125.953 146.797 125.462 146.336 125.444 145.749L125.621 136.74C125.603 136.153 126.065 135.662 126.652 135.644C127.24 135.626 127.73 136.088 127.748 136.675L127.571 145.683Z" fill="black"/>
<path d="M157.033 137.12C157.507 137.63 157.478 138.427 156.968 138.901C156.459 139.375 155.662 139.346 155.188 138.836L148.437 131.1C147.963 130.59 147.991 129.794 148.501 129.32C149.011 128.846 149.808 128.874 150.282 129.384L157.033 137.12Z" fill="black"/>
<path d="M154.863 184.209C154.863 186.798 156.481 188.101 159.061 188.101L165.795 188.451C167.544 188.451 168.805 187.64 169.599 186.658C170.394 185.675 170.44 184.298 170.545 182.778L173.043 140.31C173.148 138.791 172.845 137.282 172.2 136.116C171.554 134.95 170.62 134.223 169.602 134.093L162.545 133.602C159.881 133.427 158.026 135.662 157.806 138.826L154.863 184.209Z" fill="#92D141"/>
<path d="M131.634 199.858L183.027 218.833C180.38 224.128 168.439 229.12 155.148 225.174C142.598 221.449 131.634 212.534 131.634 199.858Z" fill="black"/>
<path d="M160.266 217.079C162.657 217.079 164.594 215.189 164.594 212.858C164.594 210.526 162.656 208.637 160.266 208.637C157.875 208.637 155.938 210.526 155.938 212.858C155.938 215.189 157.875 217.079 160.266 217.079Z" fill="white"/>
<path d="M207.355 93.8711C226.246 93.8711 241.561 108.351 241.561 126.215C241.561 144.078 226.246 158.559 207.355 158.559C188.463 158.559 173.148 144.078 173.148 126.215C173.148 108.351 188.463 93.8711 207.355 93.8711Z" fill="#108179"/>
<path d="M207.978 98.3301C225.062 98.3301 238.912 111.008 238.912 126.647C238.912 142.286 225.062 154.964 207.978 154.964C190.893 154.964 177.043 142.286 177.043 126.647C177.043 111.008 190.893 98.3301 207.978 98.3301Z" fill="#E54B47"/>
<path d="M206.235 100.373C220.752 100.373 232.52 110.683 232.52 123.4C232.52 136.117 220.752 146.427 206.235 146.427C191.718 146.427 179.949 136.117 179.949 123.4C179.949 110.683 191.718 100.373 206.235 100.373Z" fill="#FD705E"/>
<path d="M206.066 104.229C222.095 104.229 235.089 114.623 235.089 127.445C235.089 140.266 222.095 150.66 206.066 150.66C190.037 150.66 177.043 140.266 177.043 127.445C177.043 114.623 190.037 104.229 206.066 104.229Z" fill="#FD705E"/>
<path d="M198.221 105.674C208.469 102.578 219.11 107.997 221.988 117.778C224.866 127.559 218.891 137.997 208.642 141.093C198.394 144.188 187.753 138.769 184.875 128.989C181.997 119.208 187.972 108.77 198.221 105.674Z" fill="white"/>
<path d="M203.682 125.402C198.722 125.518 194.59 121.59 194.453 116.629C194.316 111.669 198.226 107.554 203.186 107.438C208.145 107.322 212.278 111.25 212.414 116.21C212.552 121.171 208.642 125.286 203.682 125.402Z" fill="black"/>
<path d="M130.017 100.281C145.132 100.377 157.333 108.762 157.269 119.009C157.204 129.257 144.897 137.487 129.782 137.391C114.667 137.295 102.466 128.91 102.531 118.662C102.596 108.415 114.902 100.185 130.017 100.281Z" fill="#E54B47"/>
<path d="M125.503 108.101C136.938 107.905 146.375 112.779 146.582 118.986C146.79 125.194 137.688 130.386 126.254 130.582C114.82 130.778 105.382 125.904 105.175 119.697C104.968 113.489 114.069 108.297 125.503 108.101Z" fill="white"/>
<path d="M129.459 109.324C136.85 109.324 142.843 113.62 142.843 118.919C142.843 124.218 136.85 128.514 129.459 128.514C122.066 128.514 116.074 124.218 116.074 118.919C116.074 113.62 122.066 109.324 129.459 109.324Z" fill="#FD705E"/>
<path d="M127.168 114.248C130.939 114.248 133.996 116.34 133.996 118.92C133.996 121.5 130.939 123.592 127.168 123.592C123.397 123.592 120.34 121.5 120.34 118.92C120.34 116.34 123.397 114.248 127.168 114.248Z" fill="black"/>
<path d="M169.413 103.233C148.797 82.468 100.623 88.9403 87.4422 112.179L169.413 103.233Z" fill="black"/>
<path d="M236.262 71.1593C202.662 65.2999 154.161 86.8339 166.586 110.329L236.262 71.1593Z" fill="black"/>
<path d="M118.453 253.545C119.317 254.038 119.618 255.139 119.125 256.003C118.632 256.868 117.531 257.169 116.666 256.676L109.418 252.541C108.553 252.047 108.252 250.947 108.745 250.082C109.238 249.217 110.338 248.916 111.203 249.41L118.453 253.545Z" fill="#00554F"/>
<path d="M189.102 251.945C189.96 251.489 191.025 251.814 191.481 252.672C191.936 253.529 191.611 254.595 190.753 255.05L183.307 259.008C182.449 259.463 181.385 259.137 180.929 258.28C180.473 257.422 180.798 256.358 181.656 255.902L189.102 251.945Z" fill="#00554F"/>
<path d="M209.924 236.205C210.656 235.566 211.767 235.641 212.406 236.373C213.044 237.104 212.969 238.216 212.237 238.854L205.885 244.4C205.153 245.039 204.042 244.963 203.403 244.232C202.765 243.5 202.84 242.389 203.572 241.75L209.924 236.205Z" fill="#00554F"/>
<path d="M226.398 217.483C227.009 216.728 228.116 216.611 228.871 217.223C229.626 217.834 229.743 218.941 229.132 219.696L223.827 226.251C223.215 227.006 222.108 227.122 221.353 226.511C220.598 225.9 220.481 224.793 221.092 224.038L226.398 217.483Z" fill="#00554F"/>
<path d="M237.01 194.213C237.362 193.348 238.348 192.931 239.214 193.283C240.079 193.634 240.496 194.621 240.144 195.486L236.92 203.424C236.569 204.29 235.583 204.706 234.717 204.355C233.852 204.003 233.435 203.017 233.786 202.151L237.01 194.213Z" fill="#00554F"/>
<path d="M244.379 169.406C244.58 168.456 245.513 167.848 246.464 168.05C247.413 168.251 248.021 169.184 247.82 170.134L246.075 178.384C245.874 179.334 244.94 179.941 243.99 179.74C243.04 179.539 242.433 178.606 242.634 177.656L244.379 169.406Z" fill="#00554F"/>
<path d="M141.238 260.799C142.205 260.899 142.908 261.762 142.809 262.728C142.71 263.694 141.847 264.398 140.881 264.299L132.492 263.44C131.525 263.342 130.823 262.478 130.921 261.511C131.02 260.545 131.883 259.843 132.85 259.941L141.238 260.799Z" fill="#00554F"/>
<path d="M167.578 259.88C168.519 259.76 169.378 260.425 169.497 261.365C169.618 262.305 168.953 263.164 168.013 263.285L159.563 264.363C158.624 264.483 157.764 263.818 157.644 262.877C157.525 261.938 158.189 261.078 159.129 260.958L167.578 259.88Z" fill="#00554F"/>
<path d="M94.4246 250.659C100.495 246.397 101.768 237.748 97.2693 231.341C92.7699 224.933 84.2019 223.194 78.132 227.456C72.0615 231.719 70.7878 240.368 75.2871 246.776C79.7861 253.183 88.3541 254.922 94.4246 250.659Z" fill="#92D141"/>
<path d="M184.34 66.118C184.34 67.8372 182.945 69.2309 181.226 69.2309C179.507 69.2309 178.113 67.8372 178.113 66.118V65.8068C178.113 64.0875 179.507 62.6934 181.226 62.6934C182.945 62.6934 184.34 64.0875 184.34 65.8068V66.118Z" fill="#92D140"/>
<path d="M194.529 62.7192C194.529 64.6717 192.946 66.2551 190.993 66.2551C189.04 66.2551 187.457 64.6717 187.457 62.7192V61.917C187.457 59.964 189.04 58.3809 190.993 58.3809C192.946 58.3809 194.529 59.964 194.529 61.917V62.7192Z" fill="#92D140"/>
<path d="M207.038 61.7597C207.038 63.9911 205.229 65.7999 202.997 65.7999C200.766 65.7999 198.957 63.9911 198.957 61.7597V61.7025C198.957 59.4711 200.766 57.6621 202.997 57.6621C205.229 57.6621 207.038 59.4711 207.038 61.7025V61.7597Z" fill="#92D140"/>
<path d="M221.742 61.6591C221.742 64.2639 219.63 66.3749 217.026 66.3749H216.61C214.006 66.3749 211.895 64.2639 211.895 61.6591C211.895 59.0547 214.006 56.9434 216.61 56.9434H217.026C219.63 56.9434 221.742 59.0547 221.742 61.6591Z" fill="#92D140"/>
<path d="M239.376 65.3085C239.376 68.4847 236.801 71.0585 233.626 71.0585H231.301C228.125 71.0585 225.551 68.4847 225.551 65.3085V64.1309C225.551 60.9553 228.125 58.3809 231.301 58.3809H233.626C236.801 58.3809 239.376 60.9553 239.376 64.1309V65.3085Z" fill="#92D140"/>
<path d="M87.616 68.5342C87.5903 69.5847 86.7183 70.4161 85.6678 70.391C84.6172 70.3659 83.7862 69.4939 83.8112 68.4433L84.1874 52.6975C84.2124 51.6469 85.0844 50.8155 86.1349 50.8406C87.1855 50.8657 88.0165 51.7377 87.9915 52.7883L87.616 68.5342Z" fill="#00554F"/>
<path d="M106.781 70.0031C106.785 71.054 105.938 71.9097 104.887 71.9145C103.836 71.9194 102.98 71.0713 102.975 70.0204L102.904 54.2702C102.899 53.2193 103.747 52.3636 104.797 52.3588C105.849 52.3539 106.704 53.2019 106.709 54.2529L106.781 70.0031Z" fill="#00554F"/>
<path d="M125.226 69.1911C125.235 70.2419 124.391 71.1014 123.34 71.1108C122.289 71.1201 121.43 70.2758 121.421 69.225L121.281 53.4753C121.271 52.4244 122.115 51.565 123.166 51.5555C124.217 51.5462 125.077 52.3905 125.085 53.4414L125.226 69.1911Z" fill="#00554F"/>
<path d="M143.569 70.6012C143.574 71.6521 142.725 72.5076 141.674 72.512C140.624 72.5163 139.769 71.668 139.764 70.6171L139.698 54.8669C139.694 53.816 140.542 52.9606 141.593 52.9561C142.644 52.9518 143.5 53.8001 143.504 54.851L143.569 70.6012Z" fill="#00554F"/>
<path d="M161.899 69.9718C161.885 71.0226 161.022 71.8632 159.971 71.8493C158.92 71.8355 158.08 70.9724 158.094 69.9216L158.302 54.1726C158.315 53.1218 159.179 52.2812 160.229 52.2951C161.28 52.309 162.121 53.1721 162.107 54.2228L161.899 69.9718Z" fill="#00554F"/>
</g>
<defs>
<clipPath id="clip0_838_100727">
<rect width="345" height="345" fill="white" transform="translate(0 0.5)"/>
</clipPath>
</defs>
</svg>
