<svg width="326" height="352" viewBox="0 0 326 352" fill="none" xmlns="http://www.w3.org/2000/svg">
<path d="M242.263 162.717L289.449 196.397L303.748 246.017L233.281 329.259L194.129 236.173L205.474 172.454L244.247 162.125" fill="#3D505D"/>
<path d="M235.597 182.724L278.666 214.894L290.543 240.021L223.389 345.742L185.066 231.182L235.597 182.724Z" fill="#0E1417"/>
<path d="M138.912 322.665L0 284.5L26 242.537L67.5877 177.101L110.805 163.635L138.912 322.665Z" fill="#3D505D"/>
<path d="M140.04 161.77L72.5341 176.005L70.3125 245.022L137.848 308.83L140.04 161.77Z" fill="#0E1417"/>
<path d="M133.348 82.6311L110.866 178.373L109.562 241.086L133.081 272.428L175.676 284.503L238.117 228.271L263.71 149.665L266.672 80.4114L208.911 54.0713L133.348 82.6311Z" fill="#FEE0C3"/>
<path d="M224.401 75.7344L185.508 151.203L166.344 259.198L235.568 228.418L266.166 171.595L247.772 75.7344H224.401Z" fill="#EDC9AA"/>
<path d="M114.188 226.416L122.567 325.063L228.906 349.805L181.901 215.11L114.188 226.416Z" fill="#E4BCA0"/>
<path d="M121 325.5L237.437 351.656L181.9 215.11L160.543 218.691L181.9 314L121 307.5V325.5Z" fill="#B67D72"/>
<path d="M143.359 196.041C143.359 196.041 124.224 195.745 117.174 214.598C109.709 234.575 124.697 248.751 124.697 248.751L143.359 231.645V196.041Z" fill="#644831"/>
<path d="M74.1055 16.4551L107.814 24.9786L118.152 17.2246L74.1055 16.4551Z" fill="#59B0A9"/>
<path d="M80.7695 15.0352L113.886 70.7045C113.886 70.7045 117.381 49.3069 108.939 35.9889C97.7719 18.3499 80.7695 15.0352 80.7695 15.0352Z" fill="#701419"/>
<path d="M74.2812 187.191C74.3405 187.251 88.677 216.254 88.677 216.254L76.6805 271.983L74.2812 187.191Z" fill="#D44197"/>
<path d="M53.9905 233.895L53.6055 239.192C53.6055 239.192 55.9159 246.206 64.9206 257.512C64.891 257.541 54.8199 238.926 53.9905 233.895Z" fill="black"/>
<path d="M56.0377 232.503C56.0081 234.456 56.2451 236.646 56.2451 236.646C56.2451 236.646 63.828 254.019 74.7877 267.84C74.7581 267.84 61.251 243.808 56.0377 232.503Z" fill="black"/>
<path d="M110.717 186.009L122.95 210.899L144.869 233.125L194.544 235.73L235.983 214.213L253.341 180.682L235.983 240.879L176.06 288.439L132.281 275.802L106.984 240.879L110.717 186.009Z" fill="#917760"/>
<path d="M254.971 176.538L230.149 215.841L192.589 234.072L171.559 293.766L238.68 249.166L254.971 176.538Z" fill="#755840"/>
<path d="M196.557 259.376C196.557 259.376 209.205 245.022 199.43 227.442C189.092 208.797 168.535 211.017 168.535 211.017L196.557 259.376Z" fill="#644831"/>
<path d="M167.026 135.577L163.175 124.065C163.175 124.065 143.477 117.021 126.297 128.77C126.297 128.77 153.637 127.054 167.026 135.577Z" fill="#414042"/>
<path d="M185.863 146.617L192.972 136.791L238.974 148.659L226.444 154.016L185.863 146.617Z" fill="#414042"/>
<path d="M265.071 145.521C265.071 145.521 280.533 165.38 271.676 190.092C261.872 217.38 241.641 215.841 241.641 215.841L265.071 145.521Z" fill="#D88570"/>
<path d="M124.726 122.733C113.085 128.001 108.701 135.4 106.331 146.558C103.843 158.307 105.887 166.979 111.13 177.278L124.726 122.733Z" fill="#CA7C67"/>
<path d="M221.645 167.866C221.645 167.866 213.055 175.117 201.68 171.654C187.107 167.215 186.633 155.909 186.633 155.909L221.645 167.866Z" fill="#E4BCA0"/>
<path d="M134.591 143.214C134.591 143.214 133.05 153.72 141.7 156.709C156.095 161.682 164.182 152.596 164.182 152.596L134.591 143.214Z" fill="#E4BCA0"/>
<path d="M160.952 151.796C160.952 151.796 145.845 134.719 136.781 143.894C136.752 143.894 142.202 153.187 160.952 151.796Z" fill="#F1F2F2"/>
<path d="M197.566 73.3677L149.61 79.4348L120.641 138.804L129.675 58.4515L160.955 33.2656L197.566 73.3677Z" fill="#759766"/>
<path d="M256.626 52.8281C256.626 52.8281 210.654 111.427 268.77 175.709C269.659 173.105 292.319 105.863 292.319 105.863L256.626 52.8281Z" fill="#58595B"/>
<path d="M288.708 81.6247C288.708 81.6247 252.423 97.8727 215.485 65.9095C183.376 38.1192 197.772 0 197.772 0L288.708 81.6247Z" fill="#00A14B"/>
<path d="M271.646 68.3958C271.646 68.3958 240.425 97.9322 191.284 78.5175C148.571 61.648 149.608 17.5801 149.608 17.5801L271.646 68.3958Z" fill="#8DC63F"/>
<path d="M215.631 163.161C215.631 163.161 199.043 147.564 189.949 156.709C189.949 156.709 196.318 167.778 215.631 163.161Z" fill="#F1F2F2"/>
<path d="M136.754 143.894C136.754 143.894 138.857 147.475 144.9 149.872C146.529 148.599 147.595 146.617 147.595 144.367C147.595 143.509 147.447 142.68 147.151 141.911C143.567 140.697 139.805 140.816 136.754 143.894Z" fill="#0060A1"/>
<path d="M189.949 156.709C189.949 156.709 191.875 160.053 196.792 162.302C198.599 161.03 199.754 158.958 199.754 156.59C199.754 155.702 199.576 154.814 199.28 154.045C195.933 153.483 192.615 154.015 189.949 156.709Z" fill="#0060A1"/>
<path d="M188.113 151.974C188.113 151.974 194.541 146.469 203.101 149.695C211.632 152.921 222.118 162.569 222.118 162.569C222.118 162.569 189.239 152.655 188.113 151.974Z" fill="#B67D72"/>
<path d="M135.508 140.697C135.508 140.697 141.936 135.192 150.496 138.418C159.027 141.644 166.343 151.292 166.343 151.292C166.343 151.292 136.633 141.378 135.508 140.697Z" fill="#B67D72"/>
<path d="M141.758 207.199C141.758 207.584 141.758 220.872 141.758 220.872C145.964 227.235 157.368 232.947 176.059 229.485L181.479 218.978L141.758 207.199Z" fill="white"/>
<path d="M160.507 220.635C178.043 225.282 195.963 221.553 195.963 221.553L133.078 198.823C133.078 198.794 136.011 214.154 160.507 220.635Z" fill="#AE605F"/>
<path d="M135.186 204.357C135.186 204.357 134.475 222.618 156.72 228.3C173.367 232.532 194.487 222.47 194.487 222.47C194.487 222.47 178.906 249.757 149.255 237.889C131.305 230.698 129.439 209.714 135.186 204.357Z" fill="#F6A2AD"/>
<path d="M134.383 76.6232L133.672 69.6979L156.806 26.1035L158.465 50.6087L134.383 76.6232Z" fill="#59B0A9"/>
<path d="M224.402 54.8994L266.671 97.8427L239.124 89.9406L224.402 54.8994Z" fill="#B14298"/>
<path d="M142.32 60.0793L166.313 65.5545L179.583 33.2656L142.32 60.0793Z" fill="#8DC63F"/>
<path d="M279.32 158.988L238.977 52.4434L274.018 101.927L279.32 158.988Z" fill="#D44197"/>
<path d="M270.074 97.9023L291.846 137.413C291.846 137.413 297.118 125.811 290.868 112.167C284.47 98.1983 270.074 97.9023 270.074 97.9023Z" fill="#C49A6C"/>
<path d="M95.2244 100.596L90.4258 102.786C90.4258 102.786 108.465 121.845 106.954 162.303C106.984 162.303 117.766 136.88 95.2244 100.596Z" fill="black"/>
<path d="M83.8192 98.5234L80.8867 99.3225C80.8867 99.3225 96.023 115.127 101.355 140.105C98.7481 113.44 83.8192 98.5234 83.8192 98.5234Z" fill="black"/>
<path d="M224.075 275.891L220.609 277.755C220.609 277.755 250.408 283.674 280.444 284.266C280.444 284.237 246.409 281.04 224.075 275.891Z" fill="black"/>
<path d="M215.516 271.984L219.751 267.841C219.751 267.841 246.825 278.495 294.396 281.04C294.396 281.04 253.282 283.142 215.516 271.984Z" fill="black"/>
<path d="M246.648 218.652C246.648 218.652 247.448 221.789 247.478 222.914C259.356 235.699 270.938 247.686 285.067 269.764C285.067 269.764 270.493 242.447 246.648 218.652Z" fill="black"/>
<path d="M256.062 235.314L257.455 240.257C257.455 240.257 264.179 245.318 276.294 261.951C276.294 261.921 268.563 247.153 256.062 235.314Z" fill="black"/>
<path d="M45.3125 175.502C45.3125 175.502 57.3386 177.396 65.1881 194.502C71.2308 207.643 69.0981 222.115 69.0981 222.115C69.0981 222.115 51.3552 192.579 45.3125 175.502Z" fill="#267647"/>
<path d="M51.0312 191.839L81.3334 221.05C81.3334 221.05 82.8441 209.271 73.4839 198.794C63.9756 188.11 51.0312 191.839 51.0312 191.839Z" fill="#FEE0C3"/>
<path d="M60.8047 143.982L75.0523 140.904L70.8758 145.64L60.8047 143.982Z" fill="#CD1A53"/>
<path d="M45.4003 72.0947L43.4453 76.7412L48.7475 80.6479L45.4003 72.0947Z" fill="#F43874"/>
<path d="M307.695 173.697L321.38 178.758L315.308 180.504L307.695 173.697Z" fill="#CD1A53"/>
<path d="M249.931 228.42L222.828 253.339L209.262 251.297L249.931 228.42Z" fill="#917760"/>
<path d="M258.582 25.8964L291.165 57.2086C291.165 57.2086 297.148 41.4045 285.27 29.5367C273.392 17.6984 258.582 25.8964 258.582 25.8964Z" fill="#F2CAB3"/>
<path d="M264.953 21.191L308.377 51.7041C308.377 51.7041 304.29 32.6741 293.419 24.8905C282.548 17.1068 264.953 21.191 264.953 21.191Z" fill="#79C476"/>
<path d="M274.371 82.6023C274.371 82.6023 326.208 18.6165 326 20.1259C325.793 21.6057 320.047 61.5302 320.047 61.5302L274.371 82.6023Z" fill="#93278F"/>
<path d="M185.507 151.204L167.941 196.959L191.223 200.185L185.507 151.204Z" fill="#E4BCA0"/>
<path d="M144.305 179.527L192.024 197.344C192.024 197.344 165.839 202.553 165.276 202.346C164.713 202.168 154.317 198.824 154.317 198.824L144.305 179.527Z" fill="#BF7F66"/>
<path d="M124.727 199.682L201.237 225.696C201.237 225.696 204.14 211.609 159.116 196.574C132.339 187.607 124.727 199.682 124.727 199.682Z" fill="#978A79"/>
<path d="M136.754 114.802C136.754 114.802 147.477 108.321 177.986 112.079C177.986 112.079 160.451 107.374 139.153 109.86L136.754 114.802Z" fill="#EDC9AA"/>
<path d="M144.098 106.899C144.098 106.899 155.294 101.246 185.419 107.254C185.419 107.254 170.46 100.033 148.57 102.046L144.098 106.899Z" fill="#EDC9AA"/>
</svg>
