<svg width="768" height="992" viewBox="0 0 768 992" fill="none" xmlns="http://www.w3.org/2000/svg">
<path d="M179.233 969L116 887.618L666.21 735L753 928.84L179.233 969Z" fill="#AC1888"/>
<path d="M691.555 881.528L717.156 962.034L490.619 986.687L691.555 881.528Z" fill="#D02AA8"/>
<path d="M713.438 897.433L696.202 947.555L683.688 933.186L713.438 897.433Z" fill="#E1A710"/>
<path d="M606.75 41.6154L650.056 270.383L144.857 210.285L606.75 41.6154Z" fill="#AC1888"/>
<path d="M47.6653 237.274L37.5954 245.336L6.73445 224.204L47.6653 237.274Z" fill="#FF5A5A"/>
<path d="M138.76 745L0 118L694.825 198.342L755 649.088L138.76 745Z" fill="#66094F"/>
<path d="M4 960L67.5962 583L680.914 663.259L768 864.187L4 960Z" fill="#520C40"/>
</svg>
