<svg width="48" height="16" viewBox="0 0 48 16" fill="none" xmlns="http://www.w3.org/2000/svg">
<path fill-rule="evenodd" clip-rule="evenodd" d="M31.1892 8C31.1892 12.4183 27.6074 16 23.1892 16C18.7709 16 15.1892 12.4183 15.1892 8C15.1892 3.58172 18.7709 0 23.1892 0C27.6074 0 31.1892 3.58172 31.1892 8ZM7.98612 1.30299C8.17975 0.976039 8.65291 0.976038 8.84655 1.30299L16.7621 14.6686C16.9595 15.0019 16.7193 15.4234 16.3319 15.4234H0.500765C0.113396 15.4234 -0.126843 15.0019 0.0705495 14.6686L7.98612 1.30299ZM32.8423 0.432422C32.5661 0.432422 32.3423 0.656279 32.3423 0.932422V15.0676C32.3423 15.3437 32.5661 15.5676 32.8423 15.5676H46.9774C47.2536 15.5676 47.4774 15.3437 47.4774 15.0676V0.932422C47.4774 0.65628 47.2536 0.432422 46.9774 0.432422H32.8423Z" fill="white"/>
</svg>
