<svg width="360" height="474" viewBox="0 0 360 474" fill="none" xmlns="http://www.w3.org/2000/svg">
<path d="M0 0.445312H360V473.145H0V0.445312Z" fill="#A2C61D"/>
<path d="M163.222 426.979C162.541 427.83 136.736 342.919 123.918 300.356L232.058 288.227L230.146 332.066C208.121 363.349 163.902 426.128 163.222 426.979Z" fill="#BE77B6"/>
<path d="M190.842 406.551L169.809 333.131L237.158 282.907V334.408L190.842 406.551Z" fill="#641D5C"/>
<path d="M173.844 402.293C172.995 402.463 152.81 340.365 142.824 309.295H211.661L213.148 351.219C200.401 368.173 174.694 402.123 173.844 402.293Z" fill="#964F8E"/>
<path d="M187.866 373.564L171.508 320.999L208.9 315.679L211.45 346.111L187.866 373.564Z" fill="#641D5C"/>
<path d="M167.508 338.071L116.91 302.655L86.7344 190.609L109.9 142.066L227.246 137.181C237.813 160.893 258.945 208.744 258.945 210.454C258.945 212.163 242.08 279.351 233.647 312.73L199.815 343.261L167.508 338.071Z" fill="#C881C0"/>
<path d="M328.112 349.933C302.93 341.176 275.016 337.083 264.207 336.132C296.831 337.368 318.728 343.667 330.962 347.435C331.416 347.575 328.112 349.933 328.112 349.933Z" fill="#060701"/>
<path d="M331.555 356.36C295.35 344.557 262.464 338.672 250.547 337.204C300.246 342.154 327.319 351.006 334.643 354.813L331.555 356.36Z" fill="#060701"/>
<path d="M93.6057 435.17C92.6761 434.673 91.8332 434.229 91.0938 433.846C91.8299 434.202 92.6737 434.648 93.6057 435.17C101.891 439.595 117.065 448.213 127.272 455.796V457.592C119.275 451.842 102.461 440.122 93.6057 435.17Z" fill="black"/>
<path d="M130.422 455.82C119.347 447.334 110.198 441.42 107.008 439.524C116.449 444.228 125.233 450.218 128.445 452.625L130.422 455.82Z" fill="black"/>
<path d="M305.956 404.659C304.853 405.764 311.378 354.118 314.778 328.157L326.635 343.347C320.201 363.324 307.059 403.555 305.956 404.659Z" fill="#580DDD"/>
<path d="M239.23 420.678L260.736 348.595L298.236 331.472L239.23 420.678Z" fill="#7D9105"/>
<path d="M44.5712 352.462L26.0977 316.282L116.81 333.958L44.5712 352.462Z" fill="#BE77B6"/>
<path d="M133.079 449.4L63.0469 402.449L183.813 443.6L133.079 449.4Z" fill="#0BD90C"/>
<path d="M143.865 274.501L120.022 249.877L118.836 231.928L161.338 260.112L143.865 274.501Z" fill="white"/>
<path d="M178.832 222.128L132.086 200.675L144.762 203.669C154.369 207.821 173.76 216.353 174.468 217.269C175.176 218.185 177.673 220.89 178.832 222.128Z" fill="black"/>
<path d="M204.172 222.716L206.996 216.127L229.287 201.841L234.554 200.428L204.172 222.716Z" fill="black"/>
<path d="M312.559 143.219L316.011 116.472C318.85 128.616 324.712 153.549 325.449 156.132C326.186 158.714 317.162 148.599 312.559 143.219Z" fill="#7D9105"/>
<path d="M267.207 78.1929L275.955 46.1426L319.001 102.865L267.207 78.1929Z" fill="#FE3752"/>
<path d="M298.52 227.973L300.014 218.637L304.762 233.521L298.52 227.973Z" fill="#2886D1"/>
<path d="M48.7155 70.3083L33.1836 68.4183L54.9563 50.8252L48.7155 70.3083Z" fill="white"/>
<path d="M90.0882 91.0985L87.9102 81.6475L106.925 64.4912L90.0882 91.0985Z" fill="#6DE5A6"/>
<path d="M126.39 293.341L119.875 266.343L136.757 284.292L144.013 304.911L126.39 293.341Z" fill="#641D5C"/>
<path d="M184.197 288.502L160.434 309.307L194.599 302.225L216.781 290.493L199.671 285.006L193.559 291.867L184.197 288.502Z" fill="#7D9105"/>
<path d="M190.312 283.804L188.615 273.122L185.707 282.347L190.312 283.804Z" fill="#641D5C"/>
<path d="M190.915 270.451L190.188 255.884C191.44 258.595 193.92 264.138 193.823 264.624C193.726 265.109 191.844 268.711 190.915 270.451Z" fill="#641D5C"/>
<path d="M188.135 270.087V221.652L183.914 268.935L188.135 270.087Z" fill="white"/>
<path d="M225.209 265.595L220.848 258.312L231.633 255.398L230.785 260.133L225.209 265.595Z" fill="white"/>
<path d="M192.731 314.011L160.434 309.446L216.781 290.493L204.756 309.102H197.52L192.731 314.011Z" fill="#28BC46"/>
<path d="M224.608 296.307L222.91 304.682L227.516 299.705L229.576 293.271L224.608 296.307Z" fill="#641D5C"/>
<path d="M141.21 228.788L137.184 215.76C157.25 217.662 169.356 228.891 172.901 234.268L141.21 228.788Z" fill="#7D9105"/>
<path d="M237.055 218.259C221.194 217.078 208.743 226.087 204.5 230.738L231.428 228.994C239.913 225.908 252.917 219.44 237.055 218.259Z" fill="#7D9105"/>
<path d="M157.747 226.712C149.174 225.209 143.635 227.339 141.938 228.591C144.617 230.425 151.155 234.549 155.871 236.374C160.586 238.199 168.374 235.614 171.679 234.093C170.607 232.259 166.32 228.216 157.747 226.712Z" fill="#28BC46"/>
<path d="M231.563 229.125C230.112 227.561 225.09 225.544 219.104 225.748C213.243 225.947 206.452 229.125 203.43 231.809C205.662 232.883 211.358 234.725 218.539 234.94C225.719 235.154 230.402 231.272 231.563 229.125Z" fill="#28BC46"/>
<path d="M73.3789 170.657L107.22 231.3L113.204 188.412L225.771 160.512L259.15 211.009L251.784 130.767L227.613 94.5653L184.105 75.4268L96.3999 107.478L73.3789 170.657Z" fill="#7D9105"/>
<path d="M93.1748 245.596L100.082 115.087C85.3495 121.774 55.8375 144.971 55.6534 184.262C55.4692 223.553 80.5909 241.523 93.1748 245.596Z" fill="#580DDD"/>
<path d="M144.737 179.42L226.459 57.6724C208.733 52.8298 171.212 61.1304 150.263 96.4102C133.803 124.129 138.752 162.664 144.737 179.42Z" fill="#90F31D"/>
<path d="M192.85 161.663L92.0234 115.085C101.002 105.172 126.324 93.4124 154.868 107.016C179.355 118.686 191.162 150.134 192.85 161.663Z" fill="#90F31D"/>
<path d="M185.027 175.038L191.471 41.2998C198.607 48.4479 212.972 71.414 213.34 106.094C213.709 140.773 194.619 166.506 185.027 175.038Z" fill="#2886D1"/>
<path d="M140.137 25.1611L162.005 154.056C173.899 143.757 196.305 114.627 190.781 80.5006C185.256 46.3745 154.716 29.3884 140.137 25.1611Z" fill="#28BC46"/>
<path d="M210.127 97.9337L107.215 152.892C106.586 140.728 113.224 112.415 144.809 96.4794C176.394 80.5441 201.515 90.8092 210.127 97.9337Z" fill="#580DDD"/>
<path d="M222.219 163.237L288.096 229.071C288.096 220.192 284.288 198.046 269.059 180.49C253.829 162.934 231.486 161.673 222.219 163.237Z" fill="#580DDD"/>
<path d="M304.568 224.075L254.559 191.991C258.638 187.753 270.604 181.82 285.834 191.991C301.064 202.161 304.669 217.618 304.568 224.075Z" fill="#0BD90C"/>
<path d="M277.738 206.677L211.996 164.772L241.527 160.546L277.738 206.677Z" fill="#0BD90C"/>
<path d="M140.453 190.694L268.477 93.1348C268.477 108.062 260.581 143.354 228.996 165.105C197.412 186.856 156.807 191.227 140.453 190.694Z" fill="#0BD90C"/>
<path d="M143.205 185.605C142.159 185.954 202.766 111.696 233.199 74.5234C236.345 92.7463 246.119 124.103 217.088 157.108C192.095 185.522 144.511 185.169 143.205 185.605Z" fill="#6DE5A6"/>
<path d="M266.878 114.944L184.577 143.151C179.061 153.037 167.942 173.015 167.593 173.829C167.245 174.643 192.124 168.449 204.607 165.251L266.878 114.944Z" fill="#FE3752"/>
<path d="M230.629 143.995L112.855 164.42L114.965 207.03L230.629 143.995Z" fill="#2886D1"/>
<path d="M146.923 216.919C133.834 227.601 113.031 232.7 104.266 233.914C123.753 227.99 140.823 217.931 146.923 213.642V216.919Z" fill="black"/>
<path d="M141.332 226.046V223.229C125.399 233.793 105.473 238.371 81.5664 239.427C113.207 242.597 132.777 231.797 141.332 226.046Z" fill="black"/>
<path d="M261.918 292.602C246.168 312.041 221.137 331.925 210.59 339.438C225.004 327.113 242.934 312.679 257.699 292.602C259.105 292.25 260.863 292.25 261.918 292.602Z" fill="black"/>
<path d="M242.779 304.93C233.292 316.528 221.893 325.788 217.379 328.969C228.21 319.316 235.713 310.355 238.11 307.081C239.356 306.271 241.829 305.186 242.779 304.93Z" fill="black"/>
</svg>
