<svg width="260" height="341" viewBox="0 0 260 341" fill="none" xmlns="http://www.w3.org/2000/svg">
<g clip-path="url(#clip0_833_16588)">
<rect width="260" height="340.826" fill="#5F41C1"/>
<path d="M0 0H260V340.826H0V0Z" fill="#5F41C1"/>
<path d="M166.64 201.907L175.081 194.795L171.178 209.31L163.859 216.227L166.64 201.907Z" fill="#6F6469"/>
<path d="M111.754 211.356L137.71 294.65L169.471 248.522L111.754 211.356Z" fill="#C8BEC2"/>
<path d="M123.07 222.657L140.634 282.083L166.297 240.436L123.07 222.657Z" fill="#6F6469"/>
<path d="M123.07 216.227L141.415 276.871L169.468 241.167L166.297 215.691L123.07 216.227Z" fill="#A0969A"/>
<path d="M144.684 226.652L153.466 255.634L173.03 229.574L172.542 208.727L144.684 226.652Z" fill="#6F6469"/>
<path d="M85.0156 167.177L95.1637 207.85L130.828 232.595L151.563 235.322L174.884 215.303L194.595 138.098L173.274 87.4883L88.4796 114.473L85.0156 167.177Z" fill="#D2C7CC"/>
<path d="M180.008 168.979L158.883 177.552L168.104 188.658C168.104 188.658 177.52 180.28 177.52 179.696C177.471 179.111 180.008 168.979 180.008 168.979Z" fill="white"/>
<path d="M16.957 51.7348L48.0842 58.7977L65.3067 16.9561L16.957 51.7348Z" fill="white"/>
<path d="M68.5742 55.8751L69.6476 64.6429L90.5291 41.457L68.5742 55.8751Z" fill="#B14298"/>
<path d="M189.717 130.742C189.717 129.768 169.03 95.1842 169.03 95.1842L168.298 100.786L90.5291 128.404L87.4555 158.897L74.4777 136.977L68.5742 107.556L78.9662 74.0441L125.95 54.0244L165.078 62.5973L186.497 84.1271L189.717 130.742Z" fill="#80809D"/>
<path d="M88.8242 40.4824L133.076 51.637L146.639 41.4566L88.8242 40.4824Z" fill="#59B0A9"/>
<path d="M97.5547 38.583L141.025 111.599C141.025 111.599 145.612 83.5421 134.537 66.104C119.9 42.9669 97.5547 38.583 97.5547 38.583Z" fill="#701419"/>
<path d="M70.0391 95.4765L156.005 72.5342C156.005 72.5342 147.272 98.0581 117.998 106.436C88.7251 114.814 70.0391 95.4765 70.0391 95.4765Z" fill="#7BC143"/>
<path d="M143.074 105.705C143.074 105.705 151.222 131.473 159.321 145.063L160.931 144.04C160.931 144.04 148.49 118.857 143.074 105.705Z" fill="black"/>
<path d="M143.074 100.445C143.074 100.445 151.32 122.901 157.467 134.591H160.345C160.345 134.591 151.856 119.442 143.074 100.445Z" fill="black"/>
<path d="M103.41 141.556L109.362 139.899L132.976 145.355L137.221 151.2L103.41 141.556Z" fill="black"/>
<path d="M151.566 149.204L155.421 143.261L173.716 140.533L177.083 142.384L151.566 149.204Z" fill="black"/>
<path d="M120.829 222.657L98.6786 207.46L75.5039 119.441L120.829 222.657Z" fill="#6F6469"/>
<path d="M112.582 156.802C112.582 156.802 120.535 162.695 129.17 158.604C129.17 158.604 122.096 152.807 112.582 156.802Z" fill="#759766"/>
<path d="M103.703 172.778L110.875 180.669L117.169 176.383L103.703 167.566V172.778Z" fill="white"/>
<path d="M138.246 180.378L143.515 181.06L143.076 161.43L138.246 180.378Z" fill="white"/>
<path d="M144.93 175.263L145.564 180.669L147.174 178.819L144.93 175.263Z" fill="#6F6469"/>
<path d="M142.783 182.716L141.953 185.979L144.929 187.002L142.783 182.716Z" fill="#6F6469"/>
<path d="M124.195 205.999C124.195 205.999 137.222 207.85 146.882 206.875C156.542 205.901 160.64 203.027 160.64 203.027L141.515 203.953L124.195 205.999Z" fill="#759766"/>
<path d="M96.9219 257.874C96.9707 257.923 108.143 280.524 108.143 280.524L98.8246 323.924L96.9219 257.874Z" fill="#D44197"/>
<path d="M81.113 294.212L80.8203 298.352C80.8203 298.352 82.6255 303.808 89.6511 312.624C89.6023 312.624 81.7473 298.157 81.113 294.212Z" fill="black"/>
<path d="M82.6758 293.141C82.627 294.651 82.8222 296.355 82.8222 296.355C82.8222 296.355 88.7256 309.897 97.2636 320.662C97.3124 320.662 86.7741 301.957 82.6758 293.141Z" fill="black"/>
<path d="M61.6466 224.995L59.4023 228.551L64.8179 234.153L61.6466 224.995Z" fill="#C8BEC2"/>
<path d="M198.745 255.195H203.087L195.281 260.066L198.745 255.195Z" fill="#80809D"/>
<path d="M191.279 235.857L188.742 237.221C188.742 237.221 210.648 241.556 232.798 241.995C232.75 241.995 207.721 239.608 191.279 235.857Z" fill="black"/>
<path d="M184.984 232.984L188.107 229.915C188.107 229.915 208.061 237.757 243.043 239.608C243.043 239.608 212.794 241.167 184.984 232.984Z" fill="black"/>
<path d="M241.238 231.23L241.726 244.285L214.746 272.585L241.238 231.23Z" fill="#267647"/>
<path d="M227.578 93.2355L236.75 91.2871L234.067 94.3071L227.578 93.2355Z" fill="#80809D"/>
<path d="M220.602 152.126V156.9C220.602 156.9 223.968 158.069 224.212 158.215C224.505 158.361 220.602 152.126 220.602 152.126Z" fill="#701419"/>
<path d="M217.675 47.0586L216.406 50.0299L219.821 52.5628L217.675 47.0586Z" fill="#297D3D"/>
<path d="M165.569 155.536C161.666 155.876 157.665 157.484 156.934 158.117C156.934 158.117 159.763 159.822 164.545 159.53C170.594 159.14 171.668 155.779 171.668 155.779C171.668 155.779 169.472 155.195 165.569 155.536Z" fill="#759766"/>
<path d="M109.949 152.515L112.584 156.801C112.584 156.801 121.61 154.95 129.172 158.604C129.172 158.604 123.464 151.638 109.949 152.515Z" fill="#80809D"/>
<path d="M174.935 152.515L172.301 156.802C172.301 156.802 162.933 154.951 155.371 158.653C155.371 158.653 161.421 151.639 174.935 152.515Z" fill="#80809D"/>
<path d="M124.195 205.999L139.027 202.248C139.027 202.248 143.32 203.904 150.2 201.858L160.64 202.979L124.195 205.999Z" fill="#80809D"/>
<path d="M161.129 197.767C161.129 197.767 161.714 200.056 161.763 200.884C170.496 210.285 179.034 219.101 189.426 235.322C189.426 235.322 178.693 215.253 161.129 197.767Z" fill="black"/>
<path d="M168.055 209.993L169.079 213.646C169.079 213.646 174.007 217.397 182.935 229.574C182.984 229.574 177.276 218.712 168.055 209.993Z" fill="black"/>
<path d="M115.756 75.1152L98.4358 195.185C98.4358 195.185 83.9943 163.475 79.3594 136.49C79.3594 136.49 79.2618 77.502 115.756 75.1152Z" fill="#759766"/>
<path d="M103.41 56.1191L81.1133 107.557L96.1402 97.6199L103.41 56.1191Z" fill="#701419"/>
<path d="M79.5552 104.001L77.75 114.717L122.099 132.35L79.5552 104.001Z" fill="#297D3D"/>
<path d="M85.8956 145.55L116.632 195.185C116.632 195.185 99.7516 197.328 87.9447 176.042C78.7236 159.335 85.8956 145.55 85.8956 145.55Z" fill="#297D3D"/>
<path d="M54.9648 124.021L92.2394 161.819L67.9914 154.854L54.9648 124.021Z" fill="#B14298"/>
<path d="M78.8211 141.117L77.4062 144.429C77.4062 144.429 95.2629 145.939 112.973 167.177C112.924 167.177 106.826 149.349 78.8211 141.117Z" fill="black"/>
<path d="M71.6495 144.04L70.5273 145.794C70.5273 145.794 85.4567 146.963 99.5566 157.24C86.0422 144.868 71.6495 144.04 71.6495 144.04Z" fill="black"/>
<path d="M203.33 161.819L138.539 78.8662L182.986 112.963L203.33 161.819Z" fill="#D44197"/>
<path d="M182.645 116.324C182.645 116.324 194.549 118.175 202.306 135.126C208.259 148.132 206.161 162.452 206.161 162.452C206.161 162.452 188.597 133.227 182.645 116.324Z" fill="#267647"/>
<path d="M188.305 132.496L218.31 161.429C218.31 161.429 219.773 149.788 210.552 139.413C201.087 128.794 188.305 132.496 188.305 132.496Z" fill="#D44197"/>
<path d="M114.387 123.533L197.328 63.7179C197.328 63.7179 177.471 46.2798 142.538 69.076C114.484 87.3421 114.387 123.533 114.387 123.533Z" fill="#7BC143"/>
<path d="M137.708 104.878L136.684 94.454L171.665 28.501L174.153 65.5691L137.708 104.878Z" fill="#59B0A9"/>
</g>
<defs>
<clipPath id="clip0_833_16588">
<rect width="260" height="340.826" fill="white"/>
</clipPath>
</defs>
</svg>
