<svg width="154" height="202" viewBox="0 0 154 202" fill="none" xmlns="http://www.w3.org/2000/svg">
<g clip-path="url(#clip0_833_16734)">
<rect width="153.335" height="201.002" transform="translate(0.664062)" fill="#5F41C1"/>
<path d="M0.664062 0H153.999V201.002H0.664062V0Z" fill="#5F41C1"/>
<path d="M98.9408 119.075L103.919 114.881L101.617 123.441L97.3008 127.521L98.9408 119.075Z" fill="#6F6469"/>
<path d="M66.5703 124.647L81.8776 173.77L100.609 146.566L66.5703 124.647Z" fill="#C8BEC2"/>
<path d="M73.2461 131.312L83.6044 166.359L98.739 141.798L73.2461 131.312Z" fill="#6F6469"/>
<path d="M73.2461 127.52L84.0648 163.285L100.609 142.228L98.7391 127.204L73.2461 127.52Z" fill="#A0969A"/>
<path d="M85.9922 133.668L91.1713 150.76L102.709 135.392L102.422 123.097L85.9922 133.668Z" fill="#6F6469"/>
<path d="M50.8008 98.5923L56.7856 122.579L77.8187 137.172L90.0473 138.781L103.801 126.974L115.425 81.4426L102.851 51.5957L52.8437 67.5102L50.8008 98.5923Z" fill="#D2C7CC"/>
<path d="M106.826 99.6553L94.3672 104.711L99.8053 111.261C99.8053 111.261 105.359 106.32 105.359 105.975C105.33 105.63 106.826 99.6553 106.826 99.6553Z" fill="white"/>
<path d="M10.6641 30.5107L29.0213 34.6761L39.1782 10L10.6641 30.5107Z" fill="white"/>
<path d="M41.1055 32.9523L41.7385 38.123L54.0534 24.4492L41.1055 32.9523Z" fill="#B14298"/>
<path d="M112.549 77.1056C112.549 76.5311 100.349 56.1352 100.349 56.1352L99.9177 59.4388L54.0534 75.7267L52.2407 93.7095L44.587 80.7826L41.1055 63.4318L47.2341 43.6679L74.9426 31.8613L98.0186 36.9172L110.65 49.6143L112.549 77.1056Z" fill="#80809D"/>
<path d="M53.0469 23.875L79.1441 30.4534L87.143 24.4495L53.0469 23.875Z" fill="#59B0A9"/>
<path d="M58.1953 22.7549L83.8321 65.8159C83.8321 65.8159 86.5368 49.2695 80.0053 38.9854C71.3734 25.3403 58.1953 22.7549 58.1953 22.7549Z" fill="#701419"/>
<path d="M41.9688 56.3075L92.6669 42.7773C92.6669 42.7773 87.5165 57.83 70.2527 62.771C52.9888 67.712 41.9688 56.3075 41.9688 56.3075Z" fill="#7BC143"/>
<path d="M85.043 62.3398C85.043 62.3398 89.8481 77.5362 94.6244 85.5509L95.5739 84.9476C95.5739 84.9476 88.2368 70.096 85.043 62.3398Z" fill="black"/>
<path d="M85.043 59.2373C85.043 59.2373 89.9056 72.4802 93.531 79.3746H95.2286C95.2286 79.3746 90.2221 70.4406 85.043 59.2373Z" fill="black"/>
<path d="M61.6484 83.4826L65.1588 82.5059L79.0849 85.7232L81.5882 89.1704L61.6484 83.4826Z" fill="black"/>
<path d="M90.0508 87.9922L92.3239 84.4876L103.114 82.8789L105.099 83.9705L90.0508 87.9922Z" fill="black"/>
<path d="M71.9216 131.312L58.8586 122.349L45.1914 70.4404L71.9216 131.312Z" fill="#6F6469"/>
<path d="M67.0586 92.4736C67.0586 92.4736 71.7486 95.9495 76.8414 93.5365C76.8414 93.5365 72.6693 90.118 67.0586 92.4736Z" fill="#759766"/>
<path d="M61.8203 101.896L66.05 106.55L69.7617 104.022L61.8203 98.8223V101.896Z" fill="white"/>
<path d="M82.1914 106.378L85.2989 106.78L85.0399 95.2031L82.1914 106.378Z" fill="white"/>
<path d="M86.1367 103.361L86.5108 106.55L87.4603 105.458L86.1367 103.361Z" fill="#6F6469"/>
<path d="M84.868 107.757L84.3789 109.682L86.1341 110.285L84.868 107.757Z" fill="#6F6469"/>
<path d="M73.9062 121.488C73.9062 121.488 81.5887 122.579 87.2857 122.005C92.9828 121.43 95.3997 119.735 95.3997 119.735L84.1207 120.281L73.9062 121.488Z" fill="#759766"/>
<path d="M57.8242 152.081C57.853 152.11 64.442 165.439 64.442 165.439L58.9464 191.034L57.8242 152.081Z" fill="#D44197"/>
<path d="M48.5008 173.512L48.3281 175.953C48.3281 175.953 49.3927 179.171 53.5361 184.37C53.5073 184.37 48.8748 175.839 48.5008 173.512Z" fill="black"/>
<path d="M49.4226 172.879C49.3938 173.769 49.5089 174.775 49.5089 174.775C49.5089 174.775 52.9905 182.761 58.0257 189.109C58.0545 189.109 51.8395 178.078 49.4226 172.879Z" fill="black"/>
<path d="M37.0189 132.69L35.6953 134.787L38.8891 138.091L37.0189 132.69Z" fill="#C8BEC2"/>
<path d="M117.875 150.502H120.436L115.832 153.375L117.875 150.502Z" fill="#80809D"/>
<path d="M113.469 139.097L111.973 139.901C111.973 139.901 124.892 142.458 137.955 142.716C137.926 142.716 123.165 141.309 113.469 139.097Z" fill="black"/>
<path d="M109.758 137.402L111.599 135.592C111.599 135.592 123.367 140.217 143.998 141.308C143.998 141.308 126.158 142.228 109.758 137.402Z" fill="black"/>
<path d="M142.936 136.368L143.224 144.067L127.312 160.757L142.936 136.368Z" fill="#267647"/>
<path d="M134.879 54.986L140.288 53.8369L138.706 55.618L134.879 54.986Z" fill="#80809D"/>
<path d="M130.762 89.7158V92.531C130.762 92.531 132.747 93.2205 132.891 93.3066C133.064 93.3928 130.762 89.7158 130.762 89.7158Z" fill="#701419"/>
<path d="M129.037 27.7529L128.289 29.5052L130.303 30.999L129.037 27.7529Z" fill="#297D3D"/>
<path d="M98.3077 91.727C96.0058 91.9281 93.6464 92.8761 93.2148 93.2495C93.2148 93.2495 94.8837 94.255 97.7034 94.0826C101.271 93.8528 101.904 91.8707 101.904 91.8707C101.904 91.8707 100.61 91.526 98.3077 91.727Z" fill="#759766"/>
<path d="M65.5039 89.9454L67.0577 92.4733C67.0577 92.4733 72.3807 91.3817 76.8405 93.5362C76.8405 93.5362 73.4741 89.4283 65.5039 89.9454Z" fill="#80809D"/>
<path d="M103.831 89.9461L102.277 92.474C102.277 92.474 96.7528 91.3824 92.293 93.5656C92.293 93.5656 95.8608 89.429 103.831 89.9461Z" fill="#80809D"/>
<path d="M73.9062 121.488L82.6533 119.276C82.6533 119.276 85.1853 120.252 89.2423 119.046L95.3997 119.707L73.9062 121.488Z" fill="#80809D"/>
<path d="M95.6875 116.633C95.6875 116.633 96.0328 117.983 96.0615 118.471C101.212 124.016 106.247 129.215 112.376 138.781C112.376 138.781 106.046 126.946 95.6875 116.633Z" fill="black"/>
<path d="M99.7734 123.843L100.378 125.997C100.378 125.997 103.284 128.209 108.549 135.391C108.578 135.391 105.212 128.985 99.7734 123.843Z" fill="black"/>
<path d="M68.9296 44.2998L58.7151 115.111C58.7151 115.111 50.1983 96.4097 47.4648 80.4952C47.4648 80.4952 47.4073 45.7074 68.9296 44.2998Z" fill="#759766"/>
<path d="M61.6493 33.0967L48.5 63.4319L57.3621 57.5717L61.6493 33.0967Z" fill="#701419"/>
<path d="M47.5802 61.334L46.5156 67.6538L72.6704 78.0528L47.5802 61.334Z" fill="#297D3D"/>
<path d="M51.321 85.8379L69.4481 115.11C69.4481 115.11 59.4926 116.374 52.5295 103.821C47.0914 93.9675 51.321 85.8379 51.321 85.8379Z" fill="#297D3D"/>
<path d="M33.0781 73.1406L55.0608 95.4324L40.7605 91.3245L33.0781 73.1406Z" fill="#B14298"/>
<path d="M47.1469 83.2236L46.3125 85.177C46.3125 85.177 56.8434 86.0676 67.2881 98.5923C67.2593 98.5923 63.6627 88.0784 47.1469 83.2236Z" fill="black"/>
<path d="M42.9196 84.9473L42.2578 85.9814C42.2578 85.9814 51.0624 86.6709 59.3778 92.7322C51.4077 85.4356 42.9196 84.9473 42.9196 84.9473Z" fill="black"/>
<path d="M120.578 95.433L82.3672 46.5117L108.579 66.6203L120.578 95.433Z" fill="#D44197"/>
<path d="M108.379 68.6025C108.379 68.6025 115.4 69.6941 119.974 79.691C123.485 87.361 122.248 95.8066 122.248 95.8066C122.248 95.8066 111.889 78.5706 108.379 68.6025Z" fill="#267647"/>
<path d="M111.715 78.139L129.41 95.2025C129.41 95.2025 130.273 88.3369 124.835 82.2181C119.253 75.9557 111.715 78.139 111.715 78.139Z" fill="#D44197"/>
<path d="M68.125 72.8534L117.039 37.5773C117.039 37.5773 105.329 27.2932 84.7271 40.7372C68.1825 51.5096 68.125 72.8534 68.125 72.8534Z" fill="#7BC143"/>
<path d="M81.8777 61.8518L81.2734 55.7043L101.904 16.8086L103.371 38.6695L81.8777 61.8518Z" fill="#59B0A9"/>
</g>
<defs>
<clipPath id="clip0_833_16734">
<rect width="153.335" height="201.002" fill="white" transform="translate(0.664062)"/>
</clipPath>
</defs>
</svg>
