<svg width="360" height="474" viewBox="0 0 360 474" fill="none" xmlns="http://www.w3.org/2000/svg">
<path d="M0 0.445312H360V473.145H0V0.445312Z" fill="#E64EF9"/>
<path d="M178.79 418.523L144.887 306.842L178.79 313.144L225.275 354.455L178.79 418.523Z" fill="#7ED4C3"/>
<path d="M200.113 363.907L187.531 327.847L149.434 313.843L176.696 395.766L200.113 363.907Z" fill="#56AC9B"/>
<path d="M229.122 327.847V298.089L154.676 308.242L183.336 398.567L229.122 327.847Z" fill="#247A69"/>
<path d="M182.636 368.457L171.801 337.299H186.83L194.519 360.055L182.636 368.457Z" fill="#7ED4C3"/>
<path d="M118.326 294.588L89.3164 185.357L107.142 150.348L237.161 142.646L258.831 202.862L233.666 301.59L198.015 334.149L169.355 331.698L118.326 294.588Z" fill="#88DECD"/>
<path d="M80.2266 171.704L106.79 224.919L110.634 189.909L214.091 157.7L208.848 131.793L257.78 193.06L245.896 90.4814L168.304 70.876L95.2557 104.485L80.2266 171.704Z" fill="#8F6BCE"/>
<path opacity="0.5" d="M306.367 357.955L304.969 362.156L316.503 355.854L306.367 357.955Z" fill="#5322E6"/>
<path d="M328.735 341.5C303.01 333.098 275.375 328.663 264.773 327.496C264.773 327.496 303.22 334.428 325.589 343.951C326.987 343.951 328.735 342.55 328.735 341.5Z" fill="black"/>
<path d="M333.276 348.853C301.121 337.3 261.043 329.364 250.441 328.197C250.441 328.197 296.228 336.95 330.131 351.304C331.529 351.304 333.276 349.903 333.276 348.853Z" fill="black"/>
<path d="M96.6586 447.93H91.0664L122.523 437.777L96.6586 447.93Z" fill="black"/>
<path d="M165.861 154.549L115.531 26.0635C129.861 27.4639 162.156 39.2971 176.696 75.4272C191.236 111.557 175.531 143.229 165.861 154.549Z" fill="#18BAB9"/>
<path d="M116.58 201.812L110.289 157.7L225.978 128.642L116.58 201.812Z" fill="#284CF0"/>
<path d="M87.9196 234.721L99.104 110.437C86.405 114.404 59.3992 132.353 52.9681 172.404C46.5371 212.455 73.5895 230.637 87.9196 234.721Z" fill="#5322E6"/>
<path opacity="0.5" d="M124.268 71.9263L62.7539 66.6748L113.084 82.7793L124.268 71.9263Z" fill="#A44F33"/>
<path d="M120.771 190.959L46.3242 213.015L94.9067 216.516L120.771 190.959Z" fill="#A44F33"/>
<path d="M95.9585 38.3164L14.8711 47.4189L111.337 93.6318L95.9585 38.3164Z" fill="white"/>
<path d="M189.274 148.247L99.4492 82.4287C99.4492 94.9155 99.4492 123.74 123.915 141.945C145.054 157.674 175.643 153.498 189.274 148.247Z" fill="#2AD425"/>
<path d="M188.579 126.191L184.035 142.646L255.336 116.038L275.957 66.6748L188.579 126.191Z" fill="#267849"/>
<path d="M138.25 176.605L257.085 98.1836C260.464 112.888 259.392 147.757 228.075 169.603C196.759 191.449 155.143 183.374 138.25 176.605Z" fill="#A44F33"/>
<path d="M274.907 95.0322L257.082 62.8232L333.276 71.5757L274.907 95.0322Z" fill="#FBE216"/>
<path d="M180.191 166.102L236.114 49.1699C239.609 61.8901 250.444 88.3808 231.57 126.191C216.685 156.011 192.308 165.752 180.191 166.102Z" fill="#284CF0"/>
<path d="M202.56 95.382C240.587 79.1375 265.706 91.1808 273.512 99.2331L150.832 162.951C152.23 147.197 164.533 111.627 202.56 95.382Z" fill="#2AD425"/>
<path d="M221.781 156.3L265.121 239.973C268.15 230.404 271.552 206.084 260.927 185.358C250.302 164.632 230.403 157.35 221.781 156.3Z" fill="#5322E6"/>
<path d="M281.898 240.323L245.898 191.659C251.374 190.259 264.842 190.889 274.908 204.613C284.974 218.337 283.763 234.138 281.898 240.323Z" fill="#CAEF5C"/>
<path d="M287.492 227.37L289.939 187.809C298.211 206.947 314.964 245.575 315.803 246.975C316.642 248.375 297.279 234.488 287.492 227.37Z" fill="#284CF0"/>
<path d="M304.618 201.462C279.103 182.44 227.515 144.046 225.278 142.646L214.094 165.052L304.618 201.462Z" fill="#CAEF5C"/>
<path d="M139.296 200.762L129.16 202.162L180.189 210.564C178.209 208.931 174.108 205.593 173.549 205.313C172.989 205.033 150.481 202.162 139.296 200.762Z" fill="black"/>
<path d="M230.519 198.311L205.354 206.363L200.461 211.614L237.16 200.061L230.519 198.311Z" fill="black"/>
<path d="M189.976 263.779L186.481 215.466L172.5 262.729L189.976 263.779Z" fill="white"/>
<path d="M150.133 250.476C143.609 246.158 130.211 237.452 128.812 237.172L130.56 245.574L141.745 256.427L150.133 250.476Z" fill="white"/>
<path d="M223.529 270.431L208.5 251.176L243.102 237.172L238.558 254.677L223.529 270.431Z" fill="white"/>
<path d="M196.269 263.779L193.473 248.375C195.686 251.409 200.253 257.618 200.812 258.178C201.372 258.738 198.016 262.145 196.269 263.779Z" fill="#247A69"/>
<path d="M185.434 276.733L188.23 267.98L192.773 278.133L185.434 276.733Z" fill="#247A69"/>
<path d="M132.309 277.083L127.066 270.431L129.513 281.284L135.105 284.785L132.309 277.083Z" fill="#247A69"/>
<path d="M224.58 287.937L222.832 295.639L227.376 293.888L228.774 285.136L224.58 287.937Z" fill="#247A69"/>
<path d="M183.683 298.438L159.566 293.887L189.625 286.535L215.489 287.936L203.955 296.688H192.071L183.683 298.438Z" fill="#18B9B9"/>
<path d="M234.712 215.466C219.054 214.066 207.916 220.718 204.305 224.219L230.169 221.418C231.567 219.317 232.615 216.867 234.712 215.466Z" fill="#8F6BCE"/>
<path d="M169.704 225.619C160.477 216.656 144.19 213.715 137.199 213.365L142.791 222.468C150.131 222.818 159.568 221.768 169.704 225.619Z" fill="#8F6BCE"/>
<path d="M217.938 227.019C224.928 226.179 228.773 223.168 229.821 221.768C228.423 221.184 224.089 220.087 217.938 220.367C211.787 220.647 206.987 223.051 205.355 224.218C206.637 225.502 210.948 227.859 217.938 227.019Z" fill="#18BAB9"/>
<path d="M156.42 220.717C150.269 219.037 144.77 220.951 142.789 222.118C144.537 223.635 149.5 226.809 155.372 227.369C161.243 227.929 167.139 226.435 169.352 225.618C167.605 224.685 162.572 222.398 156.42 220.717Z" fill="#18BAB9"/>
<path d="M73.2362 346.753L65.5469 319.095L77.7799 312.443L73.2362 346.753Z" fill="#7ED4C3"/>
<path opacity="0.5" d="M111.686 410.12L97.3555 426.924L151.53 402.768L111.686 410.12Z" fill="#CAEF5C"/>
<path d="M93.1609 444.43L88.6172 443.729L132.307 430.426C132.307 430.426 99.5686 442.913 93.1609 444.43Z" fill="black"/>
<path d="M213.538 302.857C213.194 302.787 212.911 302.715 212.695 302.641C212.976 302.714 213.257 302.786 213.538 302.857C219.698 304.113 245.2 304.741 245.2 304.741L247.996 307.892C242.622 307.778 228.339 306.606 213.538 302.857Z" fill="black"/>
<path d="M265.121 312.093C238.838 310.412 211.529 305.791 201.16 303.69C226.046 310.692 256.267 313.61 268.267 314.193C267.568 313.493 266.519 312.793 265.121 312.093Z" fill="black"/>
<path d="M325.94 398.916L210.949 339.399L297.978 356.554L325.94 398.916Z" fill="#8F6BCE"/>
<path d="M181.24 283.035L158.172 293.888L186.483 290.387L194.172 292.138L197.318 288.987L215.492 287.586L201.861 283.035L192.774 285.486L181.24 283.035Z" fill="#8F6BCE"/>
<path d="M207.105 183.256L162.367 164.701L207.105 153.498L289.59 178.705L207.105 183.256Z" fill="#FBE216"/>
<path d="M139.646 220.367C119.234 231.85 91.2964 229.586 79.8789 227.019C107.84 237.102 132.073 228.886 140.694 223.518C140.345 222.818 140.345 221.767 139.646 220.367Z" fill="black"/>
<path d="M146.636 210.564C134.613 220.647 112.268 224.802 102.598 225.619C126.365 225.619 142.326 218.383 147.336 214.766C147.336 213.716 147.336 212.315 146.636 210.564Z" fill="black"/>
<path d="M203.957 140.194L201.161 138.094C201.161 151.257 199.064 183.956 198.016 198.661C198.016 198.661 202.909 167.502 203.957 140.194Z" fill="black"/>
<path d="M198.714 152.099L195.918 149.998C196.617 170.654 194.52 205.663 194.52 205.663C194.52 205.663 199.063 161.668 198.714 152.099Z" fill="black"/>
<path d="M136.851 107.286L77.4336 99.2334C101.317 109.153 149.364 128.992 150.482 128.992C151.601 128.992 141.861 114.521 136.851 107.286Z" fill="#284CF0"/>
<path d="M130.906 152.799L197.664 23.9629C203.722 39.1338 222.13 69.8256 194.867 110.087C174.37 140.358 145.236 152.098 130.906 152.799Z" fill="#CAEF5C"/>
<path d="M107.84 180.685L180.09 54.8576C185.488 70.2764 202.555 101.736 173.583 140.78C151.799 170.137 122.187 180.606 107.84 180.685Z" fill="#5322E6"/>
<path d="M112.035 197.261L96.6562 190.959L148.035 136.344L112.035 197.261Z" fill="#FBE216"/>
</svg>
