<svg width="30" height="27" viewBox="0 0 30 27" fill="none" xmlns="http://www.w3.org/2000/svg">
<path d="M1.84729 15.4219L1.94453 15.2759L8.26544 5.40027C8.36269 5.25433 8.55717 5.25433 8.65442 5.44892C9.72411 7.83271 10.5993 10.7516 10.2103 12.6003C10.0158 13.3787 9.52962 14.4003 8.94616 15.3246C8.89753 15.4705 8.80029 15.6165 8.70304 15.7138C8.65442 15.7624 8.6058 15.8111 8.50855 15.8111H1.99316C1.84729 15.7624 1.75004 15.5678 1.84729 15.4219Z" fill="white"/>
<path d="M30 17.2703V18.827C30 18.9243 29.9514 18.973 29.8541 19.0216C29.3679 19.2162 27.6661 19.9946 26.9854 20.9676C25.1864 23.4486 23.825 27 20.8104 27H8.11993C3.64668 27 0 23.3514 0 18.827V18.6811C0 18.5838 0.0972455 18.4865 0.19449 18.4865H7.34198C7.48784 18.4865 7.58509 18.6324 7.58509 18.7297C7.53647 19.1676 7.63371 19.654 7.8282 20.0919C8.2658 20.9676 9.141 21.4541 10.0648 21.4541H13.5656V18.7297H10.1134C9.91896 18.7297 9.82172 18.5351 9.91896 18.3892C9.96758 18.3405 10.0162 18.2919 10.0648 18.1946C10.4052 17.7081 10.8428 17.027 11.329 16.2C11.6694 15.6649 11.9611 15.0324 12.2042 14.4486C12.2528 14.3513 12.3015 14.2541 12.3501 14.1081C12.3987 13.9135 12.4959 13.7189 12.5446 13.573C12.5932 13.427 12.6418 13.2811 12.6904 13.1351C12.7877 12.6486 12.8363 12.1135 12.8363 11.5297C12.8363 11.3351 12.8363 11.0919 12.7877 10.8486C12.7877 10.6054 12.7391 10.3622 12.7391 10.1189C12.7391 9.92432 12.6904 9.68108 12.6418 9.48649C12.5932 9.14595 12.5446 8.85405 12.4473 8.51351L12.3987 8.41621C12.3501 8.22162 12.3015 7.97838 12.2042 7.78378C12.0097 7.1027 11.7666 6.42162 11.5235 5.83784C11.4263 5.59459 11.329 5.35135 11.2318 5.10811C11.0859 4.76757 10.94 4.42703 10.7942 4.13514C10.7455 3.98919 10.6483 3.89189 10.5997 3.74594C10.5511 3.6 10.4538 3.45405 10.4052 3.3081C10.3566 3.2108 10.3079 3.11351 10.2593 3.01621L9.82172 2.23783C9.77309 2.14054 9.87034 1.99459 9.96758 2.04324L12.6418 2.77297L12.9822 2.87027L13.3711 2.96756L13.517 3.01621V1.41081C13.517 0.632429 14.1491 0 14.8784 0C15.2674 0 15.6078 0.14594 15.8509 0.389183C16.094 0.632427 16.2399 0.972967 16.2399 1.36216V3.69729L16.5316 3.79459C16.5316 3.79459 16.5802 3.79459 16.5802 3.84324C16.6288 3.89189 16.7261 3.98919 16.872 4.08648C16.9692 4.18378 17.0665 4.28108 17.2123 4.37838C17.4554 4.57297 17.7958 4.86486 18.1361 5.15675C18.2334 5.25405 18.3306 5.3027 18.3793 5.4C18.8169 5.78919 19.3031 6.27568 19.7893 6.81081C19.9352 6.95676 20.0324 7.1027 20.1783 7.24865C20.3241 7.39459 20.4214 7.58919 20.5673 7.73513C20.7131 7.92973 20.9076 8.17297 21.0535 8.36757C21.1021 8.46486 21.1994 8.56216 21.248 8.70811C21.4425 9 21.5883 9.29189 21.7828 9.58378C21.8314 9.72973 21.9287 9.87567 21.9773 10.0216C22.1718 10.4108 22.3177 10.8 22.3663 11.2378C22.4149 11.3351 22.4149 11.4324 22.4149 11.4811C22.4635 11.5784 22.4635 11.7243 22.4635 11.8703C22.5122 12.3081 22.4635 12.6973 22.4149 13.1351C22.3663 13.3297 22.3177 13.4757 22.269 13.6703C22.2204 13.8162 22.1718 14.0108 22.0746 14.2054C21.9287 14.5459 21.7342 14.8865 21.5397 15.227C21.4911 15.3243 21.3938 15.4703 21.2966 15.6162C21.1993 15.7622 21.1021 15.8595 21.0535 16.0054C20.9562 16.1513 20.8104 16.2973 20.7131 16.4432C20.6159 16.5892 20.5186 16.7351 20.3728 16.8811C20.2269 17.0757 20.0324 17.2703 19.8865 17.4649C19.7893 17.5622 19.6921 17.7081 19.5462 17.8054C19.4489 17.9027 19.3517 18.0486 19.2058 18.1459C19.06 18.2919 18.9141 18.4378 18.7682 18.5351L18.4765 18.7784C18.4279 18.827 18.3793 18.827 18.3306 18.827H16.1912V21.5513H18.8655C19.4489 21.5513 20.0324 21.3568 20.47 20.9676C20.6159 20.8216 21.2966 20.2378 22.1232 19.3622C22.1718 19.3135 22.1718 19.3135 22.2204 19.3135L29.611 17.173C29.9028 17.027 30 17.1243 30 17.2703Z" fill="white"/>
</svg>
