<svg width="1920" height="1200" viewBox="0 0 1920 1200" fill="none" xmlns="http://www.w3.org/2000/svg">
<path d="M141.316 1024.7C141.196 1024.68 92 1004.5 92 1004.5L71.5017 930.931L141.316 1024.7Z" fill="#FBB14B"/>
<path d="M618.971 958L615 964.291L624.581 974.202L618.971 958Z" fill="#FBB14B"/>
<path d="M281 576.387L321 568L309.298 581L281 576.387Z" fill="#8DC63F"/>
<path d="M1268 209.387L1308 201L1296.3 214L1268 209.387Z" fill="#8DC63F"/>
<path d="M1650.87 765L1651.73 788.096L1604 838.166L1650.87 765Z" fill="#FBB14B"/>
<path d="M974.176 532.824L996.451 538.987L1029.74 599.629L974.176 532.824Z" fill="#FBB14B"/>
<path d="M1188.47 1009.06L1200.77 989.5L1268.43 975.053L1188.47 1009.06Z" fill="#FBB14B"/>
<path d="M1518.62 239.453C1518.75 239.475 1563.99 248.825 1563.99 248.825L1587.82 333.682L1518.62 239.453Z" fill="#509ABA"/>
<path d="M559 398.191C559.12 398.213 604.37 407.563 604.37 407.563L628.196 492.421L559 398.191Z" fill="#509ABA"/>
<path d="M1863.38 420L1826 435.167L1842.31 454.816C1842.31 454.816 1858.97 439.993 1858.97 438.959C1858.89 437.925 1863.38 420 1863.38 420Z" fill="#98034B"/>
<path d="M1670.5 1187C1670.5 1187 1606.5 1219 1570.5 1195C1534.5 1171 1530 1119 1530 1119L1670.5 1187Z" fill="#98034B"/>
<path d="M960.5 906C960.5 906 896.5 938 860.5 914C824.5 890 820 838 820 838L960.5 906Z" fill="#98034B"/>
<path d="M366.298 90C366.298 90 385.877 118.825 366.298 151.443C346.719 184.06 295 201 295 201L366.298 90Z" fill="#98034B"/>
</svg>
