<svg width="2000" height="1600" viewBox="0 0 2000 1600" fill="none" xmlns="http://www.w3.org/2000/svg">
<path d="M1022.28 868.151L1217.12 722.647C1216.99 752.009 1213.56 809.324 1166.08 845.767C1112.4 886.963 1056.67 872.368 1022.28 868.151Z" fill="#D34E1E"/>
<path d="M117.141 207.422L228.852 124C228.774 140.834 226.805 173.695 199.583 194.589C168.81 218.208 136.854 209.84 117.141 207.422Z" fill="#D34E1E"/>
<path d="M1651.94 1448.88L1801.79 1519.89C1784.05 1529.17 1748.41 1545.39 1711.3 1528.4C1669.35 1509.19 1660.37 1470.94 1651.94 1448.88Z" fill="#D34E1E"/>
<path d="M1498.31 1113.5C1498.19 1113.48 1459.06 1092.45 1459.06 1092.45L1428.5 1021.34L1498.31 1113.5Z" fill="#81A943"/>
<path d="M913.971 362.937L910 369.119L919.581 378.859L913.971 362.937Z" fill="#724A69"/>
<path d="M1651.97 1318.22L1648 1324.4L1657.58 1334.14L1651.97 1318.22Z" fill="#6BEC57"/>
<path d="M538.971 1075.47L535 1081.65L544.581 1091.39L538.971 1075.47Z" fill="#EFED0D"/>
<path d="M1124.97 1440L1121 1446.18L1130.58 1455.92L1124.97 1440Z" fill="#EFED0D"/>
<path d="M399 762.393L415.228 759.005L410.48 764.256L399 762.393Z" fill="#6BEC57"/>
<path d="M380 277.947L399.322 288.961L398.546 245L380 277.947Z" fill="#6BEC57"/>
<path d="M580.871 522.149V560.479L534 594.057L580.871 522.149Z" fill="#EFED0D"/>
<path d="M1067.48 198.777L1029.57 204.482L989.394 163.132L1067.48 198.777Z" fill="#EFED0D"/>
<path d="M1405 313.796C1405.09 313.881 1424.85 353.18 1424.85 353.18L1408.37 428.645L1405 313.796Z" fill="#724A69"/>
<path d="M1802.16 805.07L1779.07 805.918L1729 759.005L1802.16 805.07Z" fill="#EFED0D"/>
<path d="M195 1079.78L299 994.877L215 1175.71L195 1079.78Z" fill="#724A69"/>
<path d="M1698 192.9L1802 108L1718 288.835L1698 192.9Z" fill="#724A69"/>
<path d="M220.578 1092.06L221.801 1079.64C232.483 1108.79 260.298 1159.92 260.298 1159.92C260.298 1159.92 234.407 1122.95 220.578 1092.06Z" fill="black"/>
<path d="M232.467 1087.58L234.932 1074.48C244.653 1104.09 287.123 1191.24 287.123 1191.24C287.123 1191.24 245.638 1118.75 232.467 1087.58Z" fill="black"/>
<path d="M660.673 1261.97L739.25 1338.4C725.878 1340.21 699.574 1342.33 679.978 1323.77C657.825 1302.78 660.934 1277.36 660.673 1261.97Z" fill="#81A943"/>
<path d="M165.251 1511.89L259.547 1456C257.795 1469.38 252.977 1495.32 229.941 1509.39C203.901 1525.3 180.167 1515.66 165.251 1511.89Z" fill="#81A943"/>
</svg>
