<svg width="1920" height="1202" viewBox="0 0 1920 1202" fill="none" xmlns="http://www.w3.org/2000/svg">
<path d="M98.5391 1098.58C98.397 1098.56 52.1118 1073.24 52.1118 1073.24L15.9679 987.696L98.5391 1098.58Z" fill="#D44197"/>
<path d="M927.22 137.565L922.523 145.005L933.855 156.724L927.22 137.565Z" fill="#D44197"/>
<path d="M916.571 692.155L911.875 699.594L923.207 711.314L916.571 692.155Z" fill="#C8BEC2"/>
<path d="M571.22 1176.98L566.523 1184.42L577.855 1196.14L571.22 1176.98Z" fill="#182554"/>
<path d="M41.3984 573.251L60.5915 569.175L54.9765 575.493L41.3984 573.251Z" fill="#D44197"/>
<path d="M307.508 35.3084L318.534 36.7351L317.615 -4.33301L307.508 35.3084Z" fill="#267647"/>
<path d="M1068.46 245.123L1084.74 274.276L1182.79 198.033L1068.46 245.123Z" fill="#1F294D"/>
<path d="M1920 495.862L1875.8 513.798L1895.09 537.032C1895.09 537.032 1914.8 519.504 1914.8 518.282C1914.69 517.059 1920 495.862 1920 495.862Z" fill="#182554"/>
<path d="M1891.02 804.491L1892.04 831.802L1835.59 891.009L1891.02 804.491Z" fill="#267647"/>
<path d="M604.608 1068.67L606 1105.92L529 1186.67L604.608 1068.67Z" fill="#182554"/>
<path d="M1811.93 223.89C1812.03 223.992 1835.41 271.276 1835.41 271.276L1815.91 362.074L1811.93 223.89Z" fill="#D44197"/>
<path d="M1229 1001.44C1229.14 1001.43 1270.35 990.102 1301.59 1013.5C1332.83 1036.9 1333.64 1091.8 1333.64 1091.8L1229 1001.44Z" fill="#D44197"/>
<path d="M681.844 362.241C681.784 362.372 656.166 414.219 656.166 414.219L553.721 414.219L681.844 362.241Z" fill="#267647"/>
<path d="M1699.77 1214.02L1672.45 1215.04L1613.23 1158.6L1699.77 1214.02Z" fill="#267647"/>
<path d="M475.531 832.092L448.215 833.112L388.997 776.667L475.531 832.092Z" fill="#267647"/>
</svg>
