<svg width="1920" height="1200" viewBox="0 0 1920 1200" fill="none" xmlns="http://www.w3.org/2000/svg">
<path d="M729 1072.99L766 1065.84L755.176 1076.93L729 1072.99Z" fill="#70A02D"/>
<path d="M893.414 487.079L871.001 456.783L885.673 461.767L893.414 487.079Z" fill="#395A0B"/>
<path d="M174.64 322.807L197.861 352.487L183.061 347.901L174.64 322.807Z" fill="#D1B62A"/>
<path d="M794.609 838.058C794.658 837.946 797.777 800.3 821.497 787.293C845.217 774.287 895.746 791.681 895.746 791.681L794.609 838.058Z" fill="#5F9F43"/>
<path d="M-40 1071.14L344.525 818L281.274 997.012L-40 1071.14Z" fill="#5F9F43"/>
<path d="M1382.8 627.604L1755.73 897.542L1565.92 901.795L1382.8 627.604Z" fill="#D1B62A"/>
<path d="M143.836 912.383L261.836 889.137L227.315 925.168L143.836 912.383Z" fill="#395A0B"/>
<path d="M1596.38 743.292L1659.91 845.409L1613.99 825.888L1596.38 743.292Z" fill="#395A0B"/>
<path d="M560.956 951.233L624.489 1053.35L578.567 1033.83L560.956 951.233Z" fill="#395A0B"/>
<path d="M656 382.175L687 385.866L684.417 279.62L656 382.175Z" fill="#D1B72A"/>
<path d="M285 53.9837L542.518 108L685 -212L285 53.9837Z" fill="#B6D789"/>
<path d="M821.992 75.9417L833.158 160.212L1050.39 -62.6367L821.992 75.9417Z" fill="#5F9F43"/>
<path d="M1514.03 227.771L1452.76 238.936L1623.55 389.981L1514.03 227.771Z" fill="#5F9F43"/>
<path d="M1640 1260C1653.26 1195.66 1624.87 1169.48 1624.87 1169.48L1513.4 1368.38C1513.4 1368.38 1626.75 1324.34 1640 1260Z" fill="#5F9F43"/>
<path d="M1032.62 -72L1492.98 35.211L1634.08 -62.6366L1032.62 -72Z" fill="#395A0B"/>
<path d="M797.875 1288.3C798.047 1287.92 803.072 1157.61 895.745 1111.29C988.417 1064.97 1194.82 1122.2 1194.82 1122.2L797.875 1288.3Z" fill="#5F9F43"/>
</svg>
