<svg width="915" height="914" viewBox="0 0 915 914" fill="none" xmlns="http://www.w3.org/2000/svg">
<path d="M0.390625 0H60.3906V60H0.390625V0Z" fill="#E89433"/>
<path d="M61.3906 0H121.391V60H61.3906V0Z" fill="#E89433"/>
<path d="M122.391 0H182.391V60H122.391V0Z" fill="#E89433"/>
<path d="M183.391 0H243.391V60H183.391V0Z" fill="#E89433"/>
<path d="M244.391 0H304.391V60H244.391V0Z" fill="#E89433"/>
<path d="M305.391 0H365.391V60H305.391V0Z" fill="#E89433"/>
<path d="M366.391 0H426.391V60H366.391V0Z" fill="#E89433"/>
<path d="M427.391 0H487.391V60H427.391V0Z" fill="#EA5519"/>
<path d="M488.391 0H548.391V60H488.391V0Z" fill="#D34530"/>
<path d="M549.391 0H609.391V60H549.391V0Z" fill="#E89433"/>
<path d="M610.391 0H670.391V60H610.391V0Z" fill="#E89433"/>
<path d="M671.391 0H731.391V60H671.391V0Z" fill="#E89433"/>
<path d="M732.391 0H792.391V60H732.391V0Z" fill="#E89433"/>
<path d="M793.391 0H853.391V60H793.391V0Z" fill="#E89433"/>
<path d="M854.391 0H914.391V60H854.391V0Z" fill="#E89433"/>
<path d="M0.390625 61H60.3906V121H0.390625V61Z" fill="#E89433"/>
<path d="M61.3906 61H121.391V121H61.3906V61Z" fill="#E89433"/>
<path d="M122.391 61H182.391V121H122.391V61Z" fill="#E89433"/>
<path d="M183.391 61H243.391V121H183.391V61Z" fill="#E89433"/>
<path d="M244.391 61H304.391V121H244.391V61Z" fill="#E87B30"/>
<path d="M305.391 61H365.391V121H305.391V61Z" fill="#EE6F35"/>
<path d="M366.391 61H426.391V121H366.391V61Z" fill="#F44B36"/>
<path d="M427.391 61H487.391V121H427.391V61Z" fill="#A02450"/>
<path d="M488.391 61H548.391V121H488.391V61Z" fill="#BC2974"/>
<path d="M549.391 61H609.391V121H549.391V61Z" fill="#BC2974"/>
<path d="M610.391 61H670.391V121H610.391V61Z" fill="#D15858"/>
<path d="M671.391 61H731.391V121H671.391V61Z" fill="#E89433"/>
<path d="M732.391 61H792.391V121H732.391V61Z" fill="#E89433"/>
<path d="M793.391 61H853.391V121H793.391V61Z" fill="#E89433"/>
<path d="M854.391 61H914.391V121H854.391V61Z" fill="#E89433"/>
<path d="M0.390625 122H60.3906V182H0.390625V122Z" fill="#E89433"/>
<path d="M61.3906 122H121.391V182H61.3906V122Z" fill="#E89433"/>
<path d="M122.391 122H182.391V182H122.391V122Z" fill="#E89433"/>
<path d="M183.391 122H243.391V182H183.391V122Z" fill="#E87B30"/>
<path d="M244.391 122H304.391V182H244.391V122Z" fill="#EE6F35"/>
<path d="M305.391 122H365.391V182H305.391V122Z" fill="#F44B36"/>
<path d="M366.391 122H426.391V182H366.391V122Z" fill="#A02450"/>
<path d="M427.391 122H487.391V182H427.391V122Z" fill="#A02450"/>
<path d="M488.391 122H548.391V182H488.391V122Z" fill="#A02450"/>
<path d="M549.391 122H609.391V182H549.391V122Z" fill="#581B71"/>
<path d="M610.391 122H670.391V182H610.391V122Z" fill="#A05752"/>
<path d="M671.391 122H731.391V182H671.391V122Z" fill="#CC7B40"/>
<path d="M732.391 122H792.391V182H732.391V122Z" fill="#E89433"/>
<path d="M793.391 122H853.391V182H793.391V122Z" fill="#E89433"/>
<path d="M854.391 122H914.391V182H854.391V122Z" fill="#E89433"/>
<path d="M0.390625 183H60.3906V243H0.390625V183Z" fill="#E89433"/>
<path d="M61.3906 183H121.391V243H61.3906V183Z" fill="#E89433"/>
<path d="M122.391 183H182.391V243H122.391V183Z" fill="#E4893A"/>
<path d="M183.391 183H243.391V243H183.391V183Z" fill="#E07E40"/>
<path d="M244.391 183H304.391V243H244.391V183Z" fill="#D25E54"/>
<path d="M305.391 183H365.391V243H305.391V183Z" fill="#BC2974"/>
<path d="M366.391 183H426.391V243H366.391V183Z" fill="#A02450"/>
<path d="M427.391 183H487.391V243H427.391V183Z" fill="#A02450"/>
<path d="M488.391 183H548.391V243H488.391V183Z" fill="#A02450"/>
<path d="M549.391 183H609.391V243H549.391V183Z" fill="#A02450"/>
<path d="M610.391 183H670.391V243H610.391V183Z" fill="#581B71"/>
<path d="M671.391 183H731.391V243H671.391V183Z" fill="#A05752"/>
<path d="M732.391 183H792.391V243H732.391V183Z" fill="#CC7B40"/>
<path d="M793.391 183H853.391V243H793.391V183Z" fill="#E89433"/>
<path d="M854.391 183H914.391V243H854.391V183Z" fill="#E89433"/>
<path d="M0.390625 244H60.3906V304H0.390625V244Z" fill="#E89433"/>
<path d="M61.3906 244H121.391V304H61.3906V244Z" fill="#E89433"/>
<path d="M122.391 244H182.391V304H122.391V244Z" fill="#D15858"/>
<path d="M183.391 244H243.391V304H183.391V244Z" fill="#BC2974"/>
<path d="M244.391 244H304.391V304H244.391V244Z" fill="#D25E54"/>
<path d="M305.391 244H365.391V304H305.391V244Z" fill="#3B3364"/>
<path d="M366.391 244H426.391V304H366.391V244Z" fill="#3B3364"/>
<path d="M427.391 244H487.391V304H427.391V244Z" fill="#656792"/>
<path d="M488.391 244H548.391V304H488.391V244Z" fill="#7590AA"/>
<path d="M549.391 244H609.391V304H549.391V244Z" fill="#A02450"/>
<path d="M610.391 244H670.391V304H610.391V244Z" fill="#A05752"/>
<path d="M671.391 244H731.391V304H671.391V244Z" fill="#CC7B40"/>
<path d="M732.391 244H792.391V304H732.391V244Z" fill="#E89433"/>
<path d="M793.391 244H853.391V304H793.391V244Z" fill="#E89433"/>
<path d="M854.391 244H914.391V304H854.391V244Z" fill="#E89433"/>
<path d="M0.390625 305H60.3906V365H0.390625V305Z" fill="#E89433"/>
<path d="M61.3906 305H121.391V365H61.3906V305Z" fill="#DA7D39"/>
<path d="M122.391 305H182.391V365H122.391V305Z" fill="#C45C42"/>
<path d="M183.391 305H243.391V365H183.391V305Z" fill="#A02450"/>
<path d="M244.391 305H304.391V365H244.391V305Z" fill="#C63471"/>
<path d="M305.391 305H365.391V365H305.391V305Z" fill="#3B3364"/>
<path d="M366.391 305H426.391V365H366.391V305Z" fill="#4891D8"/>
<path d="M427.391 305H487.391V365H427.391V305Z" fill="#ADE9FD"/>
<path d="M488.391 305H548.391V365H488.391V305Z" fill="#B0EEEF"/>
<path d="M549.391 305H609.391V365H549.391V305Z" fill="#A02450"/>
<path d="M610.391 305H670.391V365H610.391V305Z" fill="#C45C42"/>
<path d="M671.391 305H731.391V365H671.391V305Z" fill="#D3733C"/>
<path d="M732.391 305H792.391V365H732.391V305Z" fill="#DA7D39"/>
<path d="M793.391 305H853.391V365H793.391V305Z" fill="#E89433"/>
<path d="M854.391 305H914.391V365H854.391V305Z" fill="#E89433"/>
<path d="M0.390625 366H60.3906V426H0.390625V366Z" fill="#E89433"/>
<path d="M61.3906 366H121.391V426H61.3906V366Z" fill="#E89433"/>
<path d="M122.391 366H182.391V426H122.391V366Z" fill="#DA7D39"/>
<path d="M183.391 366H243.391V426H183.391V366Z" fill="#C45C42"/>
<path d="M244.391 366H304.391V426H244.391V366Z" fill="#BB91B0"/>
<path d="M305.391 366H365.391V426H305.391V366Z" fill="#ADE9FD"/>
<path d="M366.391 366H426.391V426H366.391V366Z" fill="#8D6891"/>
<path d="M427.391 366H487.391V426H427.391V366Z" fill="#ADE9FD"/>
<path d="M488.391 366H548.391V426H488.391V366Z" fill="#4891D8"/>
<path d="M549.391 366H609.391V426H549.391V366Z" fill="#A889A0"/>
<path d="M610.391 366H670.391V426H610.391V366Z" fill="#C45C42"/>
<path d="M671.391 366H731.391V426H671.391V366Z" fill="#DA7D39"/>
<path d="M732.391 366H792.391V426H732.391V366Z" fill="#E89433"/>
<path d="M793.391 366H853.391V426H793.391V366Z" fill="#E89433"/>
<path d="M854.391 366H914.391V426H854.391V366Z" fill="#E89433"/>
<path d="M0.390625 427H60.3906V487H0.390625V427Z" fill="#E89433"/>
<path d="M61.3906 427H121.391V487H61.3906V427Z" fill="#E89433"/>
<path d="M122.391 427H182.391V487H122.391V427Z" fill="#E89433"/>
<path d="M183.391 427H243.391V487H183.391V427Z" fill="#DA7D39"/>
<path d="M244.391 427H304.391V487H244.391V427Z" fill="#BCDFDB"/>
<path d="M305.391 427H365.391V487H305.391V427Z" fill="#D6F1FF"/>
<path d="M366.391 427H426.391V487H366.391V427Z" fill="#C6CCEA"/>
<path d="M427.391 427H487.391V487H427.391V427Z" fill="#ADE9FD"/>
<path d="M488.391 427H548.391V487H488.391V427Z" fill="#C0DCFA"/>
<path d="M549.391 427H609.391V487H549.391V427Z" fill="#D4EFFF"/>
<path d="M610.391 427H670.391V487H610.391V427Z" fill="#DA7D39"/>
<path d="M671.391 427H731.391V487H671.391V427Z" fill="#C45C42"/>
<path d="M732.391 427H792.391V487H732.391V427Z" fill="#E89433"/>
<path d="M793.391 427H853.391V487H793.391V427Z" fill="#E89433"/>
<path d="M854.391 427H914.391V487H854.391V427Z" fill="#E89433"/>
<path d="M0.390625 488H60.3906V548H0.390625V488Z" fill="#E89433"/>
<path d="M61.3906 488H121.391V548H61.3906V488Z" fill="#E89433"/>
<path d="M122.391 488H182.391V548H122.391V488Z" fill="#E89433"/>
<path d="M183.391 488H243.391V548H183.391V488Z" fill="#E4893A"/>
<path d="M244.391 488H304.391V548H244.391V488Z" fill="#DA7D39"/>
<path d="M305.391 488H365.391V548H305.391V488Z" fill="#8DC2F7"/>
<path d="M366.391 488H426.391V548H366.391V488Z" fill="#A7CEF7"/>
<path d="M427.391 488H487.391V548H427.391V488Z" fill="#8DC2F7"/>
<path d="M488.391 488H548.391V548H488.391V488Z" fill="#A7CEF7"/>
<path d="M549.391 488H609.391V548H549.391V488Z" fill="#C8D7DC"/>
<path d="M610.391 488H670.391V548H610.391V488Z" fill="#E89433"/>
<path d="M671.391 488H731.391V548H671.391V488Z" fill="#E89433"/>
<path d="M732.391 488H792.391V548H732.391V488Z" fill="#E89433"/>
<path d="M793.391 488H853.391V548H793.391V488Z" fill="#E89433"/>
<path d="M854.391 488H914.391V548H854.391V488Z" fill="#E89433"/>
<path d="M0.390625 549H60.3906V609H0.390625V549Z" fill="#E89433"/>
<path d="M61.3906 549H121.391V609H61.3906V549Z" fill="#ADE9FD"/>
<path d="M122.391 549H182.391V609H122.391V549Z" fill="#D0A66C"/>
<path d="M183.391 549H243.391V609H183.391V549Z" fill="#E89433"/>
<path d="M244.391 549H304.391V609H244.391V549Z" fill="#DA7D39"/>
<path d="M305.391 549H365.391V609H305.391V549Z" fill="#4891D8"/>
<path d="M366.391 549H426.391V609H366.391V549Z" fill="#ADE9FD"/>
<path d="M427.391 549H487.391V609H427.391V549Z" fill="#8D6891"/>
<path d="M488.391 549H548.391V609H488.391V549Z" fill="#ADE9FD"/>
<path d="M549.391 549H609.391V609H549.391V549Z" fill="#7EA8C0"/>
<path d="M610.391 549H670.391V609H610.391V549Z" fill="#E89433"/>
<path d="M671.391 549H731.391V609H671.391V549Z" fill="#E89433"/>
<path d="M732.391 549H792.391V609H732.391V549Z" fill="#E89433"/>
<path d="M793.391 549H853.391V609H793.391V549Z" fill="#E89433"/>
<path d="M854.391 549H914.391V609H854.391V549Z" fill="#E89433"/>
<path d="M0.390625 610H60.3906V670H0.390625V610Z" fill="#E89433"/>
<path d="M61.3906 610H121.391V670H61.3906V610Z" fill="#ADE9FD"/>
<path d="M122.391 610H182.391V670H122.391V610Z" fill="#D0A66C"/>
<path d="M183.391 610H243.391V670H183.391V610Z" fill="#E89433"/>
<path d="M244.391 610H304.391V670H244.391V610Z" fill="#E89433"/>
<path d="M305.391 610H365.391V670H305.391V610Z" fill="#DA7D39"/>
<path d="M366.391 610H426.391V670H366.391V610Z" fill="#8DC2F7"/>
<path d="M427.391 610H487.391V670H427.391V610Z" fill="#8DC2F7"/>
<path d="M488.391 610H548.391V670H488.391V610Z" fill="#AFD6FB"/>
<path d="M549.391 610H609.391V670H549.391V610Z" fill="#7EA8C0"/>
<path d="M610.391 610H670.391V670H610.391V610Z" fill="#E89433"/>
<path d="M671.391 610H731.391V670H671.391V610Z" fill="#E89433"/>
<path d="M732.391 610H792.391V670H732.391V610Z" fill="#E89433"/>
<path d="M793.391 610H853.391V670H793.391V610Z" fill="#E89433"/>
<path d="M854.391 610H914.391V670H854.391V610Z" fill="#E89433"/>
<path d="M0.390625 671H60.3906V731H0.390625V671Z" fill="#E89433"/>
<path d="M61.3906 671H121.391V731H61.3906V671Z" fill="#DA7D39"/>
<path d="M122.391 671H182.391V731H122.391V671Z" fill="#E4893A"/>
<path d="M183.391 671H243.391V731H183.391V671Z" fill="#E89433"/>
<path d="M244.391 671H304.391V731H244.391V671Z" fill="#E89433"/>
<path d="M305.391 671H365.391V731H305.391V671Z" fill="#E4893A"/>
<path d="M366.391 671H426.391V731H366.391V671Z" fill="#BDE0F5"/>
<path d="M427.391 671H487.391V731H427.391V671Z" fill="#A3DAFF"/>
<path d="M488.391 671H548.391V731H488.391V671Z" fill="#B7EEFF"/>
<path d="M549.391 671H609.391V731H549.391V671Z" fill="#7597BD"/>
<path d="M610.391 671H670.391V731H610.391V671Z" fill="#E89433"/>
<path d="M671.391 671H731.391V731H671.391V671Z" fill="#A02450"/>
<path d="M732.391 671H792.391V731H732.391V671Z" fill="#C45C42"/>
<path d="M793.391 671H853.391V731H793.391V671Z" fill="#DA7D39"/>
<path d="M854.391 671H914.391V731H854.391V671Z" fill="#E89433"/>
<path d="M0.390625 732H60.3906V792H0.390625V732Z" fill="#E89433"/>
<path d="M61.3906 732H121.391V792H61.3906V732Z" fill="#E89433"/>
<path d="M122.391 732H182.391V792H122.391V732Z" fill="#E89433"/>
<path d="M183.391 732H243.391V792H183.391V732Z" fill="#E89433"/>
<path d="M244.391 732H304.391V792H244.391V732Z" fill="#E89433"/>
<path d="M305.391 732H365.391V792H305.391V732Z" fill="#E89433"/>
<path d="M366.391 732H426.391V792H366.391V732Z" fill="#CFC199"/>
<path d="M427.391 732H487.391V792H427.391V732Z" fill="#A3DFFF"/>
<path d="M488.391 732H548.391V792H488.391V732Z" fill="#6FB3F8"/>
<path d="M549.391 732H609.391V792H549.391V732Z" fill="#E89433"/>
<path d="M610.391 732H670.391V792H610.391V732Z" fill="#C45C42"/>
<path d="M671.391 732H731.391V792H671.391V732Z" fill="#A02450"/>
<path d="M732.391 732H792.391V792H732.391V732Z" fill="#DA7D39"/>
<path d="M793.391 732H853.391V792H793.391V732Z" fill="#E89433"/>
<path d="M854.391 732H914.391V792H854.391V732Z" fill="#E89433"/>
<path d="M0.390625 793H60.3906V853H0.390625V793Z" fill="#E89433"/>
<path d="M61.3906 793H121.391V853H61.3906V793Z" fill="#E89433"/>
<path d="M122.391 793H182.391V853H122.391V793Z" fill="#DA7D39"/>
<path d="M183.391 793H243.391V853H183.391V793Z" fill="#C45C42"/>
<path d="M244.391 793H304.391V853H244.391V793Z" fill="#C45C42"/>
<path d="M305.391 793H365.391V853H305.391V793Z" fill="#DA7D39"/>
<path d="M366.391 793H426.391V853H366.391V793Z" fill="#DFA65C"/>
<path d="M427.391 793H487.391V853H427.391V793Z" fill="#97EBFF"/>
<path d="M488.391 793H548.391V853H488.391V793Z" fill="#6F89AA"/>
<path d="M549.391 793H609.391V853H549.391V793Z" fill="#E89433"/>
<path d="M610.391 793H670.391V853H610.391V793Z" fill="#DA7D39"/>
<path d="M671.391 793H731.391V853H671.391V793Z" fill="#C45C42"/>
<path d="M732.391 793H792.391V853H732.391V793Z" fill="#DA7D39"/>
<path d="M793.391 793H853.391V853H793.391V793Z" fill="#E89433"/>
<path d="M854.391 793H914.391V853H854.391V793Z" fill="#E89433"/>
<path d="M0.390625 854H60.3906V914H0.390625V854Z" fill="#E89433"/>
<path d="M61.3906 854H121.391V914H61.3906V854Z" fill="#E89433"/>
<path d="M122.391 854H182.391V914H122.391V854Z" fill="#E89433"/>
<path d="M183.391 854H243.391V914H183.391V854Z" fill="#DA7D39"/>
<path d="M244.391 854H304.391V914H244.391V854Z" fill="#DA7D39"/>
<path d="M305.391 854H365.391V914H305.391V854Z" fill="#E89433"/>
<path d="M366.391 854H426.391V914H366.391V854Z" fill="#E89433"/>
<path d="M427.391 854H487.391V914H427.391V854Z" fill="#CFC199"/>
<path d="M488.391 854H548.391V914H488.391V854Z" fill="#E89433"/>
<path d="M549.391 854H609.391V914H549.391V854Z" fill="#E89433"/>
<path d="M610.391 854H670.391V914H610.391V854Z" fill="#E89433"/>
<path d="M671.391 854H731.391V914H671.391V854Z" fill="#E89433"/>
<path d="M732.391 854H792.391V914H732.391V854Z" fill="#E89433"/>
<path d="M793.391 854H853.391V914H793.391V854Z" fill="#E89433"/>
<path d="M854.391 854H914.391V914H854.391V854Z" fill="#E89433"/>
</svg>
