<svg width="400" height="400" viewBox="0 0 400 400" fill="none" xmlns="http://www.w3.org/2000/svg">
<path d="M0 0H400V186H0V0Z" fill="#141924"/>
<mask id="mask0_795_126140" style="mask-type:alpha" maskUnits="userSpaceOnUse" x="0" y="0" width="400" height="186">
<path d="M0 0H400V186H0V0Z" fill="#181C25"/>
</mask>
<g mask="url(#mask0_795_126140)">
<path d="M145.588 195.043L128.417 222L99.6992 139.582L137.429 149.661L145.588 195.043Z" fill="#C3E4F8"/>
<path d="M144.786 204.909L173.823 152.275L169.157 114.252L128.842 149.502L144.786 204.909Z" fill="#5682B8"/>
<path d="M120.631 156.727L136.363 199.922L160.973 161.313V147.342L120.631 156.727Z" fill="#88B3DF"/>
<path d="M140.924 182.512L155.642 162.594L154.762 152.435L132.631 161.58L140.924 182.512Z" fill="#C3E4F8"/>
<path d="M79.9921 99.3462L89.7777 139.449L122.841 163.393L144.092 164.886L166.09 145.155L177.048 87.8274L164.143 38.526L94.4439 19.248L76.9258 49.1915L79.9921 99.3462Z" fill="#ACD2EF"/>
<path d="M162.6 208.401L198.222 170.832L225.526 173.285L162.6 208.401Z" fill="#74295E"/>
<path d="M207.232 190.43L238.189 177.871L235.123 185.524L207.232 190.43Z" fill="#A53794"/>
<path d="M88.2578 90.7607L90.9242 103.773L106.842 120.384L118.388 110.465L88.2578 90.7607Z" fill="#DDEDF9"/>
<path d="M96.3398 74.8427L129.536 82.6018L125.35 77.2957L102.579 73.5361L96.3398 74.8427Z" fill="#2B2329"/>
<path d="M143.402 82.0952L145.962 77.3757L163.64 72.5762L166.093 73.5361L143.402 82.0952Z" fill="#332732"/>
<path d="M145.801 90.761C145.801 90.761 150.227 82.6552 166.572 81.6953L164.465 88.1746L145.801 90.761Z" fill="#672467"/>
<path d="M104.548 88.9212L101.828 81.6953C101.828 81.6953 117 81.6153 124.919 91.5076L104.548 88.9212Z" fill="#5A266B"/>
<path d="M125.641 114.758L139.319 117.211L134.333 85.748L125.641 114.758Z" fill="#DDEDF9"/>
<path d="M141.055 107.719L143.401 116.384L146.147 113.745L141.055 107.719Z" fill="#5E8ABF"/>
<path d="M148.309 107.719L159.961 121.184L170.893 109.132L172.733 97.0801L148.309 107.719Z" fill="#DDEDF9"/>
<path d="M137.48 120.384L135.561 126.81L139.32 127.716L137.48 120.384Z" fill="#5E8ABF"/>
<path d="M159.348 129.37L154.762 150.914L164.254 140.995L169.16 119.664L159.348 129.37Z" fill="#5682B8"/>
<path d="M83.832 104.332L103.803 124.757L116.869 155.287L92.9777 139.368L83.832 104.332Z" fill="#5682B8"/>
<path d="M117.828 136.702L132.493 127.45L139.319 129.61L145.452 127.05L152.944 132.969L117.828 136.702Z" fill="#662873"/>
<path d="M117.828 136.703L131.427 142.035L137.826 139.769L144.092 140.809L152.944 132.97L117.828 136.703Z" fill="#6EA2CE"/>
<path d="M104.553 88.9211L113.378 95.4004L125.67 92.174C125.67 92.174 122.737 89.3477 115.725 87.8545C108.686 86.3347 104.553 88.9211 104.553 88.9211Z" fill="#BA2462"/>
<path d="M145.453 91.0812L156.812 93.5875L164.464 88.2015C164.464 88.2015 160.758 86.9483 155.559 87.4016C149.293 87.9082 145.453 91.0812 145.453 91.0812Z" fill="#BA2462"/>
<path d="M63.5953 127.023L24.6928 121.317L20 138.462L63.5953 127.023Z" fill="#A7CFE4"/>
<path d="M53.3301 176.778L91.5127 211.708L71.0882 179.445L53.3301 176.778Z" fill="#961E1F"/>
<path d="M179.904 101.586L157 44.6592C157 44.6592 173.265 51.4585 179.904 67.5901C188.063 87.4279 179.904 101.586 179.904 101.586Z" fill="#8F3B96"/>
<path d="M173.584 71.9092L192.035 103.772C192.035 103.772 193.875 93.6135 189.049 84.0412C183.53 73.1091 173.584 71.9092 173.584 71.9092Z" fill="#DB3327"/>
<path d="M127.484 50.3919L153.215 65.7769L195.157 70.2831L137.43 44.6592L127.484 50.3919Z" fill="#D7C086"/>
<path d="M205.501 61.1373L117.67 51.7783L138.788 30.1006L205.501 61.1373Z" fill="#DB3127"/>
<path d="M78.2083 -16.4542L76.9284 11.0361L69.7559 -21.0938L78.2083 -16.4542Z" fill="#C92127"/>
<path d="M53.4075 22.2343L35.916 22.2876L53.1675 13.1152L53.4075 22.2343Z" fill="#A6C1E2"/>
<path d="M195.152 80.4951L207.818 92.3339L222.776 89.6941L195.152 80.4951Z" fill="#4F2A5F"/>
<path d="M207.232 30.1006C207.632 30.2072 217.845 31.3271 217.845 31.3271L221.204 28.874L207.232 30.1006Z" fill="#8E2F92"/>
<path d="M193.049 2.23705H203.154L206.834 -15.1211L193.049 2.23705Z" fill="#D7C086"/>
<path d="M198.41 32.9537L110.873 59.3775C110.873 59.3775 116.046 30.9272 147.083 20.4483C178.119 9.96944 198.41 32.9537 198.41 32.9537Z" fill="#E14E4C"/>
<path d="M184.541 -2.0293L125.641 38.5264C125.641 38.5264 145.239 49.2986 166.543 32.9536C188.754 15.9421 184.541 -2.0293 184.541 -2.0293Z" fill="#312564"/>
<path d="M81.0614 7.22305L78.875 48.072L94.4467 -2.0293L81.0614 7.22305Z" fill="#2A2566"/>
<path d="M146.734 -28L84.6602 54.6578C84.6602 54.6578 112.551 60.8972 135.481 30.4204C158.412 -0.05632 146.734 -28 146.734 -28Z" fill="#D62B27"/>
<path d="M122.177 -3.78906L101.886 64.017C101.886 64.017 85.0345 48.392 89.914 27.1143C96.9799 -3.78906 122.177 -3.78906 122.177 -3.78906Z" fill="#E14F4B"/>
<path d="M142.603 -13.3086L110.873 51.7511C110.873 51.7511 129.938 53.3243 144.496 25.0606C155.935 2.87635 142.603 -13.3086 142.603 -13.3086Z" fill="#C12026"/>
<path d="M166.573 -17.5479L119.725 40.1793C119.725 40.1793 143.269 49.565 162.467 24.5277C181.665 -0.509673 166.573 -17.5479 166.573 -17.5479Z" fill="#BF3275"/>
<path d="M145.053 2.87695L92.8984 30.1007C92.8984 30.1007 109.537 42.846 128.575 31.9938C149.799 19.9151 145.053 2.87695 145.053 2.87695Z" fill="#843694"/>
<path d="M135.375 36.2334L142.468 32.0205L211.767 42.4994L182.89 54.7381L135.375 36.2334Z" fill="#995CA5"/>
<path d="M161.93 48.0723H87.3247L79.9922 76.4426L161.93 48.0723Z" fill="#2A266A"/>
<path d="M71.9418 20.4482L81.0608 92.4672C81.0608 92.4672 56.7968 93.7204 52.3439 65.2435C46.7978 30.1005 71.9418 20.4482 71.9418 20.4482Z" fill="#893C96"/>
<path d="M67.8103 67.1367L72.7431 82.8684L56.7715 100.227L67.8103 67.1367Z" fill="#D22027"/>
<path d="M107.777 15.1957L82.1528 99.3467C82.1528 99.3467 59.5952 82.4418 69.7541 49.7253C81.4062 12.236 107.777 15.1957 107.777 15.1957Z" fill="#C62D74"/>
<path d="M71.1137 73.5361L91.8049 123.637C91.8049 123.637 77.1131 125.397 68.5273 102.68C59.9416 79.9621 71.1137 73.5361 71.1137 73.5361Z" fill="#D7C086"/>
<path d="M76.9258 67.5899L103.59 38.793L111.962 43.4858L76.9258 67.5899Z" fill="#F39A32"/>
</g>
<path d="M245.276 114L246.981 109.381H255.785L257.459 114H262.512L254.855 93.23H248.097L240.44 114H245.276ZM249.678 102.003L251.259 97.322H251.569L253.088 102.003L254.266 105.227H248.5L249.678 102.003ZM273.476 114L279.552 98.407H274.468L270.748 109.536H270.407L266.687 98.407H261.51L267.555 114H273.476ZM284.5 114.31C287.383 114.31 288.964 113.039 289.801 111.892H289.987V114H294.296V104.762C294.296 100.608 291.878 98.097 287.29 98.097C282.888 98.097 280.005 100.546 280.005 104.266V104.607H284.438V104.266C284.438 102.685 285.182 102.158 287.073 102.158C288.902 102.158 289.894 102.499 289.894 104.328V104.824L284.562 105.63C281.338 106.126 279.602 107.614 279.602 110.032C279.602 112.853 281.741 114.31 284.5 114.31ZM284.035 109.66C284.035 109.009 284.469 108.699 285.43 108.544L289.894 107.862C289.894 110.28 287.941 110.776 286.05 110.776C284.686 110.776 284.035 110.497 284.035 109.66ZM304.124 114.062C305.209 114.062 306.418 113.907 307.162 113.752V109.877H305.24C303.225 109.877 302.76 109.722 302.76 108.358V102.251H307.162V98.407H302.76V94.78H299.102L298.234 98.407H295.63V102.251H298.11V108.885C298.11 112.574 300.063 114.062 304.124 114.062ZM313.624 96.64V93.23H309.005L309.067 96.64H313.624ZM313.717 114V98.407H309.067V114H313.717ZM330.607 114V109.939H323.632L321.71 109.97L321.679 109.66L323.632 108.048L330.142 102.313V98.407H315.851V102.468H321.617L323.818 102.406L323.849 102.747L321.617 104.607L315.386 110.435V114H330.607ZM339.061 114.31C343.525 114.31 346.377 112.357 346.377 109.04V108.73H341.789V108.916C341.789 109.877 340.983 110.28 339.123 110.28C336.581 110.28 335.713 109.412 335.62 107.242H346.315C346.408 106.715 346.532 105.816 346.532 104.948C346.532 100.887 343.773 98.097 339.092 98.097C334.225 98.097 331.249 101.259 331.249 106.25C331.249 111.179 333.698 114.31 339.061 114.31ZM338.937 101.91C341.107 101.91 342.161 102.809 342.068 104.421H335.651C335.837 102.778 336.705 101.91 338.937 101.91ZM353.379 114V104.235C353.379 102.53 354.061 102.034 355.487 102.034C356.944 102.034 357.471 102.561 357.471 104.235V105.072H362.09V103.646C362.09 100.515 360.881 98.097 357.626 98.097C355.425 98.097 354.03 99.337 353.255 100.918H353.069V98.407H348.76V114H353.379Z" fill="white"/>
<path d="M251.421 79.2C255.021 79.2 257.201 77.2 257.201 73.98V73.86H254.901V73.98C254.901 76.18 253.881 77.12 251.361 77.12C248.581 77.12 247.461 75.78 247.461 72.3C247.461 68.82 248.581 67.48 251.361 67.48C253.881 67.48 254.901 68.42 254.901 70.62V70.74H257.201V70.62C257.201 67.4 255.021 65.4 251.421 65.4C247.521 65.4 245.161 68.12 245.161 72.3C245.161 76.48 247.521 79.2 251.421 79.2ZM263.538 79.2C266.578 79.2 268.418 77.12 268.418 74.02C268.418 70.94 266.578 68.86 263.538 68.86C260.478 68.86 258.578 70.94 258.578 74.02C258.578 77.12 260.478 79.2 263.538 79.2ZM263.538 77.28C261.438 77.28 260.698 76.26 260.698 74.02C260.698 71.8 261.438 70.78 263.538 70.78C265.618 70.78 266.338 71.8 266.338 74.02C266.338 76.26 265.618 77.28 263.538 77.28ZM272.212 79V65.6H270.052V79H272.212ZM276.568 79V65.6H274.408V79H276.568ZM283.027 79.2C285.707 79.2 287.487 77.88 287.487 75.84V75.66H285.347V75.82C285.347 76.72 284.707 77.28 283.047 77.28C280.967 77.28 280.307 76.36 280.227 74.54H287.447C287.507 74.24 287.567 73.7 287.567 73.18C287.567 70.46 285.687 68.86 283.007 68.86C280.047 68.86 278.207 70.94 278.207 74.02C278.207 77.12 279.747 79.2 283.027 79.2ZM282.967 70.68C284.667 70.68 285.587 71.4 285.507 73.1H280.247C280.367 71.56 281.087 70.68 282.967 70.68ZM293.848 79.22C296.528 79.22 298.348 77.58 298.348 75.22V75.04H296.208V75.16C296.208 76.62 295.448 77.26 293.788 77.26C291.868 77.26 291.128 76.2 291.128 74.04C291.128 71.88 291.868 70.8 293.788 70.8C295.448 70.8 296.208 71.46 296.208 72.92V73.04H298.348V72.86C298.348 70.48 296.548 68.86 293.928 68.86C290.808 68.86 288.988 70.94 288.988 74.04C288.988 77.12 290.748 79.22 293.848 79.22ZM304.036 79C304.716 79 305.396 78.92 305.816 78.82V77.06H304.596C303.256 77.06 302.816 76.88 302.816 75.84V70.86H305.816V69.06H302.816V66.6H301.156L300.696 69.06H298.996V70.86H300.656V75.94C300.656 78.18 301.816 79 304.036 79ZM309.24 67.8V65.6H307.08L307.1 67.8H309.24ZM309.26 79V69H307.1V79H309.26ZM315.706 79.2C318.746 79.2 320.586 77.12 320.586 74.02C320.586 70.94 318.746 68.86 315.706 68.86C312.646 68.86 310.746 70.94 310.746 74.02C310.746 77.12 312.646 79.2 315.706 79.2ZM315.706 77.28C313.606 77.28 312.866 76.26 312.866 74.02C312.866 71.8 313.606 70.78 315.706 70.78C317.786 70.78 318.506 71.8 318.506 74.02C318.506 76.26 317.786 77.28 315.706 77.28ZM324.361 79V73.26C324.361 71.4 325.161 70.72 326.921 70.72C328.741 70.72 329.301 71.46 329.301 73.24V79H331.461V72.76C331.461 70.5 330.301 68.86 327.721 68.86C325.781 68.86 324.721 69.86 324.261 70.92H324.181V69.06H322.201V79H324.361ZM340.258 79L341.438 75.92H345.038L343.858 79H345.978L347.158 75.92H351.058V73.98H347.998L349.158 71H352.318V69.06H349.858L351.178 65.6H349.058L347.698 69.06H344.118L345.458 65.6H343.338L341.958 69.06H338.178V71H341.158L339.998 73.98H336.918V75.92H339.318L338.138 79H340.258ZM343.218 70.82H347.198L345.938 74.16H341.958L343.218 70.82ZM358.436 79V65.6H356.536C355.976 66.8 355.236 67.26 353.976 67.26H353.456V68.8H356.276V79H358.436Z" fill="white"/>
<path d="M0 214H400V400H0V214Z" fill="#131923"/>
<mask id="mask1_795_126140" style="mask-type:alpha" maskUnits="userSpaceOnUse" x="0" y="214" width="400" height="186">
<path d="M0 214H400V400H0V214Z" fill="#131923"/>
</mask>
<g mask="url(#mask1_795_126140)">
<path d="M292.5 219C341.377 219 381 258.623 381 307.5C381 356.377 341.377 396 292.5 396C243.623 396 204 356.377 204 307.5C204 258.623 243.623 219 292.5 219Z" fill="#0E7FE6"/>
<path d="M293 414V330C340.916 330 380.21 366.977 384 414H293Z" fill="#1D74B5"/>
<path d="M293 330V414H201C204.832 366.977 244.558 330 293 330Z" fill="#00518E"/>
<path d="M342.154 236.848C342.154 309.937 328.143 358.617 292.494 378.665V236.848H342.154Z" fill="#FFD629"/>
<path d="M243.789 236.848C243.789 309.937 257.53 358.617 292.494 378.665V236.848L243.789 236.848Z" fill="#D6AD00"/>
<path d="M293.583 293.828C293.801 293.013 294.639 292.529 295.454 292.748L302.263 294.572C303.079 294.791 303.562 295.628 303.344 296.444L294.448 329.643C294.23 330.458 293.392 330.942 292.577 330.724L285.768 328.899C284.953 328.681 284.469 327.843 284.687 327.028L293.583 293.828Z" fill="#FFD629"/>
<path d="M272.924 342.376H312.079C309.722 346.89 301.326 350.971 292.508 350.971C283.691 350.971 275.281 346.89 272.924 342.376Z" fill="black"/>
<path d="M257.532 300.46C257.273 300.243 256.888 300.277 256.671 300.536L253.528 304.281C253.311 304.54 253.345 304.925 253.603 305.142C253.862 305.359 254.247 305.326 254.464 305.067L257.607 301.321C257.824 301.063 257.79 300.677 257.532 300.46Z" fill="black"/>
<path d="M280.496 300.46C280.237 300.677 280.204 301.063 280.421 301.322L283.564 305.067C283.781 305.326 284.166 305.359 284.425 305.142C284.683 304.925 284.717 304.54 284.5 304.281L281.357 300.536C281.211 300.361 280.988 300.289 280.779 300.327C280.678 300.346 280.58 300.39 280.496 300.46Z" fill="black"/>
<path d="M274.479 303.158C274.364 302.841 274.527 302.49 274.845 302.375C275.162 302.259 275.513 302.423 275.628 302.74L277.3 307.335C277.416 307.652 277.252 308.002 276.935 308.118C276.618 308.233 276.267 308.07 276.152 307.753L274.479 303.158Z" fill="black"/>
<path d="M268.403 303.565C268.403 303.228 268.676 302.954 269.014 302.954C269.351 302.954 269.625 303.228 269.625 303.565V308.455C269.625 308.793 269.351 309.066 269.014 309.066C268.676 309.066 268.403 308.793 268.403 308.455V303.565Z" fill="black"/>
<path d="M262.4 302.74C262.515 302.423 262.866 302.259 263.183 302.375C263.5 302.49 263.664 302.841 263.548 303.158L261.876 307.753C261.761 308.07 261.41 308.233 261.093 308.118C260.775 308.002 260.612 307.652 260.727 307.335L262.4 302.74Z" fill="black"/>
<path d="M269.055 277.55C279.604 277.611 288.118 282.928 288.073 289.425C288.028 295.923 279.439 301.141 268.891 301.08C258.343 301.02 249.828 295.703 249.873 289.205C249.919 282.708 258.507 277.49 269.055 277.55Z" fill="#1D74B5"/>
<path d="M269.137 280.455C277.071 280.501 283.474 284.5 283.44 289.386C283.406 294.273 276.947 298.198 269.014 298.152C261.081 298.106 254.677 294.108 254.711 289.221C254.745 284.334 261.204 280.41 269.137 280.455Z" fill="white"/>
<path d="M268.932 283.215C274.41 283.247 278.833 286.008 278.809 289.383C278.786 292.758 274.325 295.468 268.847 295.436C263.368 295.405 258.945 292.643 258.969 289.269C258.992 285.894 263.453 283.184 268.932 283.215Z" fill="#1D74B5"/>
<path d="M269.015 286.383C271.636 286.383 273.762 287.696 273.762 289.315C273.762 290.934 271.636 292.247 269.015 292.247C266.393 292.247 264.268 290.934 264.268 289.315C264.268 287.696 266.393 286.383 269.015 286.383Z" fill="black"/>
<path d="M316.036 270.216C326.584 270.216 335.136 278.767 335.136 289.316C335.136 299.864 326.584 308.416 316.036 308.416C305.487 308.416 296.936 299.864 296.936 289.316C296.936 278.767 305.487 270.216 316.036 270.216Z" fill="#1D74B5"/>
<path d="M316.034 273.271C324.895 273.271 332.078 280.454 332.078 289.315C332.078 298.176 324.895 305.359 316.034 305.359C307.173 305.359 299.99 298.176 299.99 289.315C299.99 280.454 307.173 273.271 316.034 273.271Z" fill="#FFD81A"/>
<path d="M316.039 276.328C323.212 276.328 329.027 282.143 329.027 289.316C329.027 296.489 323.212 302.304 316.039 302.304C308.866 302.304 303.051 296.489 303.051 289.316C303.051 282.143 308.866 276.328 316.039 276.328Z" fill="#1D74B5"/>
<path d="M316.034 279.384C321.519 279.384 325.966 283.83 325.966 289.316C325.966 294.801 321.519 299.248 316.034 299.248C310.548 299.248 306.102 294.801 306.102 289.316C306.102 283.83 310.548 279.384 316.034 279.384Z" fill="white"/>
<path d="M316.144 293.134C314.036 293.183 312.279 291.513 312.22 289.404C312.162 287.295 313.824 285.545 315.933 285.496C318.042 285.447 319.799 287.117 319.857 289.226C319.916 291.335 318.253 293.085 316.144 293.134Z" fill="black"/>
<path d="M290.971 283.203C282.109 273.017 255.827 273.017 246.965 283.203Z" fill="black"/>
<path d="M338.034 283.204C329.171 262.83 302.89 262.831 294.027 283.204Z" fill="black"/>
<circle cx="292.5" cy="343.5" r="2.5" fill="white"/>
<path fill-rule="evenodd" clip-rule="evenodd" d="M249.718 259.558C249.127 259.558 248.648 260.036 248.648 260.627V269.337C248.648 269.928 249.127 270.406 249.718 270.406C250.309 270.406 250.788 269.928 250.788 269.337V260.627C250.788 260.036 250.309 259.558 249.718 259.558ZM259.349 260.627C259.349 260.036 259.828 259.558 260.419 259.558C261.01 259.558 261.489 260.036 261.489 260.627V269.337C261.489 269.928 261.01 270.406 260.419 270.406C259.828 270.406 259.349 269.928 259.349 269.337V260.627ZM270.038 260.627C270.038 260.036 270.517 259.558 271.107 259.558C271.698 259.558 272.177 260.036 272.177 260.627V269.337C272.177 269.928 271.698 270.406 271.107 270.406C270.517 270.406 270.038 269.928 270.038 269.337V260.627ZM280.739 260.627C280.739 260.036 281.218 259.558 281.808 259.558C282.399 259.558 282.878 260.036 282.878 260.627V269.337C282.878 269.928 282.399 270.406 281.808 270.406C281.218 270.406 280.739 269.928 280.739 269.337V260.627ZM292.505 259.558C291.915 259.558 291.436 260.036 291.436 260.627V269.337C291.436 269.928 291.915 270.406 292.505 270.406C293.096 270.406 293.575 269.928 293.575 269.337V260.627C293.575 260.036 293.096 259.558 292.505 259.558Z" fill="#FFD629"/>
<path d="M303.892 262.154C303.892 263.106 303.121 263.877 302.169 263.877C301.217 263.877 300.445 263.106 300.445 262.154V261.981C300.445 261.03 301.217 260.258 302.169 260.258C303.121 260.258 303.892 261.03 303.892 261.981V262.154Z" fill="#1D74B5"/>
<path d="M309.532 260.272C309.532 261.353 308.656 262.229 307.575 262.229C306.493 262.229 305.617 261.353 305.617 260.272V259.828C305.617 258.747 306.493 257.87 307.575 257.87C308.656 257.87 309.532 258.747 309.532 259.828V260.272Z" fill="#1D74B5"/>
<path d="M316.458 258.885C316.458 260.12 315.457 261.121 314.221 261.121C312.986 261.121 311.984 260.12 311.984 258.885V258.853C311.984 257.618 312.986 256.616 314.221 256.616C315.457 256.616 316.458 257.618 316.458 258.853V258.885Z" fill="#1D74B5"/>
<path d="M324.6 259.686C324.6 261.128 323.431 262.297 321.989 262.297H321.759C320.318 262.297 319.148 261.128 319.148 259.686C319.148 258.244 320.318 257.075 321.759 257.075H321.989C323.431 257.075 324.6 258.244 324.6 259.686Z" fill="#1D74B5"/>
<path d="M334.363 262.438C334.363 264.196 332.938 265.621 331.18 265.621H329.892C328.134 265.621 326.709 264.196 326.709 262.438V261.786C326.709 260.028 328.134 258.603 329.892 258.603H331.18C332.938 258.603 334.363 260.028 334.363 261.786V262.438Z" fill="#1D74B5"/>
<path d="M253 364C253 368.418 249.418 372 245 372C240.582 372 237 368.418 237 364C237 359.582 240.582 356 245 356C249.418 356 253 359.582 253 364Z" fill="#FFD629"/>
<path d="M289.04 392.991C289.04 392.434 289.483 391.982 290.03 391.982H294.754C295.301 391.982 295.744 392.434 295.744 392.991C295.744 393.548 295.301 394 294.754 394H290.03C289.483 394 289.04 393.548 289.04 392.991Z" fill="#FFD629"/>
<path d="M274.977 390.206C275.119 389.668 275.662 389.348 276.19 389.493L280.753 390.738C281.281 390.882 281.595 391.435 281.453 391.974C281.311 392.512 280.768 392.831 280.24 392.687L275.678 391.442C275.149 391.297 274.836 390.744 274.977 390.206Z" fill="#FFD629"/>
<path d="M262.102 383.809C262.375 383.326 262.981 383.161 263.455 383.439L267.545 385.845C268.019 386.124 268.181 386.741 267.908 387.223C267.634 387.706 267.028 387.871 266.555 387.592L262.464 385.187C261.991 384.908 261.828 384.291 262.102 383.809Z" fill="#FFD629"/>
<path d="M251.29 374.234C251.677 373.84 252.304 373.84 252.691 374.234L256.031 377.636C256.417 378.03 256.417 378.669 256.031 379.063C255.644 379.457 255.017 379.457 254.63 379.063L251.29 375.661C250.903 375.267 250.903 374.628 251.29 374.234Z" fill="#FFD629"/>
<path d="M303.331 391.974C303.19 391.435 303.503 390.882 304.031 390.738L308.594 389.493C309.122 389.348 309.665 389.668 309.807 390.206C309.948 390.744 309.635 391.297 309.106 391.442L304.544 392.687C304.016 392.831 303.473 392.512 303.331 391.974Z" fill="#FFD629"/>
<path d="M316.877 387.223C316.603 386.74 316.766 386.123 317.239 385.845L321.33 383.439C321.803 383.16 322.409 383.326 322.683 383.808C322.956 384.291 322.794 384.908 322.32 385.186L318.23 387.592C317.756 387.871 317.15 387.705 316.877 387.223Z" fill="#FFD629"/>
<path d="M328.754 379.063C328.367 378.669 328.367 378.03 328.754 377.636L332.093 374.234C332.48 373.84 333.107 373.84 333.494 374.234C333.881 374.628 333.881 375.267 333.494 375.661L330.154 379.063C329.767 379.457 329.14 379.457 328.754 379.063Z" fill="#FFD629"/>
<path d="M338.153 368.05C337.679 367.771 337.517 367.154 337.79 366.671L340.152 362.505C340.425 362.022 341.031 361.857 341.505 362.135C341.978 362.414 342.141 363.031 341.867 363.513L339.505 367.68C339.232 368.163 338.626 368.328 338.153 368.05Z" fill="#FFD629"/>
<path fill-rule="evenodd" clip-rule="evenodd" d="M343.765 279.994C343.3 279.994 342.924 280.37 342.924 280.835C342.924 281.299 343.3 281.675 343.765 281.675H351.405C351.869 281.675 352.245 281.299 352.245 280.835C352.245 280.37 351.869 279.994 351.405 279.994H343.765ZM343.234 285.953C343.234 285.109 343.918 284.425 344.762 284.425H355C355.844 284.425 356.528 285.109 356.528 285.953C356.528 286.797 355.844 287.481 355 287.481H344.762C343.918 287.481 343.234 286.797 343.234 285.953ZM340.48 292.142C340.48 291.171 341.267 290.385 342.238 290.385H356.142C357.113 290.385 357.9 291.171 357.9 292.142C357.9 293.112 357.113 293.899 356.142 293.899H342.238C341.267 293.899 340.48 293.112 340.48 292.142Z" fill="#FFD629"/>
</g>
<path d="M40.8716 328.31C46.9166 328.31 49.9856 325.086 49.9856 319.909V307.23H45.3356V319.847C45.3356 322.823 44.2816 323.815 40.8716 323.815C37.4306 323.815 36.3766 322.823 36.3766 319.847V307.23H31.7576V319.909C31.7576 325.086 34.8266 328.31 40.8716 328.31ZM58.511 326.357C60.867 326.357 62.51 325.303 63.192 324.094H63.378V326.512C63.378 328.93 62.882 329.488 60.433 329.488C57.767 329.488 57.302 329.085 57.302 327.473H52.683C52.683 331.441 55.411 333.58 60.278 333.58C65.3 333.58 67.997 331.348 67.997 326.264V312.407H63.688V314.67H63.533C62.696 312.965 60.929 312.097 58.697 312.097C54.264 312.097 51.908 314.918 51.908 319.258C51.908 323.598 54.202 326.357 58.511 326.357ZM56.527 319.258C56.527 317.057 57.302 316.034 59.968 316.034C62.2 316.034 63.378 316.809 63.378 318.793V319.723C63.378 321.707 62.169 322.482 59.937 322.482C57.302 322.482 56.527 321.459 56.527 319.258ZM75.461 328V307.23H70.842V328H75.461ZM81.2718 333.27C84.3408 333.27 86.0768 332.278 87.4098 329.085L94.3538 312.407H89.1768L86.9758 318.917L86.0148 321.924H85.6738L84.5578 318.917L82.0158 312.407H76.8388L83.3798 327.349L83.1008 327.938C82.6358 328.93 82.2018 329.085 81.0238 329.085H78.4198V332.929C79.0708 333.084 80.2178 333.27 81.2718 333.27ZM106.553 328V320.312H117.031V316.158H106.553V311.415H117.496V307.23H101.903V328H106.553ZM123.71 328.31C126.593 328.31 128.174 327.039 129.011 325.892H129.197V328H133.506V318.762C133.506 314.608 131.088 312.097 126.5 312.097C122.098 312.097 119.215 314.546 119.215 318.266V318.607H123.648V318.266C123.648 316.685 124.392 316.158 126.283 316.158C128.112 316.158 129.104 316.499 129.104 318.328V318.824L123.772 319.63C120.548 320.126 118.812 321.614 118.812 324.032C118.812 326.853 120.951 328.31 123.71 328.31ZM123.245 323.66C123.245 323.009 123.679 322.699 124.64 322.544L129.104 321.862C129.104 324.28 127.151 324.776 125.26 324.776C123.896 324.776 123.245 324.497 123.245 323.66ZM143.519 328.31C147.828 328.31 150.959 325.768 150.959 321.924V321.552H146.309V321.8C146.309 323.567 145.317 324.156 143.395 324.156C141.163 324.156 140.202 323.102 140.202 320.219C140.202 317.305 141.163 316.251 143.395 316.251C145.317 316.251 146.309 316.84 146.309 318.607V318.855H150.959V318.483C150.959 314.639 147.921 312.097 143.767 312.097C138.559 312.097 135.614 315.259 135.614 320.25C135.614 325.179 138.373 328.31 143.519 328.31ZM160.5 328.31C164.964 328.31 167.816 326.357 167.816 323.04V322.73H163.228V322.916C163.228 323.877 162.422 324.28 160.562 324.28C158.02 324.28 157.152 323.412 157.059 321.242H167.754C167.847 320.715 167.971 319.816 167.971 318.948C167.971 314.887 165.212 312.097 160.531 312.097C155.664 312.097 152.688 315.259 152.688 320.25C152.688 325.179 155.137 328.31 160.5 328.31ZM160.376 315.91C162.546 315.91 163.6 316.809 163.507 318.421H157.09C157.276 316.778 158.144 315.91 160.376 315.91ZM177.232 328.31C181.541 328.31 183.928 326.45 183.928 323.536C183.928 320.994 182.564 319.506 179.278 318.886L176.426 318.297C174.566 317.925 174.287 317.708 174.287 316.964C174.287 316.22 174.721 315.817 176.581 315.817C178.565 315.817 178.999 316.375 178.999 317.398V317.832H183.432V317.398C183.432 313.895 180.518 312.097 176.705 312.097C172.272 312.097 169.916 314.143 169.916 317.026C169.916 319.909 171.59 321.211 174.659 321.769L177.015 322.203C179.092 322.575 179.526 322.761 179.526 323.598C179.526 324.373 179.216 324.652 177.325 324.652C175.062 324.652 174.38 324.404 174.38 323.257V322.606H169.947V322.699C169.947 326.481 172.334 328.31 177.232 328.31Z" fill="white"/>
<path d="M54.021 294.2C57.621 294.2 59.801 292.2 59.801 288.98V288.86H57.501V288.98C57.501 291.18 56.481 292.12 53.961 292.12C51.181 292.12 50.061 290.78 50.061 287.3C50.061 283.82 51.181 282.48 53.961 282.48C56.481 282.48 57.501 283.42 57.501 285.62V285.74H59.801V285.62C59.801 282.4 57.621 280.4 54.021 280.4C50.121 280.4 47.761 283.12 47.761 287.3C47.761 291.48 50.121 294.2 54.021 294.2ZM66.1376 294.2C69.1776 294.2 71.0176 292.12 71.0176 289.02C71.0176 285.94 69.1776 283.86 66.1376 283.86C63.0776 283.86 61.1776 285.94 61.1776 289.02C61.1776 292.12 63.0776 294.2 66.1376 294.2ZM66.1376 292.28C64.0376 292.28 63.2976 291.26 63.2976 289.02C63.2976 286.8 64.0376 285.78 66.1376 285.78C68.2176 285.78 68.9376 286.8 68.9376 289.02C68.9376 291.26 68.2176 292.28 66.1376 292.28ZM74.8118 294V280.6H72.6518V294H74.8118ZM79.1673 294V280.6H77.0073V294H79.1673ZM85.6265 294.2C88.3065 294.2 90.0865 292.88 90.0865 290.84V290.66H87.9465V290.82C87.9465 291.72 87.3065 292.28 85.6465 292.28C83.5665 292.28 82.9065 291.36 82.8265 289.54H90.0465C90.1065 289.24 90.1665 288.7 90.1665 288.18C90.1665 285.46 88.2865 283.86 85.6065 283.86C82.6465 283.86 80.8065 285.94 80.8065 289.02C80.8065 292.12 82.3465 294.2 85.6265 294.2ZM85.5665 285.68C87.2665 285.68 88.1865 286.4 88.1065 288.1H82.8465C82.9665 286.56 83.6865 285.68 85.5665 285.68ZM96.4477 294.22C99.1277 294.22 100.948 292.58 100.948 290.22V290.04H98.8077V290.16C98.8077 291.62 98.0477 292.26 96.3877 292.26C94.4677 292.26 93.7277 291.2 93.7277 289.04C93.7277 286.88 94.4677 285.8 96.3877 285.8C98.0477 285.8 98.8077 286.46 98.8077 287.92V288.04H100.948V287.86C100.948 285.48 99.1477 283.86 96.5277 283.86C93.4077 283.86 91.5877 285.94 91.5877 289.04C91.5877 292.12 93.3477 294.22 96.4477 294.22ZM106.636 294C107.316 294 107.996 293.92 108.416 293.82V292.06H107.196C105.856 292.06 105.416 291.88 105.416 290.84V285.86H108.416V284.06H105.416V281.6H103.756L103.296 284.06H101.596V285.86H103.256V290.94C103.256 293.18 104.416 294 106.636 294ZM111.84 282.8V280.6H109.68L109.7 282.8H111.84ZM111.86 294V284H109.7V294H111.86ZM118.306 294.2C121.346 294.2 123.186 292.12 123.186 289.02C123.186 285.94 121.346 283.86 118.306 283.86C115.246 283.86 113.346 285.94 113.346 289.02C113.346 292.12 115.246 294.2 118.306 294.2ZM118.306 292.28C116.206 292.28 115.466 291.26 115.466 289.02C115.466 286.8 116.206 285.78 118.306 285.78C120.386 285.78 121.106 286.8 121.106 289.02C121.106 291.26 120.386 292.28 118.306 292.28ZM126.96 294V288.26C126.96 286.4 127.76 285.72 129.52 285.72C131.34 285.72 131.9 286.46 131.9 288.24V294H134.06V287.76C134.06 285.5 132.9 283.86 130.32 283.86C128.38 283.86 127.32 284.86 126.86 285.92H126.78V284.06H124.8V294H126.96ZM142.858 294L144.038 290.92H147.638L146.458 294H148.578L149.758 290.92H153.658V288.98H150.598L151.758 286H154.918V284.06H152.458L153.778 280.6H151.658L150.298 284.06H146.718L148.058 280.6H145.938L144.558 284.06H140.778V286H143.758L142.598 288.98H139.518V290.92H141.918L140.738 294H142.858ZM145.818 285.82H149.798L148.538 289.16H144.558L145.818 285.82ZM166.851 294V292.06H159.231C159.231 290.96 160.271 290.32 161.631 289.62L163.591 288.62C165.311 287.74 166.811 286.56 166.811 284.36C166.811 282.14 165.431 280.4 162.131 280.4C158.431 280.4 156.871 282.48 156.871 284.98V285.3H159.031V285.02C159.031 283.18 159.531 282.38 161.971 282.38C164.191 282.38 164.651 283.2 164.651 284.44C164.651 285.58 164.071 286.18 162.631 286.94L160.571 288C158.691 288.96 156.971 290.12 156.971 292.66V294H166.851Z" fill="white"/>
</svg>
