<svg width="400" height="400" viewBox="0 0 400 400" fill="none" xmlns="http://www.w3.org/2000/svg">
<path d="M0 0H400V400H0V0Z" fill="#181C25"/>
<path opacity="0.5" d="M299.4 285.069L210.479 309.296L342.531 312.657L299.4 285.069Z" fill="#F208F6"/>
<path d="M109.827 47.4482L64.332 5.28613L84.7826 84.3842L109.827 47.4482Z" fill="white"/>
<path d="M292.445 46.8594L308.384 50.3336L307.26 58.3733L292.445 46.8594Z" fill="#93DA5F"/>
<path d="M91.4551 298.494L109.019 254.182L136.734 257.566L91.4551 298.494Z" fill="#ECB1A8"/>
<path opacity="0.5" d="M143.893 340.577L160.774 358.932L151.928 355.837L143.893 340.577Z" fill="#6726B8"/>
<path d="M304.301 297.671L337.489 303.137H298.42L304.301 297.671Z" fill="#F5A26E"/>
<path d="M272.283 193.995L313.308 195.022L334.163 166.721L272.283 193.995Z" fill="#B1FBA3"/>
<path d="M312.47 109.225L322.719 102.431L320.671 107.877L312.47 109.225Z" fill="#F208F6"/>
<path d="M189.854 354.262L154.406 240.506L233.67 244.345L234.543 289.913L189.854 354.262Z" fill="#ECB1A8"/>
<path d="M248.51 274.387V230.032L187.309 265.93L210.416 335.253L248.51 274.387Z" fill="#92574E"/>
<path d="M234.542 289.915L232.622 234.57L167.281 228.381L201.856 333.338L234.542 289.915Z" fill="#C48980"/>
<path d="M206.781 305.949L197.266 276.267L224.416 261.984L225.987 282.583L206.781 305.949Z" fill="#92574E"/>
<path d="M150.701 246.133L120.27 134.319L135.655 87.2289L192.04 63.0166L235.49 71.6402L254.063 102.154L268.917 172.528L246.692 254.645L217.259 278.674L193.626 276.5L150.701 246.133Z" fill="#F6BBB2"/>
<path d="M169.302 171.296L159.232 175.631L201.612 166.961L196.14 165.954L169.302 171.296Z" fill="black"/>
<path d="M246.707 170.153L224.623 166.065L218.984 168.387L250.86 172.242L246.707 170.153Z" fill="black"/>
<path d="M209.715 216.712L207.501 197.767L199.174 215.848L209.715 216.712Z" fill="white"/>
<path d="M182.088 210.994L152.82 190.954L154.483 204.092L169.533 219.641L182.088 210.994Z" fill="white"/>
<path d="M239.28 221.466L229.699 210.434L251.328 201.579L249.393 212.95L239.28 221.466Z" fill="white"/>
<path d="M213.869 216.711L212.848 208.04L216.607 213.643L213.869 216.711Z" fill="#92574E"/>
<path d="M207.307 225.34L209.024 220.22L210.427 225.941L207.307 225.34Z" fill="#92574E"/>
<path d="M163.687 231.711L147.971 212.866L155.931 241.985L172.057 252.871L163.687 231.711Z" fill="#92574E"/>
<path d="M239.013 241.765L237.166 251.746L241.796 247.019L244.483 236.705L239.013 241.765Z" fill="#92574E"/>
<path d="M205.921 252.304L193.025 245.543L222.193 241.329L214.672 251.654L210.297 250.176L205.921 252.304Z" fill="#B9E6B6"/>
<path d="M249.216 176.857C236.235 176.597 228.031 182.455 222.756 187.907L246.375 185.92C246.834 184.264 248.553 178.845 249.216 176.857Z" fill="#F208F6"/>
<path d="M197.122 191.725C186.944 179.711 171.911 176.314 165.986 175.924L169.225 186.482C175.446 186.872 190.924 190.64 197.122 191.725Z" fill="#F208F6"/>
<path d="M236.486 190.531C242.411 189.82 245.547 187.068 246.436 185.883C245.178 184.238 240.532 182.654 235.318 182.891C230.104 183.128 224.09 186.974 222.707 187.961C226.859 190.026 231.179 191.167 236.486 190.531Z" fill="#B9E6B6"/>
<path d="M181.891 184.332C175.781 183.165 170.896 184.999 168.967 186.311C170.265 188.664 175.365 192.489 181.083 193.119C186.802 193.748 194.644 193.267 197.099 191.758C195.44 189.933 189.577 185.801 181.891 184.332Z" fill="#B9E6B6"/>
<path d="M206.376 234.429L193.016 245.549L222.19 241.333L216.343 233.438L210.726 238.109L206.376 234.429Z" fill="#F208F6"/>
<path d="M129.426 83.8829L116.822 123.684L125.375 158.207L139.637 185.405L144.171 150.964L237.479 130.89V119.282L268.585 172.053L262.689 95.189L237.479 69.8479L187.195 57.9199L129.426 83.8829Z" fill="#F208F6"/>
<path d="M140.629 196.944L133.03 90.335C122.266 93.6925 104.248 119.58 103.019 143.295C100.998 182.32 127.043 194.718 140.629 196.944Z" fill="#F5A26E"/>
<path d="M119.061 157.724L88.8203 166.089L151.681 184.048L119.061 157.724Z" fill="#101BE3"/>
<path d="M237.469 129.881L298.247 181.541C297.562 173.074 292.451 152.932 277.483 140.1C262.514 127.269 244.57 127.941 237.469 129.881Z" fill="#F5A26E"/>
<path d="M311.369 177.339L268.149 149.791C272.06 147.025 282.912 143.442 295.032 151.237C307.152 159.032 310.973 171.887 311.369 177.339Z" fill="#6726B8"/>
<path d="M255.16 201.786C256.519 174.861 260.279 137.291 260.279 137.291L231.842 71.5537L255.16 201.786Z" fill="#6726B8"/>
<path d="M147.797 57.3828L133.838 75.3978L144.576 125.748L147.797 57.3828Z" fill="#B1FBA3"/>
<path d="M163.026 135.115L151.682 25.5713C163.121 29.8246 187.127 45.6431 191.219 78.352C194.901 107.787 173.401 127.952 163.026 135.115Z" fill="#101BE3"/>
<path d="M289.866 89.5407L169.776 149.785C168.656 137.066 189.094 99.4919 217.186 83.4554C245.497 67.2942 277.361 79.673 289.866 89.5407Z" fill="#C5930F"/>
<path d="M191.521 120.9L240.765 24.1377C249.922 35.7441 259.603 61.1142 243.605 93.1095C230.988 118.343 201.792 120.604 191.521 120.9Z" fill="#B9E6B6"/>
<path d="M240.476 127.01C211.936 147.341 184.837 140.371 176.915 135.132L266.938 60.1923C268.636 73.4682 269.016 106.679 240.476 127.01Z" fill="#6726B8"/>
<path d="M228.45 115.247L145.408 62.0475C145.408 71.6824 145.956 93.0441 171.406 111.011C195.998 128.373 219.263 123.242 228.45 115.247Z" fill="#F5A26E"/>
<path d="M197.513 119.823L194.432 140.363L192.207 152.173L286.688 108.015L197.513 119.823Z" fill="#93DA5F"/>
<path d="M145.887 165.851L145.332 131.417L246.439 120.564L145.887 165.851Z" fill="#B1FBA3"/>
<path d="M291.396 253.341C290.635 276.263 293.549 299.806 295.102 308.712C295.102 308.712 291.667 275.779 294.13 255.325C293.8 254.187 292.25 253.094 291.396 253.341Z" fill="black"/>
<path d="M296.3 247.914C294.494 276.813 297.498 311.311 299.051 320.217C299.051 320.217 295.364 280.88 299.033 249.898C298.704 248.76 297.153 247.667 296.3 247.914Z" fill="black"/>
<path d="M141.921 353.421L144.365 349.359L137.981 376.635L141.921 353.421Z" fill="black"/>
<path d="M145.982 352.405L148.475 349.41L139.03 386.945C139.03 386.945 144.282 357.721 145.982 352.405Z" fill="black"/>
<path d="M248.252 278.175C248.269 278.472 248.272 278.72 248.258 278.912C248.257 278.666 248.255 278.42 248.252 278.175C247.945 272.855 242.935 251.821 242.935 251.821L244.907 248.849C245.977 253.277 248.113 265.235 248.252 278.175Z" fill="black"/>
<path d="M244.635 233.906C248.954 255.808 251.089 279.185 251.617 288.137C251.955 266.23 247.794 240.833 245.672 230.874C245.251 231.598 244.905 232.609 244.635 233.906Z" fill="black"/>
<path d="M161.095 202.395C142.623 195.147 129.122 175.598 124.68 166.73C133.071 190.481 151.452 201.986 159.593 204.77C159.864 204.166 160.553 203.604 161.095 202.395Z" fill="black"/>
<path d="M171.271 201.726C158.215 199.234 143.508 186.792 137.786 180.883C150.534 196.482 163.835 203.084 168.893 204.435C169.58 203.873 170.499 203.123 171.271 201.726Z" fill="black"/>
<path d="M230.676 114.841L228.741 112.598C226.358 123.479 218.7 150.128 215.169 162.092C215.169 162.092 224.863 137.224 230.676 114.841Z" fill="black"/>
<path d="M224.178 123.727L222.244 121.483C219.082 138.684 211.006 167.243 211.006 167.243C211.006 167.243 222.735 131.7 224.178 123.727Z" fill="black"/>
</svg>
