<svg width="32" height="28" viewBox="0 0 32 28" fill="none" xmlns="http://www.w3.org/2000/svg">
<path d="M29.5102 0.0878906L17.7988 8.7861L19.9646 3.65427L29.5102 0.0878906Z" fill="#E2761B"/>
<path d="M2.47461 0.0878906L14.0918 8.86849L12.032 3.65427L2.47461 0.0878906Z" fill="#E4761B"/>
<path d="M25.2988 20.251L22.1797 25.0297L28.8534 26.8659L30.772 20.3569L25.2988 20.251Z" fill="#E4761B"/>
<path d="M1.24023 20.3569L3.14701 26.8659L9.82074 25.0297L6.70163 20.251L1.24023 20.3569Z" fill="#E4761B"/>
<path d="M9.44368 12.1758L7.58398 14.9889L14.2106 15.2831L13.9752 8.16211L9.44368 12.1758Z" fill="#E4761B"/>
<path d="M22.5442 12.1761L17.9538 8.08008L17.8008 15.2835L24.4157 14.9892L22.5442 12.1761Z" fill="#E4761B"/>
<path d="M9.82031 25.029L13.7987 23.0869L10.3617 20.4033L9.82031 25.029Z" fill="#E4761B"/>
<path d="M18.1895 23.0869L22.1796 25.029L21.6264 20.4033L18.1895 23.0869Z" fill="#E4761B"/>
<path d="M22.1776 25.03L18.1875 23.0879L18.5053 25.6891L18.47 26.7837L22.1776 25.03Z" fill="#D7C1B3"/>
<path d="M9.81836 25.03L13.526 26.7837L13.5024 25.6891L13.7967 23.0879L9.81836 25.03Z" fill="#D7C1B3"/>
<path d="M13.5848 18.6857L10.2656 17.7088L12.6079 16.6377L13.5848 18.6857Z" fill="#233447"/>
<path d="M18.3984 18.6857L19.3754 16.6377L21.7294 17.7088L18.3984 18.6857Z" fill="#233447"/>
<path d="M9.81833 25.0297L10.3833 20.251L6.69922 20.3569L9.81833 25.0297Z" fill="#CD6116"/>
<path d="M21.6133 20.251L22.1783 25.0297L25.2974 20.3569L21.6133 20.251Z" fill="#CD6116"/>
<path d="M24.4137 14.9893L17.7988 15.2835L18.4109 18.6851L19.3878 16.6371L21.7419 17.7082L24.4137 14.9893Z" fill="#CD6116"/>
<path d="M10.2656 17.7082L12.6197 16.6371L13.5849 18.6851L14.2087 15.2835L7.58203 14.9893L10.2656 17.7082Z" fill="#CD6116"/>
<path d="M7.58203 14.9893L10.3598 20.4036L10.2656 17.7082L7.58203 14.9893Z" fill="#E4751F"/>
<path d="M21.7407 17.7082L21.623 20.4036L24.4126 14.9893L21.7407 17.7082Z" fill="#E4751F"/>
<path d="M14.2098 15.2842L13.5859 18.6858L14.3628 22.6994L14.5393 17.4146L14.2098 15.2842Z" fill="#E4751F"/>
<path d="M17.7983 15.2842L17.4805 17.4028L17.6217 22.6994L18.4103 18.6858L17.7983 15.2842Z" fill="#E4751F"/>
<path d="M18.4117 18.6849L17.623 22.6986L18.188 23.087L21.6249 20.4034L21.7426 17.708L18.4117 18.6849Z" fill="#F6851B"/>
<path d="M10.2656 17.708L10.3598 20.4034L13.7967 23.087L14.3617 22.6986L13.5848 18.6849L10.2656 17.708Z" fill="#F6851B"/>
<path d="M18.4695 26.7831L18.5048 25.6884L18.2105 25.4295H13.7732L13.5024 25.6884L13.526 26.7831L9.81836 25.0293L11.1131 26.0886L13.7379 27.913H18.2459L20.8824 26.0886L22.1771 25.0293L18.4695 26.7831Z" fill="#C0AD9E"/>
<path d="M18.1885 23.0867L17.6235 22.6982H14.3631L13.7982 23.0867L13.5039 25.6879L13.7746 25.4289H18.212L18.5063 25.6879L18.1885 23.0867Z" fill="#161616"/>
<path d="M30.0048 9.35107L31.0053 4.54881L29.5105 0.0878906L18.1875 8.49185L22.5425 12.1759L28.6983 13.9768L30.0637 12.3878L29.4752 11.9641L30.4168 11.1048L29.687 10.5399L30.6287 9.82188L30.0048 9.35107Z" fill="#763D16"/>
<path d="M0.992188 4.54881L1.99266 9.35107L1.35707 9.82188L2.29868 10.5399L1.5807 11.1048L2.52232 11.9641L1.93381 12.3878L3.28738 13.9768L9.44322 12.1759L13.7982 8.49185L2.47524 0.0878906L0.992188 4.54881Z" fill="#763D16"/>
<path d="M28.6989 13.9766L22.5431 12.1758L24.4145 14.9889L21.625 20.4032L25.2973 20.3561H30.7705L28.6989 13.9766Z" fill="#F6851B"/>
<path d="M9.44409 12.1758L3.28826 13.9766L1.24023 20.3561H6.70163L10.3622 20.4032L7.5844 14.9889L9.44409 12.1758Z" fill="#F6851B"/>
<path d="M17.7987 15.2833L18.1871 8.49187L19.9762 3.6543H12.0312L13.7968 8.49187L14.2087 15.2833L14.35 17.4255L14.3618 22.6986H17.6221L17.6457 17.4255L17.7987 15.2833Z" fill="#F6851B"/>
</svg>
