<svg width="2000" height="1600" viewBox="0 0 2000 1600" fill="none" xmlns="http://www.w3.org/2000/svg">
<path d="M259.317 1239.7C259.197 1239.68 257.184 1204.5 239.001 1175C220.817 1145.5 189.502 1145.93 189.502 1145.93L259.317 1239.7Z" fill="#D7006A"/>
<path d="M1153.97 418L1150 424.291L1159.58 434.202L1153.97 418Z" fill="#C8BEC2"/>
<path d="M1495.97 1198L1492 1204.29L1501.58 1214.2L1495.97 1198Z" fill="#FF9DC4"/>
<path d="M377 851.447L393.228 848L388.48 853.343L377 851.447Z" fill="white"/>
<path d="M436 340.524L445.322 341.73L444.546 307L436 340.524Z" fill="#D7006A"/>
<path d="M1895.43 1540.84L1897.34 1531.64L1862.65 1529.78L1895.43 1540.84Z" fill="white"/>
<path d="M697.871 589L698.734 612.096L651 662.166L697.871 589Z" fill="#478BFE"/>
<path d="M1047.87 1366.09C1047.87 1366.09 1047.87 1400.1 1002 1405.23C956.128 1410.35 900.088 1380.26 900.088 1380.26L1047.87 1366.09Z" fill="#112845"/>
<path d="M1744.74 576.067C1744.62 576.036 1693 562 1693 562L1683.39 476.548L1744.74 576.067Z" fill="#D7006A"/>
<path d="M35.8574 192.158C35.8902 191.944 55.2888 102.719 55.2888 102.719L199.818 64.4732L35.8574 192.158Z" fill="#D44197"/>
<path d="M429.164 925.871L406.068 926.734L355.998 879L429.164 925.871Z" fill="#544695"/>
<path d="M1739 1170.39L1823 1064L1739 1248V1170.39Z" fill="#112845"/>
<path d="M1205.33 1083.6C1240 1063.5 1340.08 1068.88 1340.08 1068.88L1150 1138.03C1150 1138.03 1170.67 1103.71 1205.33 1083.6Z" fill="#37334B"/>
<path d="M1434.8 64.9442L1561.97 111.871L1361 88.9789L1434.8 64.9442Z" fill="#37334B"/>
<path d="M1753.64 1171.34L1761 1161C1755.47 1192.03 1753.64 1251 1753.64 1251C1753.64 1251 1749.95 1205.48 1753.64 1171.34Z" fill="black"/>
<path d="M1766.22 1173.32L1775 1163C1768.4 1193.96 1761 1292 1761 1292C1761 1292 1761.82 1207.38 1766.22 1173.32Z" fill="black"/>
</svg>
