<svg width="261" height="281" viewBox="0 0 261 281" fill="none" xmlns="http://www.w3.org/2000/svg">
<path d="M193.213 129.774L230.846 156.635L242.25 196.209L186.049 262.598L154.824 188.358L163.872 137.539L194.796 129.302" fill="#3D505D"/>
<path d="M187.894 145.729L222.243 171.387L231.716 191.426L178.158 275.744L147.594 184.377L187.894 145.729Z" fill="#0E1417"/>
<path d="M110.789 257.338L0 226.899L20.7361 193.432L53.9042 141.244L88.3715 130.504L110.789 257.338Z" fill="#3D505D"/>
<path d="M111.689 129.019L57.8499 140.372L56.0781 195.416L109.941 246.306L111.689 129.019Z" fill="#0E1417"/>
<path d="M106.353 65.9007L88.4223 142.259L87.3828 192.275L106.14 217.272L140.111 226.902L189.911 182.055L210.322 119.363L212.684 64.1304L166.618 43.123L106.353 65.9007Z" fill="#FEE0C3"/>
<path d="M178.971 60.4014L147.953 120.591L132.668 206.721L187.877 182.173L212.281 136.854L197.61 60.4014H178.971Z" fill="#EDC9AA"/>
<path d="M91.0703 180.576L97.7532 259.252L182.563 278.985L145.075 171.56L91.0703 180.576Z" fill="#E4BCA0"/>
<path d="M96.5039 259.6L189.368 280.46L145.074 171.56L128.041 174.416L145.074 250.428L96.5039 245.244V259.6Z" fill="#B67D72"/>
<path d="M114.339 156.35C114.339 156.35 99.0775 156.114 93.455 171.149C87.5017 187.082 99.4555 198.388 99.4555 198.388L114.339 184.745V156.35Z" fill="#644831"/>
<path d="M59.1055 13.1221L85.9895 19.92L94.2343 13.7358L59.1055 13.1221Z" fill="#59B0A9"/>
<path d="M64.4141 11.9912L90.8256 56.39C90.8256 56.39 93.6133 39.3244 86.8804 28.7027C77.9742 14.6348 64.4141 11.9912 64.4141 11.9912Z" fill="#701419"/>
<path d="M59.2422 149.293C59.2894 149.34 70.7234 172.472 70.7234 172.472L61.1557 216.918L59.2422 149.293Z" fill="#D44197"/>
<path d="M43.061 186.541L42.7539 190.766C42.7539 190.766 44.5966 196.36 51.7783 205.377C51.7546 205.4 43.7225 190.554 43.061 186.541Z" fill="black"/>
<path d="M44.6895 185.432C44.6659 186.989 44.8549 188.736 44.8549 188.736C44.8549 188.736 50.9026 202.592 59.6435 213.615C59.6199 213.615 48.8474 194.448 44.6895 185.432Z" fill="black"/>
<path d="M88.3008 148.348L98.0575 168.199L115.539 185.926L155.157 188.003L188.207 170.843L202.05 144.1L188.207 192.11L140.415 230.041L105.499 219.962L85.3242 192.11L88.3008 148.348Z" fill="#917760"/>
<path d="M203.353 140.798L183.556 172.144L153.601 186.684L136.828 234.293L190.36 198.722L203.353 140.798Z" fill="#755840"/>
<path d="M156.758 206.863C156.758 206.863 166.846 195.415 159.05 181.394C150.805 166.524 134.41 168.294 134.41 168.294L156.758 206.863Z" fill="#644831"/>
<path d="M133.209 108.127L130.138 98.9455C130.138 98.9455 114.428 93.3278 100.727 102.699C100.727 102.699 122.531 101.329 133.209 108.127Z" fill="#414042"/>
<path d="M148.23 116.932L153.9 109.096L190.588 118.561L180.595 122.833L148.23 116.932Z" fill="#414042"/>
<path d="M211.405 116.062C211.405 116.062 223.737 131.9 216.673 151.609C208.854 173.372 192.719 172.144 192.719 172.144L211.405 116.062Z" fill="#D88570"/>
<path d="M99.4759 97.8857C90.1917 102.087 86.6953 107.988 84.8054 116.887C82.821 126.258 84.451 133.173 88.6325 141.388L99.4759 97.8857Z" fill="#CA7C67"/>
<path d="M176.771 133.881C176.771 133.881 169.92 139.664 160.849 136.902C149.226 133.361 148.848 124.345 148.848 124.345L176.771 133.881Z" fill="#E4BCA0"/>
<path d="M107.343 114.22C107.343 114.22 106.114 122.599 113.012 124.983C124.494 128.949 130.943 121.702 130.943 121.702L107.343 114.22Z" fill="#E4BCA0"/>
<path d="M128.367 121.066C128.367 121.066 116.319 107.446 109.09 114.764C109.066 114.764 113.413 122.175 128.367 121.066Z" fill="#F1F2F2"/>
<path d="M157.566 58.5144L119.319 63.3532L96.2148 110.702L103.42 46.6181L128.367 26.5312L157.566 58.5144Z" fill="#759766"/>
<path d="M204.671 42.1328C204.671 42.1328 168.006 88.8684 214.356 140.136C215.065 138.059 233.138 84.4308 233.138 84.4308L204.671 42.1328Z" fill="#58595B"/>
<path d="M230.256 65.0993C230.256 65.0993 201.316 78.0578 171.857 52.5657C146.249 30.4017 157.73 0 157.73 0L230.256 65.0993Z" fill="#00A14B"/>
<path d="M216.653 54.5473C216.653 54.5473 191.753 78.1039 152.561 62.6198C118.495 49.1656 119.322 14.0195 119.322 14.0195L216.653 54.5473Z" fill="#8DC63F"/>
<path d="M171.978 130.129C171.978 130.129 158.749 117.69 151.496 124.983C151.496 124.983 156.575 133.811 171.978 130.129Z" fill="#F1F2F2"/>
<path d="M109.062 114.763C109.062 114.763 110.74 117.619 115.559 119.531C116.858 118.516 117.709 116.935 117.709 115.141C117.709 114.456 117.591 113.795 117.355 113.182C114.496 112.214 111.496 112.308 109.062 114.763Z" fill="#0060A1"/>
<path d="M151.496 124.982C151.496 124.982 153.032 127.649 156.953 129.443C158.394 128.428 159.316 126.776 159.316 124.888C159.316 124.18 159.174 123.471 158.938 122.858C156.268 122.409 153.622 122.834 151.496 124.982Z" fill="#0060A1"/>
<path d="M150.027 121.204C150.027 121.204 155.154 116.814 161.981 119.387C168.785 121.959 177.148 129.654 177.148 129.654C177.148 129.654 150.925 121.747 150.027 121.204Z" fill="#B67D72"/>
<path d="M108.074 112.214C108.074 112.214 113.201 107.824 120.028 110.396C126.832 112.969 132.667 120.664 132.667 120.664C132.667 120.664 108.972 112.757 108.074 112.214Z" fill="#B67D72"/>
<path d="M113.059 165.25C113.059 165.557 113.059 176.155 113.059 176.155C116.413 181.23 125.508 185.785 140.415 183.024L144.738 174.644L113.059 165.25Z" fill="white"/>
<path d="M128.013 175.967C141.998 179.673 156.29 176.699 156.29 176.699L106.137 158.571C106.137 158.548 108.475 170.798 128.013 175.967Z" fill="#AE605F"/>
<path d="M107.813 162.985C107.813 162.985 107.246 177.549 124.988 182.081C138.264 185.456 155.108 177.431 155.108 177.431C155.108 177.431 142.682 199.194 119.035 189.728C104.718 183.993 103.23 167.258 107.813 162.985Z" fill="#F6A2AD"/>
<path d="M107.176 61.1091L106.609 55.5858L125.06 20.8174L126.383 40.3613L107.176 61.1091Z" fill="#59B0A9"/>
<path d="M178.973 43.7842L212.684 78.0333L190.714 71.7311L178.973 43.7842Z" fill="#B14298"/>
<path d="M113.508 47.9163L132.643 52.283L143.227 26.5312L113.508 47.9163Z" fill="#8DC63F"/>
<path d="M222.77 126.801L190.594 41.8271L218.541 81.2927L222.77 126.801Z" fill="#D44197"/>
<path d="M215.398 78.0811L232.762 109.592C232.762 109.592 236.967 100.339 231.982 89.4581C226.88 78.3171 215.398 78.0811 215.398 78.0811Z" fill="#C49A6C"/>
<path d="M75.9443 80.2275L72.1172 81.9742C72.1172 81.9742 86.5042 97.1751 85.2994 129.441C85.323 129.441 93.9221 109.166 75.9443 80.2275Z" fill="black"/>
<path d="M66.8544 78.5771L64.5156 79.2145C64.5156 79.2145 76.5875 91.8189 80.8398 111.74C78.7609 90.4735 66.8544 78.5771 66.8544 78.5771Z" fill="black"/>
<path d="M178.709 220.035L175.945 221.522C175.945 221.522 199.711 226.243 223.666 226.715C223.666 226.691 196.522 224.142 178.709 220.035Z" fill="black"/>
<path d="M171.883 216.919L175.261 213.614C175.261 213.614 196.853 222.112 234.793 224.142C234.793 224.142 202.003 225.817 171.883 216.919Z" fill="black"/>
<path d="M196.715 174.385C196.715 174.385 197.353 176.887 197.376 177.784C206.85 187.981 216.086 197.54 227.355 215.149C227.355 215.149 215.732 193.362 196.715 174.385Z" fill="black"/>
<path d="M204.223 187.672L205.333 191.614C205.333 191.614 210.696 195.65 220.358 208.915C220.358 208.892 214.192 197.113 204.223 187.672Z" fill="black"/>
<path d="M36.1406 139.969C36.1406 139.969 45.732 141.479 51.9923 155.122C56.8116 165.602 55.1107 177.145 55.1107 177.145C55.1107 177.145 40.9599 153.588 36.1406 139.969Z" fill="#267647"/>
<path d="M40.6992 153.002L64.8665 176.299C64.8665 176.299 66.0713 166.904 58.6062 158.549C51.0229 150.028 40.6992 153.002 40.6992 153.002Z" fill="#FEE0C3"/>
<path d="M48.4961 114.834L59.8592 112.379L56.5282 116.156L48.4961 114.834Z" fill="#CD1A53"/>
<path d="M36.2076 57.498L34.6484 61.2038L38.8771 64.3195L36.2076 57.498Z" fill="#F43874"/>
<path d="M245.402 138.529L256.317 142.566L251.474 143.958L245.402 138.529Z" fill="#CD1A53"/>
<path d="M199.334 182.177L177.718 202.051L166.898 200.422L199.334 182.177Z" fill="#917760"/>
<path d="M206.227 20.6541L232.213 45.6269C232.213 45.6269 236.985 33.0225 227.512 23.5574C218.039 14.1158 206.227 20.6541 206.227 20.6541Z" fill="#F2CAB3"/>
<path d="M211.312 16.9019L245.945 41.2375C245.945 41.2375 242.685 26.0602 234.015 19.8524C225.345 13.6446 211.312 16.9019 211.312 16.9019Z" fill="#79C476"/>
<path d="M218.824 65.8808C218.824 65.8808 260.166 14.8494 260.001 16.0532C259.835 17.2334 255.252 49.0749 255.252 49.0749L218.824 65.8808Z" fill="#93278F"/>
<path d="M147.947 120.591L133.938 157.082L152.506 159.655L147.947 120.591Z" fill="#E4BCA0"/>
<path d="M115.09 143.181L153.148 157.39C153.148 157.39 132.264 161.544 131.816 161.379C131.367 161.238 123.075 158.57 123.075 158.57L115.09 143.181Z" fill="#BF7F66"/>
<path d="M99.4766 159.256L160.497 180.004C160.497 180.004 162.812 168.768 126.904 156.777C105.548 149.626 99.4766 159.256 99.4766 159.256Z" fill="#978A79"/>
<path d="M109.062 91.5581C109.062 91.5581 117.614 86.3889 141.947 89.3865C141.947 89.3865 127.962 85.6335 110.976 87.6163L109.062 91.5581Z" fill="#EDC9AA"/>
<path d="M114.922 85.257C114.922 85.257 123.852 80.7487 147.877 85.5402C147.877 85.5402 135.947 79.7809 118.489 81.386L114.922 85.257Z" fill="#EDC9AA"/>
</svg>
