<svg width="30" height="19" viewBox="0 0 30 19" fill="none" xmlns="http://www.w3.org/2000/svg">
<path d="M12.1074 8.49431C12.1074 8.49431 14.9464 8.28354 14.9464 4.95431C14.9464 1.62484 12.6237 0 9.68153 0H0V18.6055H9.68153C9.68153 18.6055 15.5918 18.7922 15.5918 13.114C15.5918 13.1141 15.8494 8.49431 12.1074 8.49431ZM8.98467 3.30692H9.68153C9.68153 3.30692 10.9975 3.30692 10.9975 5.24275C10.9975 7.17834 10.2236 7.45897 9.34572 7.45897H4.26581V3.30692H8.98467ZM9.40795 15.2987H4.26581V10.3266H9.68153C9.68153 10.3266 11.643 10.3009 11.643 12.8818C11.643 15.058 10.178 15.2823 9.40795 15.2987ZM23.4741 4.7338C16.3191 4.7338 16.3254 11.8826 16.3254 11.8826C16.3254 11.8826 15.8345 18.9947 23.4741 18.9947C23.4741 18.9947 29.8403 19.3584 29.8403 14.0472H26.5662C26.5662 14.0472 26.6754 16.0473 23.5833 16.0473C23.5833 16.0473 20.3087 16.2668 20.3087 12.8104H29.9495C29.9495 12.8103 31.0043 4.7338 23.4741 4.7338ZM20.2727 10.3266C20.2727 10.3266 20.6725 7.45891 23.5468 7.45891C26.4205 7.45891 26.3845 10.3266 26.3845 10.3266H20.2727ZM27.1472 3.38724H19.4711V1.0961H27.1472V3.38724Z" fill="white"/>
</svg>
