<svg width="1347" height="939" viewBox="0 0 1347 939" fill="none" xmlns="http://www.w3.org/2000/svg">
<path d="M369.808 924L276 855.138L1092.25 726L1221 890.019L369.808 924Z" fill="#AC1888"/>
<path d="M1129.62 849.289L1167.59 917.214L831.617 938.015L1129.62 849.289Z" fill="#D02AA8"/>
<path d="M1162.08 762.706L1136.52 804.995L1117.96 792.872L1162.08 762.706Z" fill="#E1A710"/>
<path d="M1003.84 0.701189L1068.08 193.727L318.84 142.939L1003.84 0.701189Z" fill="#AC1888"/>
<path d="M174.697 205.711L159.763 212.513L113.994 194.683L174.697 205.711Z" fill="#FF5A5A"/>
<path d="M243.152 653L0 67L1217.55 142.088L1323 563.36L243.152 653Z" fill="#66094F"/>
<path d="M7 885L118.543 502L1194.26 577.15L1347 795.286L7 885Z" fill="#520C40"/>
</svg>
