<svg width="354" height="1211" viewBox="0 0 354 1211" fill="none" xmlns="http://www.w3.org/2000/svg">
<path d="M167.297 218.546L165.469 221.808L169.879 226.948L167.297 218.546Z" fill="#C8BEC2"/>
<path d="M28.7379 674.381L26.9102 677.643L31.3207 682.783L28.7379 674.381Z" fill="#527325"/>
<path d="M210.844 792.618L335.14 1241.99L487.239 993.127L210.844 792.618Z" fill="#395A0B"/>
<path d="M304.914 906.236L392.762 1233.41L527.105 1040.78L511.918 903.346L304.914 906.236Z" fill="#267647"/>
<path d="M132.785 588.314L181.382 807.744L352.172 941.241L451.469 955.957L563.148 847.951L657.539 431.429L555.438 158.391L149.374 303.976L132.785 588.314Z" fill="#84B145"/>
<path d="M657.357 430.906C657.357 425.651 528.227 272.064 528.227 272.064L524.723 302.285L152.302 451.287L137.582 615.793L75.4344 497.538L47.1641 338.813L96.9292 158.013L321.924 50.0068L538.823 89.9378L668.465 203.411L657.357 430.906Z" fill="#395A0B"/>
<path d="M220.449 151.953L640.9 229.729C640.9 229.729 552.536 335.898 408.25 312.196C263.963 288.494 220.449 151.953 220.449 151.953Z" fill="#D1B72A"/>
<path d="M244 0.266602L779.011 237.956C779.011 237.956 635.557 349.636 451.201 272.011C266.844 194.385 244 0.266602 244 0.266602Z" fill="#5F9F43"/>
<path d="M210.758 503.38L239.262 494.445L352.343 523.878L372.67 555.413L210.758 503.38Z" fill="#447C2B"/>
<path d="M230.836 581.249C230.836 581.249 278.725 621.328 330.726 593.505C330.726 593.505 288.126 554.089 230.836 581.249Z" fill="#447C2B"/>
<path d="M212.16 671.828L246.505 714.4L276.645 691.275L212.16 643.71V671.828Z" fill="#5F9F43"/>
<path d="M310.289 851.051C310.289 851.051 372.671 861.037 418.931 855.781C465.192 850.525 484.817 835.021 484.817 835.021L393.231 840.013L310.289 851.051Z" fill="#99C263"/>
<path d="M10.763 953.539L0.015625 972.723L25.9496 1002.94L10.763 953.539Z" fill="#395A0B"/>
<path d="M214.723 551.924L230.597 580.976C230.597 580.976 301.272 576.5 346.836 601.261C346.836 601.261 296.15 545.981 214.723 551.924Z" fill="#5F9F43"/>
<path d="M310.289 851.051L381.315 830.816C381.315 830.816 401.876 839.751 434.819 828.714L484.817 834.758L310.289 851.051Z" fill="#395A0B"/>
</svg>
