<svg xmlns="http://www.w3.org/2000/svg" width="1623" height="2392" fill="none" xmlns:v="https://vecta.io/nano"><path d="M357.059 1526.03l271.147 865.09 331.8-479.09-602.947-386z" fill="#395a0b"/><path d="M562.266 1744.76l191.638 629.84 293.066-370.82-33.13-264.59-451.574 5.57z" fill="#267647"/><path d="M788.055 1853.02l91.741 301.01 251.984-82.91-52.7-404.27-291.025 186.17z" fill="#5f9f43"/><path d="M186.777 1132.72l106.013 422.43 372.574 256.99 216.612 28.33 243.624-207.92 205.91-801.856-222.73-525.632-885.816 280.27-36.187 547.388z" fill="#84b145"/><path d="M1157.07 1254.03l-220.695 89.04 96.325 115.35s98.37-87.02 98.37-93.09c-.51-6.07 26-111.3 26-111.3z" fill="#5f9f43"/><path d="M1331.12 829.688c0-10.118-281.7-305.791-281.7-305.791l-7.64 58.179-812.426 286.846-32.109 316.698L61.671 957.961 0 652.396l108.561-348.06L599.38 96.41l473.16 76.872 282.81 218.449-24.23 437.957z" fill="#395a0b"/><path d="M378.008 292.667l917.202 149.729s-192.76 204.389-507.52 158.759-409.682-308.488-409.682-308.488z" fill="#d1b72a"/><path d="M429.387.654L1596.5 458.236s-312.94 214.997-715.111 65.559S429.387.654 429.387.654z" fill="#5f9f43"/><path d="M356.867 969.209l62.181-17.201 246.683 56.662 44.342 60.71-353.206-100.171zM797.32 1063.3l40.265-61.72 253.725-42.996 35.17 19.224-329.16 85.492zm-396.652 55.82s104.468 77.15 217.908 23.59c0 0-92.931-75.88-217.908-23.59z" fill="#447c2b"/><path d="M359.93 1293.49l74.922 81.96 65.748-44.52-140.67-91.57v54.13z" fill="#5f9f43"/><path d="M720.781 1372.41l55.045 7.09-4.587-203.88-50.458 196.79z" fill="#395a0b"/><path d="M768.18 1396.7l-8.664 33.89 31.09 10.62-22.426-44.51z" fill="#5f9f43"/><path d="M573.992 1638.52s136.084 19.22 237 9.1 143.729-39.96 143.729-39.96l-199.794 9.61-180.935 21.25z" fill="#99c263"/><path d="M1039.62 1103.36c-59.591 5.19-120.666 29.64-131.839 39.27 0 0 43.2 25.93 116.189 21.49 92.36-5.93 108.75-57.06 108.75-57.06s-33.52-8.89-93.1-3.7z" fill="#447c2c"/><path d="M365.523 1062.66l34.629 55.93s154.175-8.62 253.572 39.05c0 0-110.569-106.42-288.201-94.98zm817.407-5.69l-40.3 65.43s-143.281-28.26-258.95 28.25c0 0 92.535-107.07 299.25-93.68z" fill="#5f9f43"/><path d="M573.992 1638.52l154.942-38.96s44.851 17.2 116.716-4.05l109.071 11.64-380.729 31.37z" fill="#395a0b"/><path d="M959.82 1553.02s6.116 23.78 6.626 32.38c91.234 97.64 180.424 189.2 288.984 357.67 0 0-112.13-208.43-295.61-390.05zm72.37 126.98l10.7 37.94s51.48 38.96 144.75 165.43c.51 0-59.12-112.81-155.45-203.37z" fill="#000"/><path d="M1184.25 250.152s271.17 71.941 339.02 371.33c52.07 229.706-115.38 451.548-115.38 451.548s-184.87-530.397-223.64-822.878z" fill="#267647"/></svg>