<svg width="360" height="474" viewBox="0 0 360 474" fill="none" xmlns="http://www.w3.org/2000/svg">
<g clip-path="url(#clip0_817_12888)">
<rect width="360" height="472.7" transform="translate(0 0.445312)" fill="#5F41C1"/>
<path d="M0 0.445312H360V473.145H0V0.445312Z" fill="#5F41C1"/>
<path d="M230.733 280.476L242.42 270.612L237.016 290.744L226.883 300.337L230.733 280.476Z" fill="#6F6469"/>
<path d="M154.734 293.581L190.673 409.103L234.65 345.127L154.734 293.581Z" fill="#C8BEC2"/>
<path d="M170.406 309.255L194.726 391.674L230.259 333.913L170.406 309.255Z" fill="#6F6469"/>
<path d="M170.406 300.337L195.806 384.445L234.65 334.926L230.259 299.594L170.406 300.337Z" fill="#A0969A"/>
<path d="M200.332 314.794L212.492 354.991L239.581 318.848L238.905 289.934L200.332 314.794Z" fill="#6F6469"/>
<path d="M117.715 232.308L131.766 288.718L181.148 323.037L209.858 326.82L242.149 299.054L269.44 191.977L239.919 121.785L122.511 159.212L117.715 232.308Z" fill="#D2C7CC"/>
<path d="M249.243 234.808L219.992 246.698L232.76 262.101C232.76 262.101 245.798 250.481 245.798 249.67C245.73 248.859 249.243 234.808 249.243 234.808Z" fill="white"/>
<path d="M23.4766 72.1984L66.5758 81.9941L90.4222 23.9629L23.4766 72.1984Z" fill="white"/>
<path d="M94.9492 77.9401L96.4354 90.1003L125.348 57.9434L94.9492 77.9401Z" fill="#B14298"/>
<path d="M262.685 181.775C262.685 180.424 234.042 132.458 234.042 132.458L233.029 140.227L125.348 178.532L121.092 220.823L103.123 190.422L94.9492 149.618L109.338 103.139L174.392 75.373L228.57 87.263L258.226 117.123L262.685 181.775Z" fill="#80809D"/>
<path d="M122.984 56.5928L184.256 72.0633L203.035 57.9439L122.984 56.5928Z" fill="#59B0A9"/>
<path d="M135.074 53.958L195.264 155.225C195.264 155.225 201.615 116.313 186.28 92.1275C166.014 60.0381 135.074 53.958 135.074 53.958Z" fill="#701419"/>
<path d="M96.9727 132.864L216.002 101.045C216.002 101.045 203.91 136.445 163.378 148.064C122.846 159.684 96.9727 132.864 96.9727 132.864Z" fill="#7BC143"/>
<path d="M198.102 147.051C198.102 147.051 209.383 182.788 220.597 201.637L222.826 200.218C222.826 200.218 205.6 165.291 198.102 147.051Z" fill="black"/>
<path d="M198.102 139.756C198.102 139.756 209.518 170.9 218.03 187.113H222.016C222.016 187.113 210.261 166.103 198.102 139.756Z" fill="black"/>
<path d="M143.184 196.773L151.425 194.477L184.121 202.043L189.998 210.15L143.184 196.773Z" fill="black"/>
<path d="M209.855 207.38L215.192 199.138L240.525 195.354L245.186 197.922L209.855 207.38Z" fill="black"/>
<path d="M167.296 309.255L136.627 288.177L104.539 166.103L167.296 309.255Z" fill="#6F6469"/>
<path d="M155.883 217.918C155.883 217.918 166.894 226.092 178.851 220.418C178.851 220.418 169.056 212.378 155.883 217.918Z" fill="#759766"/>
<path d="M143.586 240.077L153.516 251.021L162.231 245.076L143.586 232.849V240.077Z" fill="white"/>
<path d="M191.414 250.615L198.71 251.561L198.102 224.336L191.414 250.615Z" fill="white"/>
<path d="M200.672 243.522L201.55 251.021L203.779 248.454L200.672 243.522Z" fill="#6F6469"/>
<path d="M197.699 253.858L196.551 258.385L200.672 259.803L197.699 253.858Z" fill="#6F6469"/>
<path d="M171.957 286.15C171.957 286.15 189.994 288.717 203.369 287.366C216.745 286.015 222.42 282.029 222.42 282.029L195.939 283.313L171.957 286.15Z" fill="#759766"/>
<path d="M134.199 358.099C134.267 358.166 149.737 389.512 149.737 389.512L136.834 449.706L134.199 358.099Z" fill="#D44197"/>
<path d="M112.312 408.496L111.906 414.238C111.906 414.238 114.406 421.805 124.133 434.033C124.066 434.033 113.19 413.968 112.312 408.496Z" fill="black"/>
<path d="M114.472 407.01C114.404 409.104 114.674 411.468 114.674 411.468C114.674 411.468 122.848 430.249 134.67 445.179C134.738 445.179 120.146 419.238 114.472 407.01Z" fill="black"/>
<path d="M85.3575 312.497L82.25 317.429L89.7485 325.198L85.3575 312.497Z" fill="#C8BEC2"/>
<path d="M275.183 354.383H281.195L270.387 361.138L275.183 354.383Z" fill="#80809D"/>
<path d="M264.845 327.562L261.332 329.454C261.332 329.454 291.664 335.467 322.333 336.075C322.265 336.075 287.61 332.764 264.845 327.562Z" fill="black"/>
<path d="M256.133 323.576L260.456 319.32C260.456 319.32 288.086 330.197 336.522 332.764C336.522 332.764 294.638 334.926 256.133 323.576Z" fill="black"/>
<path d="M334.021 321.145L334.697 339.25L297.34 378.5L334.021 321.145Z" fill="#267647"/>
<path d="M315.105 129.757L327.806 127.055L324.09 131.243L315.105 129.757Z" fill="#80809D"/>
<path d="M305.445 211.433V218.053C305.445 218.053 310.106 219.675 310.444 219.877C310.85 220.08 305.445 211.433 305.445 211.433Z" fill="#701419"/>
<path d="M301.393 65.7129L299.637 69.8338L304.365 73.3468L301.393 65.7129Z" fill="#297D3D"/>
<path d="M229.246 216.162C223.842 216.635 218.302 218.864 217.289 219.742C217.289 219.742 221.207 222.107 227.827 221.701C236.204 221.161 237.69 216.5 237.69 216.5C237.69 216.5 234.65 215.689 229.246 216.162Z" fill="#759766"/>
<path d="M152.234 211.973L155.882 217.918C155.882 217.918 168.38 215.351 178.85 220.418C178.85 220.418 170.947 210.757 152.234 211.973Z" fill="#80809D"/>
<path d="M242.218 211.973L238.57 217.918C238.57 217.918 225.6 215.351 215.129 220.486C215.129 220.486 223.506 210.757 242.218 211.973Z" fill="#80809D"/>
<path d="M171.957 286.151L192.493 280.949C192.493 280.949 198.438 283.246 207.963 280.408L222.42 281.962L171.957 286.151Z" fill="#80809D"/>
<path d="M223.098 274.733C223.098 274.733 223.908 277.909 223.976 279.057C236.068 292.095 247.89 304.323 262.279 326.82C262.279 326.82 247.417 298.986 223.098 274.733Z" fill="black"/>
<path d="M232.691 291.689L234.11 296.756C234.11 296.756 240.933 301.958 253.295 318.847C253.363 318.847 245.459 303.782 232.691 291.689Z" fill="black"/>
<path d="M160.274 104.626L136.292 271.153C136.292 271.153 116.297 227.174 109.879 189.747C109.879 189.747 109.744 107.936 160.274 104.626Z" fill="#759766"/>
<path d="M143.181 78.2783L112.309 149.618L133.115 135.837L143.181 78.2783Z" fill="#701419"/>
<path d="M110.148 144.688L107.648 159.55L169.055 184.005L110.148 144.688Z" fill="#297D3D"/>
<path d="M118.929 202.312L161.488 271.153C161.488 271.153 138.115 274.125 121.767 244.603C108.999 221.431 118.929 202.312 118.929 202.312Z" fill="#297D3D"/>
<path d="M76.1016 172.452L127.713 224.876L94.1384 215.216L76.1016 172.452Z" fill="#B14298"/>
<path d="M109.135 196.165L107.176 200.759C107.176 200.759 131.9 202.853 156.422 232.308C156.355 232.308 147.911 207.582 109.135 196.165Z" fill="black"/>
<path d="M99.2022 200.219L97.6484 202.651C97.6484 202.651 118.32 204.272 137.843 218.527C119.13 201.367 99.2022 200.219 99.2022 200.219Z" fill="black"/>
<path d="M281.532 224.876L191.82 109.827L253.362 157.117L281.532 224.876Z" fill="#D44197"/>
<path d="M252.887 161.778C252.887 161.778 269.37 164.345 280.111 187.855C288.352 205.893 285.448 225.755 285.448 225.755C285.448 225.755 261.128 185.22 252.887 161.778Z" fill="#267647"/>
<path d="M260.727 184.207L302.272 224.336C302.272 224.336 304.299 208.19 291.531 193.8C278.426 179.073 260.727 184.207 260.727 184.207Z" fill="#D44197"/>
<path d="M158.383 171.777L273.224 88.8172C273.224 88.8172 245.73 64.6319 197.361 96.2484C158.518 121.582 158.383 171.777 158.383 171.777Z" fill="#7BC143"/>
<path d="M190.673 145.904L189.254 131.446L237.69 39.9746L241.135 91.3853L190.673 145.904Z" fill="#59B0A9"/>
</g>
<defs>
<clipPath id="clip0_817_12888">
<rect width="360" height="472.7" fill="white" transform="translate(0 0.445312)"/>
</clipPath>
</defs>
</svg>
