<svg width="260" height="341" viewBox="0 0 260 341" fill="none" xmlns="http://www.w3.org/2000/svg">
<path d="M0 0H260V340.826H0V0Z" fill="#A2C61D"/>
<path d="M117.882 307.541C117.391 308.154 98.7534 246.931 89.4961 216.243L167.597 207.497L166.216 239.106C150.31 261.662 118.373 306.927 117.882 307.541Z" fill="#BE77B6"/>
<path d="M137.831 292.811L122.641 239.873L171.282 203.661V240.794L137.831 292.811Z" fill="#641D5C"/>
<path d="M125.556 289.741C124.942 289.864 110.364 245.09 103.152 222.688H152.868L153.942 252.915C144.735 265.139 126.169 289.618 125.556 289.741Z" fill="#964F8E"/>
<path d="M135.682 269.027L123.867 231.127L150.873 227.291L152.714 249.233L135.682 269.027Z" fill="#641D5C"/>
<path d="M120.977 243.436L84.4343 217.9L62.6406 137.113L79.3713 102.112L164.122 98.5898C171.753 115.687 187.015 150.188 187.015 151.421C187.015 152.654 174.835 201.097 168.744 225.165L144.31 247.178L120.977 243.436Z" fill="#C881C0"/>
<path d="M236.97 251.989C218.783 245.675 198.623 242.724 190.816 242.038C214.378 242.929 230.192 247.471 239.028 250.188C239.356 250.289 236.97 251.989 236.97 251.989Z" fill="#060701"/>
<path d="M239.455 256.622C213.307 248.112 189.556 243.869 180.949 242.811C216.843 246.379 236.396 252.762 241.685 255.507L239.455 256.622Z" fill="#060701"/>
<path d="M67.6033 313.446C66.9319 313.088 66.3231 312.768 65.7891 312.491C66.3207 312.748 66.9302 313.07 67.6033 313.446C73.587 316.637 84.5461 322.85 91.9176 328.318V329.613C86.1423 325.467 73.999 317.017 67.6033 313.446Z" fill="black"/>
<path d="M94.1918 328.336C86.1926 322.217 79.5851 317.953 77.2812 316.586C84.1 319.977 90.4441 324.296 92.7638 326.032L94.1918 328.336Z" fill="black"/>
<path d="M220.968 291.448C220.172 292.244 224.884 255.006 227.34 236.288L235.903 247.24C231.257 261.644 221.765 290.651 220.968 291.448Z" fill="#580DDD"/>
<path d="M172.777 302.997L188.309 251.024L215.392 238.678L172.777 302.997Z" fill="#7D9105"/>
<path d="M32.1896 253.812L18.8477 227.726L84.3621 240.47L32.1896 253.812Z" fill="#BE77B6"/>
<path d="M96.1102 323.706L45.5312 289.854L132.751 319.524L96.1102 323.706Z" fill="#0BD90C"/>
<path d="M103.901 197.601L86.6806 179.846L85.8242 166.904L116.521 187.226L103.901 197.601Z" fill="white"/>
<path d="M129.156 159.839L95.3945 144.37L104.549 146.529C111.488 149.523 125.493 155.674 126.004 156.335C126.515 156.996 128.318 158.946 129.156 159.839Z" fill="black"/>
<path d="M147.457 160.262L149.497 155.511L165.596 145.211L169.4 144.192L147.457 160.262Z" fill="black"/>
<path d="M225.734 102.944L228.228 83.6582C230.278 92.4143 234.512 110.392 235.044 112.254C235.576 114.116 229.059 106.823 225.734 102.944Z" fill="#7D9105"/>
<path d="M192.98 56.0582L199.298 32.9492L230.387 73.8476L192.98 56.0582Z" fill="#FE3752"/>
<path d="M215.598 164.053L216.677 157.321L220.106 168.053L215.598 164.053Z" fill="#2886D1"/>
<path d="M35.1823 50.3729L23.9648 49.0102L39.6895 36.3252L35.1823 50.3729Z" fill="white"/>
<path d="M65.0613 65.3641L63.4883 58.5497L77.221 46.1797L65.0613 65.3641Z" fill="#6DE5A6"/>
<path d="M91.2794 211.185L86.5742 191.719L98.7666 204.66L104.007 219.527L91.2794 211.185Z" fill="#641D5C"/>
<path d="M133.03 207.694L115.867 222.696L140.542 217.589L156.563 209.13L144.205 205.174L139.791 210.121L133.03 207.694Z" fill="#7D9105"/>
<path d="M137.447 204.308L136.221 196.606L134.121 203.258L137.447 204.308Z" fill="#641D5C"/>
<path d="M137.885 194.68L137.359 184.177C138.264 186.131 140.055 190.128 139.985 190.478C139.915 190.829 138.556 193.425 137.885 194.68Z" fill="#641D5C"/>
<path d="M135.873 194.417V159.495L132.824 193.587L135.873 194.417Z" fill="white"/>
<path d="M162.65 191.179L159.5 185.928L167.29 183.827L166.677 187.241L162.65 191.179Z" fill="white"/>
<path d="M139.193 226.087L115.867 222.796L156.563 209.131L147.878 222.548H142.652L139.193 226.087Z" fill="#28BC46"/>
<path d="M162.218 213.323L160.992 219.362L164.318 215.774L165.806 211.135L162.218 213.323Z" fill="#641D5C"/>
<path d="M101.986 164.641L99.0781 155.247C113.571 156.619 122.314 164.715 124.874 168.592L101.986 164.641Z" fill="#7D9105"/>
<path d="M171.204 157.049C159.748 156.198 150.756 162.693 147.691 166.047L167.14 164.789C173.267 162.564 182.659 157.9 171.204 157.049Z" fill="#7D9105"/>
<path d="M113.926 163.144C107.734 162.06 103.734 163.596 102.508 164.499C104.443 165.821 109.165 168.795 112.571 170.111C115.976 171.427 121.601 169.562 123.987 168.466C123.213 167.144 120.117 164.228 113.926 163.144Z" fill="#28BC46"/>
<path d="M167.24 164.884C166.193 163.757 162.566 162.302 158.242 162.449C154.01 162.593 149.105 164.884 146.922 166.819C148.534 167.593 152.648 168.922 157.834 169.076C163.02 169.231 166.402 166.432 167.24 164.884Z" fill="#28BC46"/>
<path d="M52.9961 122.727L77.4366 166.451L81.7589 135.528L163.057 115.411L187.164 151.821L181.844 93.9647L164.387 67.8628L132.965 54.0635L69.6224 77.1727L52.9961 122.727Z" fill="#7D9105"/>
<path d="M67.2949 176.759L72.2837 82.6592C61.6432 87.4806 40.329 104.206 40.196 132.536C40.063 160.865 58.2065 173.822 67.2949 176.759Z" fill="#580DDD"/>
<path d="M104.533 129.045L163.555 41.2627C150.753 37.771 123.654 43.7559 108.524 69.1934C96.6369 89.1793 100.211 116.964 104.533 129.045Z" fill="#90F31D"/>
<path d="M139.28 116.242L66.4609 82.6584C72.9454 75.5107 91.2333 67.0318 111.849 76.8405C129.534 85.2547 138.061 107.929 139.28 116.242Z" fill="#90F31D"/>
<path d="M133.633 125.886L138.286 29.458C143.441 34.6119 153.815 51.171 154.081 76.1756C154.347 101.18 140.56 119.734 133.633 125.886Z" fill="#2886D1"/>
<path d="M101.211 17.8213L117.005 110.757C125.595 103.331 141.777 82.3278 137.787 57.7222C133.797 33.1166 111.74 20.8692 101.211 17.8213Z" fill="#28BC46"/>
<path d="M151.756 70.2915L77.4309 109.918C76.9764 101.147 81.7703 80.7326 104.582 69.2429C127.393 57.7533 145.536 65.1546 151.756 70.2915Z" fill="#580DDD"/>
<path d="M160.492 117.377L208.07 164.845C208.07 158.443 205.32 142.475 194.321 129.817C183.322 117.159 167.185 116.249 160.492 117.377Z" fill="#580DDD"/>
<path d="M219.966 161.243L183.848 138.11C186.794 135.054 195.436 130.776 206.435 138.11C217.435 145.443 220.039 156.587 219.966 161.243Z" fill="#0BD90C"/>
<path d="M200.59 148.698L153.109 118.483L174.438 115.437L200.59 148.698Z" fill="#0BD90C"/>
<path d="M101.438 137.174L193.899 66.832C193.899 77.5948 188.196 103.041 165.385 118.724C142.574 134.407 113.249 137.559 101.438 137.174Z" fill="#0BD90C"/>
<path d="M103.428 133.505C102.673 133.757 146.444 80.2152 168.424 53.4131C170.695 66.5521 177.754 89.161 156.788 112.958C138.737 133.445 104.371 133.191 103.428 133.505Z" fill="#6DE5A6"/>
<path d="M192.747 82.5566L133.307 102.894C129.324 110.023 121.293 124.427 121.042 125.014C120.79 125.601 138.758 121.135 147.774 118.829L192.747 82.5566Z" fill="#FE3752"/>
<path d="M166.566 103.503L81.5078 118.229L83.0312 148.952L166.566 103.503Z" fill="#2886D1"/>
<path d="M106.113 156.083C96.6599 163.785 81.6354 167.461 75.3047 168.336C89.3788 164.065 101.708 156.812 106.113 153.72V156.083Z" fill="black"/>
<path d="M102.07 162.663V160.632C90.5633 168.249 76.1719 171.55 58.9062 172.312C81.7578 174.597 95.8919 166.81 102.07 162.663Z" fill="black"/>
<path d="M189.164 210.651C177.789 224.667 159.711 239.004 152.094 244.421C162.504 235.534 175.453 225.127 186.117 210.651C187.133 210.397 188.402 210.397 189.164 210.651Z" fill="black"/>
<path d="M175.341 219.54C168.489 227.903 160.256 234.58 156.996 236.873C164.819 229.913 170.237 223.452 171.969 221.091C172.868 220.507 174.655 219.725 175.341 219.54Z" fill="black"/>
</svg>
