<svg width="154" height="202" viewBox="0 0 154 202" fill="none" xmlns="http://www.w3.org/2000/svg">
<path d="M0 0H153.335V201.002H0V0Z" fill="#E64EF9"/>
<path d="M76.1512 177.775L61.7109 130.286L76.1512 132.966L95.9507 150.532L76.1512 177.775Z" fill="#7ED4C3"/>
<path d="M85.2305 154.551L79.8712 139.217L63.6445 133.263L75.2563 168.098L85.2305 154.551Z" fill="#56AC9B"/>
<path d="M97.5879 139.218V126.564L65.8789 130.882L78.0861 169.29L97.5879 139.218Z" fill="#247A69"/>
<path d="M77.7868 156.487L73.1719 143.237H79.5732L82.8483 152.914L77.7868 156.487Z" fill="#7ED4C3"/>
<path d="M50.3952 125.075L38.0391 78.6278L45.6314 63.7409L101.01 60.4658L110.24 86.0712L99.5218 128.052L84.3372 141.897L72.13 140.855L50.3952 125.075Z" fill="#88DECD"/>
<path d="M34.168 72.8224L45.482 95.4504L47.1195 80.5636L91.1846 66.8677L88.9516 55.8514L109.793 81.9034L104.732 38.2849L71.6829 29.9482L40.5693 44.2396L34.168 72.8224Z" fill="#8F6BCE"/>
<path opacity="0.5" d="M130.49 152.02L129.895 153.807L134.807 151.127L130.49 152.02Z" fill="#5322E6"/>
<path d="M140.016 145.023C129.06 141.45 117.289 139.565 112.773 139.068C112.773 139.068 129.149 142.016 138.677 146.065C139.272 146.065 140.016 145.47 140.016 145.023Z" fill="black"/>
<path d="M141.95 148.149C128.254 143.237 111.184 139.862 106.668 139.366C106.668 139.366 126.17 143.088 140.61 149.192C141.205 149.192 141.95 148.596 141.95 148.149Z" fill="black"/>
<path d="M41.1671 190.28H38.7852L52.1833 185.963L41.1671 190.28Z" fill="black"/>
<path d="M70.6441 65.5283L49.207 10.8936C55.3106 11.489 69.0661 16.5208 75.259 31.884C81.452 47.2473 74.7628 60.7149 70.6441 65.5283Z" fill="#18BAB9"/>
<path d="M49.6523 85.6253L46.9727 66.8678L96.2482 54.5117L49.6523 85.6253Z" fill="#284CF0"/>
<path d="M37.4454 99.6189L42.2092 46.7705C36.8003 48.4577 25.2977 56.0897 22.5585 73.1203C19.8194 90.1508 31.3418 97.8821 37.4454 99.6189Z" fill="#5322E6"/>
<path opacity="0.5" d="M52.9274 30.3951L26.7266 28.1621L48.1636 35.0101L52.9274 30.3951Z" fill="#A44F33"/>
<path d="M51.4395 81.0107L19.7305 90.3895L40.4232 91.8782L51.4395 81.0107Z" fill="#A44F33"/>
<path d="M40.8695 16.1035L6.33203 19.9741L47.4198 39.6248L40.8695 16.1035Z" fill="white"/>
<path d="M80.6147 62.8486L42.3555 34.8613C42.3555 40.171 42.3555 52.4278 52.7763 60.169C61.7797 66.8572 74.8088 65.0817 80.6147 62.8486Z" fill="#2AD425"/>
<path d="M80.3181 53.4698L78.3828 60.4666L108.752 49.1526L117.535 28.1621L80.3181 53.4698Z" fill="#267849"/>
<path d="M58.8828 74.9071L109.498 41.5605C110.937 47.813 110.481 62.6403 97.142 71.9297C83.8034 81.2191 66.0781 77.7852 58.8828 74.9071Z" fill="#A44F33"/>
<path d="M117.088 40.2203L109.496 26.5244L141.949 30.2461L117.088 40.2203Z" fill="#FBE216"/>
<path d="M76.7461 70.4409L100.565 20.7188C102.054 26.1276 106.669 37.392 98.6298 53.4698C92.2897 66.15 81.9069 70.292 76.7461 70.4409Z" fill="#284CF0"/>
<path d="M86.2747 40.3692C102.472 33.4617 113.17 38.5827 116.495 42.0067L64.2422 69.1009C64.8377 62.4018 70.0778 47.2767 86.2747 40.3692Z" fill="#2AD425"/>
<path d="M94.4609 66.2725L112.921 101.852C114.211 97.783 115.66 87.4416 111.134 78.6286C106.609 69.8155 98.133 66.7191 94.4609 66.2725Z" fill="#5322E6"/>
<path d="M120.068 102.001L104.734 81.3084C107.067 80.713 112.803 80.9809 117.09 86.8166C121.378 92.6522 120.862 99.3712 120.068 102.001Z" fill="#CAEF5C"/>
<path d="M122.449 96.4931L123.491 79.6709C127.015 87.8091 134.15 104.234 134.508 104.83C134.865 105.425 126.618 99.5201 122.449 96.4931Z" fill="#284CF0"/>
<path d="M129.744 85.4758C118.877 77.3872 96.9041 61.0613 95.9513 60.4658L91.1875 69.9934L129.744 85.4758Z" fill="#CAEF5C"/>
<path d="M59.3289 85.1787L55.0117 85.7742L76.7465 89.347C75.9029 88.6523 74.1562 87.2331 73.918 87.114C73.6798 86.9949 64.0927 85.7742 59.3289 85.1787Z" fill="black"/>
<path d="M98.1855 84.1367L87.467 87.5607L85.3828 89.7937L101.014 84.8811L98.1855 84.1367Z" fill="black"/>
<path d="M80.9122 111.975L79.4235 91.4307L73.4688 111.528L80.9122 111.975Z" fill="white"/>
<path d="M63.9443 106.318C61.1654 104.482 55.4588 100.78 54.8633 100.661L55.6076 104.234L60.3714 108.849L63.9443 106.318Z" fill="white"/>
<path d="M95.206 114.804L88.8047 106.616L103.543 100.661L101.607 108.105L95.206 114.804Z" fill="white"/>
<path d="M83.5933 111.975L82.4023 105.425C83.3452 106.715 85.2904 109.355 85.5286 109.593C85.7668 109.831 84.3376 111.28 83.5933 111.975Z" fill="#247A69"/>
<path d="M78.9805 117.483L80.1714 113.762L82.1067 118.079L78.9805 117.483Z" fill="#247A69"/>
<path d="M56.3502 117.632L54.1172 114.804L55.1593 119.419L57.5412 120.907L56.3502 117.632Z" fill="#247A69"/>
<path d="M95.6545 122.247L94.9102 125.522L96.8454 124.777L97.4409 121.056L95.6545 122.247Z" fill="#247A69"/>
<path d="M78.2329 126.713L67.9609 124.778L80.7636 121.651L91.7799 122.247L86.8673 125.969H81.8057L78.2329 126.713Z" fill="#18B9B9"/>
<path d="M99.9711 91.4307C93.3018 90.8353 88.5578 93.6638 87.0195 95.1525L98.0358 93.9615C98.6313 93.0683 99.0779 92.0262 99.9711 91.4307Z" fill="#8F6BCE"/>
<path d="M72.2784 95.7485C68.3482 91.9374 61.411 90.687 58.4336 90.5381L60.8155 94.4087C63.9417 94.5575 67.9612 94.1109 72.2784 95.7485Z" fill="#8F6BCE"/>
<path d="M92.8241 96.3437C95.8015 95.9864 97.439 94.7062 97.8856 94.1107C97.2902 93.8626 95.4442 93.3961 92.8241 93.5152C90.204 93.6343 88.1596 94.6565 87.4648 95.1528C88.0107 95.6986 89.8467 96.701 92.8241 96.3437Z" fill="#18BAB9"/>
<path d="M66.6223 93.6641C64.0022 92.9495 61.66 93.7634 60.8164 94.2596C61.5607 94.9046 63.6747 96.2543 66.1757 96.4925C68.6767 96.7307 71.1876 96.0955 72.1304 95.7481C71.3861 95.3512 69.2424 94.3787 66.6223 93.6641Z" fill="#18BAB9"/>
<path d="M31.1931 147.257L27.918 135.496L33.1284 132.668L31.1931 147.257Z" fill="#7ED4C3"/>
<path opacity="0.5" d="M47.5685 174.201L41.4648 181.347L64.5395 171.075L47.5685 174.201Z" fill="#CAEF5C"/>
<path d="M39.6775 188.792L37.7422 188.494L56.3508 182.837C56.3508 182.837 42.4067 188.147 39.6775 188.792Z" fill="black"/>
<path d="M90.9488 128.591C90.8024 128.561 90.6816 128.53 90.5898 128.499C90.7095 128.53 90.8292 128.561 90.9488 128.591C93.5725 129.125 104.435 129.392 104.435 129.392L105.626 130.732C103.337 130.683 97.2531 130.185 90.9488 128.591Z" fill="black"/>
<path d="M112.923 132.519C101.728 131.805 90.0961 129.839 85.6797 128.946C96.2791 131.924 109.151 133.164 114.262 133.412C113.965 133.115 113.518 132.817 112.923 132.519Z" fill="black"/>
<path d="M138.825 169.439L89.8477 144.131L126.916 151.425L138.825 169.439Z" fill="#8F6BCE"/>
<path d="M77.1925 120.163L67.3672 124.778L79.4255 123.289L82.7007 124.034L84.0405 122.694L91.7816 122.098L85.9758 120.163L82.1052 121.205L77.1925 120.163Z" fill="#8F6BCE"/>
<path d="M88.2075 77.7349L69.1523 69.8449L88.2075 65.0811L123.341 75.7996L88.2075 77.7349Z" fill="#FBE216"/>
<path d="M59.4761 93.5146C50.7821 98.3975 38.8826 97.4349 34.0195 96.3432C45.929 100.631 56.2506 97.1371 59.9227 94.8545C59.7738 94.5567 59.7738 94.11 59.4761 93.5146Z" fill="black"/>
<path d="M62.4528 89.3467C57.3317 93.6341 47.814 95.4007 43.6953 95.748C53.8184 95.748 60.6167 92.6714 62.7505 91.1331C62.7505 90.6869 62.7505 90.091 62.4528 89.3467Z" fill="black"/>
<path d="M86.8706 59.4245L85.6797 58.5312C85.6797 64.1287 84.7865 78.033 84.3398 84.2855C84.3398 84.2855 86.424 71.0362 86.8706 59.4245Z" fill="black"/>
<path d="M84.638 64.486L83.447 63.5928C83.7448 72.376 82.8516 87.2629 82.8516 87.2629C82.8516 87.2629 84.7869 68.5551 84.638 64.486Z" fill="black"/>
<path d="M58.2881 45.4308L32.9805 42.0068C43.1532 46.2248 63.6176 54.6607 64.094 54.6607C64.5704 54.6607 60.4219 48.5074 58.2881 45.4308Z" fill="#284CF0"/>
<path d="M55.7539 64.7836L84.1878 10C86.7682 16.451 94.6086 29.5018 82.9969 46.6217C74.2662 59.4938 61.8575 64.4859 55.7539 64.7836Z" fill="#CAEF5C"/>
<path d="M45.9309 76.6417L76.7042 23.1372C79.0036 29.6936 86.2731 43.0708 73.9328 59.6733C64.6544 72.1563 52.0417 76.6078 45.9309 76.6417Z" fill="#5322E6"/>
<path d="M47.7182 83.6902L41.168 81.0106L63.0517 57.7871L47.7182 83.6902Z" fill="#FBE216"/>
</svg>
