<svg width="155" height="202" viewBox="0 0 155 202" fill="none" xmlns="http://www.w3.org/2000/svg">
<path d="M0.839844 0H154.174V201.002H0.839844V0Z" fill="#A2C61D"/>
<path d="M70.3617 181.372C70.072 181.734 59.0806 145.627 53.6211 127.529L99.6811 122.371L98.8667 141.012C89.4857 154.315 70.6514 181.01 70.3617 181.372Z" fill="#BE77B6"/>
<path d="M82.1267 172.684L73.168 141.464L101.854 120.108V142.007L82.1267 172.684Z" fill="#641D5C"/>
<path d="M74.8881 170.874C74.5263 170.946 65.9291 144.541 61.6758 131.329H90.9954L91.6288 149.156C86.1993 156.365 75.2499 170.802 74.8881 170.874Z" fill="#964F8E"/>
<path d="M80.8583 158.658L73.8906 136.306L89.8171 134.044L90.903 146.984L80.8583 158.658Z" fill="#641D5C"/>
<path d="M72.1889 143.565L50.6379 128.506L37.7852 80.8614L47.652 60.2198L97.6334 58.1426C102.134 68.2254 111.135 88.5727 111.135 89.2997C111.135 90.0267 103.951 118.596 100.36 132.79L85.9494 145.772L72.1889 143.565Z" fill="#C881C0"/>
<path d="M140.594 148.61C129.868 144.886 117.979 143.146 113.375 142.741C127.271 143.267 136.597 145.945 141.808 147.547C142.001 147.607 140.594 148.61 140.594 148.61Z" fill="#060701"/>
<path d="M142.062 151.343C126.642 146.324 112.635 143.821 107.559 143.197C128.727 145.302 140.258 149.066 143.378 150.685L142.062 151.343Z" fill="#060701"/>
<path d="M40.7106 184.854C40.3146 184.643 39.9556 184.454 39.6406 184.291C39.9542 184.443 40.3136 184.632 40.7106 184.854C44.2395 186.736 50.7026 190.4 55.0499 193.625V194.388C51.6439 191.943 44.4824 186.96 40.7106 184.854Z" fill="black"/>
<path d="M56.3909 193.635C51.6734 190.027 47.7767 187.512 46.418 186.706C50.4393 188.706 54.1807 191.253 55.5488 192.277L56.3909 193.635Z" fill="black"/>
<path d="M131.158 171.88C130.689 172.35 133.468 150.389 134.916 139.35L139.966 145.809C137.226 154.303 131.628 171.41 131.158 171.88Z" fill="#580DDD"/>
<path d="M102.738 178.691L111.898 148.04L127.87 140.759L102.738 178.691Z" fill="#7D9105"/>
<path d="M19.8254 149.685L11.957 134.301L50.5941 141.817L19.8254 149.685Z" fill="#BE77B6"/>
<path d="M57.5242 190.905L27.6953 170.94L79.133 188.439L57.5242 190.905Z" fill="#0BD90C"/>
<path d="M62.1175 116.535L51.9621 106.064L51.457 98.4316L69.5601 110.416L62.1175 116.535Z" fill="white"/>
<path d="M77.0122 94.2641L57.1016 85.1416L62.5005 86.4149C66.5925 88.1802 74.8518 91.8082 75.1534 92.1979C75.4549 92.5875 76.5182 93.7377 77.0122 94.2641Z" fill="black"/>
<path d="M87.803 94.5141L89.0061 91.7122L98.5003 85.6378L100.744 85.0369L87.803 94.5141Z" fill="black"/>
<path d="M133.969 60.7105L135.439 49.3369C136.648 54.5008 139.145 65.1031 139.459 66.2012C139.773 67.2993 135.93 62.9983 133.969 60.7105Z" fill="#7D9105"/>
<path d="M114.652 33.0601L118.378 19.4316L136.713 43.5514L114.652 33.0601Z" fill="#FE3752"/>
<path d="M127.988 96.7492L128.625 92.7793L130.647 99.1085L127.988 96.7492Z" fill="#2886D1"/>
<path d="M21.5921 29.7075L14.9766 28.9038L24.2502 21.4229L21.5921 29.7075Z" fill="white"/>
<path d="M39.2128 38.5474L38.2852 34.5286L46.384 27.2334L39.2128 38.5474Z" fill="#6DE5A6"/>
<path d="M54.6733 124.545L51.8984 113.065L59.0889 120.698L62.1797 129.465L54.6733 124.545Z" fill="#641D5C"/>
<path d="M79.2973 122.487L69.1758 131.334L83.728 128.323L93.176 123.334L85.888 121.001L83.2849 123.919L79.2973 122.487Z" fill="#7D9105"/>
<path d="M81.8989 120.49L81.1759 115.948L79.9375 119.871L81.8989 120.49Z" fill="#641D5C"/>
<path d="M82.1577 114.812L81.8477 108.618C82.381 109.771 83.4374 112.128 83.3961 112.335C83.3548 112.541 82.5533 114.072 82.1577 114.812Z" fill="#641D5C"/>
<path d="M80.9736 114.657V94.0615L79.1758 114.167L80.9736 114.657Z" fill="white"/>
<path d="M96.764 112.748L94.9062 109.651L99.5002 108.412L99.1389 110.425L96.764 112.748Z" fill="white"/>
<path d="M82.9322 133.334L69.1758 131.393L93.176 123.334L88.054 131.247H84.9721L82.9322 133.334Z" fill="#28BC46"/>
<path d="M96.5081 125.806L95.7852 129.368L97.7468 127.251L98.6243 124.516L96.5081 125.806Z" fill="#641D5C"/>
<path d="M60.9884 97.0965L59.2734 91.5566C67.8205 92.3657 72.9768 97.1405 74.4865 99.4268L60.9884 97.0965Z" fill="#7D9105"/>
<path d="M101.812 92.6191C95.0558 92.1171 89.7525 95.9476 87.9453 97.9256L99.4149 97.184C103.029 95.8715 108.567 93.1212 101.812 92.6191Z" fill="#7D9105"/>
<path d="M68.0305 96.214C64.3789 95.5748 62.0199 96.4803 61.2969 97.013C62.4382 97.7928 65.2229 99.5464 67.2314 100.322C69.2399 101.098 72.557 99.9991 73.9645 99.3524C73.508 98.5726 71.6821 96.8532 68.0305 96.214Z" fill="#28BC46"/>
<path d="M99.4709 97.2391C98.8532 96.5742 96.7142 95.7162 94.1643 95.803C91.6682 95.8879 88.7755 97.2391 87.4883 98.3803C88.4393 98.8368 90.8653 99.6203 93.9237 99.7116C96.9821 99.8029 98.9764 98.1521 99.4709 97.2391Z" fill="#28BC46"/>
<path d="M32.0938 72.3777L46.5075 98.1644L49.0566 79.9275L97.0022 68.0637L111.219 89.5363L108.082 55.4155L97.7866 40.0219L79.2555 31.8838L41.8991 45.5124L32.0938 72.3777Z" fill="#7D9105"/>
<path d="M40.5288 104.243L43.471 48.748C37.1958 51.5915 24.6257 61.4552 24.5473 78.1626C24.4689 94.8701 35.1689 102.511 40.5288 104.243Z" fill="#580DDD"/>
<path d="M62.4907 76.104L97.2985 24.3346C89.7486 22.2754 73.7671 25.805 64.8443 40.8067C57.8337 52.5934 59.9416 68.9792 62.4907 76.104Z" fill="#90F31D"/>
<path d="M82.9804 68.5529L40.0352 48.7471C43.8593 44.5318 54.6446 39.5313 66.8026 45.316C77.2322 50.2783 82.2614 63.6505 82.9804 68.5529Z" fill="#90F31D"/>
<path d="M79.6484 74.2403L82.3929 17.3721C85.4325 20.4116 91.551 30.1773 91.7078 44.9237C91.8647 59.6702 83.7336 70.6124 79.6484 74.2403Z" fill="#2886D1"/>
<path d="M60.5312 10.5098L69.8456 65.3187C74.9115 60.9392 84.4551 48.5524 82.102 34.0413C79.7488 19.5301 66.741 12.3073 60.5312 10.5098Z" fill="#28BC46"/>
<path d="M90.3383 41.4538L46.5051 64.8233C46.2371 59.6507 49.0643 47.6114 62.5174 40.8354C75.9705 34.0594 86.6701 38.4243 90.3383 41.4538Z" fill="#580DDD"/>
<path d="M95.4922 69.2224L123.551 97.2163C123.551 93.4409 121.929 84.0238 115.443 76.5587C108.956 69.0936 99.4395 68.5573 95.4922 69.2224Z" fill="#580DDD"/>
<path d="M130.566 95.0925L109.266 81.4494C111.003 79.6475 116.1 77.1247 122.587 81.4494C129.074 85.7741 130.609 92.3467 130.566 95.0925Z" fill="#0BD90C"/>
<path d="M119.138 87.6942L91.1367 69.875L103.715 68.0781L119.138 87.6942Z" fill="#0BD90C"/>
<path d="M60.6641 80.8984L115.193 39.4141C115.193 45.7614 111.83 60.7682 98.3772 70.0172C84.9244 79.2662 67.6298 81.1251 60.6641 80.8984Z" fill="#0BD90C"/>
<path d="M61.8377 78.7342C61.3925 78.8825 87.2064 47.3065 100.169 31.5C101.509 39.2487 105.672 52.5823 93.3068 66.6165C82.6616 78.6989 62.3942 78.5487 61.8377 78.7342Z" fill="#6DE5A6"/>
<path d="M114.512 48.6875L79.4578 60.6814C77.1084 64.8855 72.3726 73.3802 72.2242 73.7265C72.0758 74.0727 82.6726 71.4389 87.9895 70.0788L114.512 48.6875Z" fill="#FE3752"/>
<path d="M99.0734 61.04L48.9102 69.725L49.8086 87.8437L99.0734 61.04Z" fill="#2886D1"/>
<path d="M63.4189 92.0489C57.8442 96.5912 48.9835 98.7592 45.25 99.2754C53.5502 96.7564 60.821 92.479 63.4189 90.6553V92.0489Z" fill="black"/>
<path d="M61.038 95.9303V94.7324C54.2517 99.2246 45.7644 101.171 35.582 101.621C49.0587 102.968 57.3943 98.3761 61.038 95.9303Z" fill="black"/>
<path d="M112.401 124.231C105.693 132.497 95.0313 140.953 90.5391 144.147C96.6784 138.906 104.315 132.768 110.604 124.231C111.203 124.082 111.952 124.082 112.401 124.231Z" fill="black"/>
<path d="M104.248 129.473C100.207 134.404 95.3522 138.342 93.4297 139.695C98.0431 135.59 101.239 131.78 102.26 130.388C102.79 130.043 103.844 129.582 104.248 129.473Z" fill="black"/>
</svg>
