<svg width="260" height="341" viewBox="0 0 260 341" fill="none" xmlns="http://www.w3.org/2000/svg">
<path d="M0 0H260V340.826H0V0Z" fill="#E64EF9"/>
<path d="M129.126 301.441L104.641 220.917L129.126 225.461L162.699 255.247L129.126 301.441Z" fill="#7ED4C3"/>
<path d="M144.524 262.063L135.436 236.063L107.922 225.966L127.611 285.034L144.524 262.063Z" fill="#56AC9B"/>
<path d="M165.478 236.063V214.606L111.711 221.927L132.41 287.053L165.478 236.063Z" fill="#247A69"/>
<path d="M131.903 265.344L124.078 242.878H134.932L140.486 259.286L131.903 265.344Z" fill="#7ED4C3"/>
<path d="M85.4554 212.082L64.5039 133.324L77.3777 108.082L171.281 102.528L186.931 145.946L168.756 217.13L143.009 240.606L122.31 238.839L85.4554 212.082Z" fill="#88DECD"/>
<path d="M57.9414 123.48L77.1259 161.849L79.9026 136.606L154.621 113.383L150.835 94.7036L186.174 138.878L177.592 64.9172L121.553 50.7812L68.7958 75.0143L57.9414 123.48Z" fill="#8F6BCE"/>
<path opacity="0.5" d="M221.264 257.771L220.254 260.801L228.584 256.257L221.264 257.771Z" fill="#5322E6"/>
<path d="M237.417 245.907C218.838 239.848 198.88 236.651 191.223 235.81C191.223 235.81 218.99 240.808 235.145 247.674C236.155 247.674 237.417 246.664 237.417 245.907Z" fill="black"/>
<path d="M240.7 251.209C217.477 242.879 188.532 237.157 180.875 236.315C180.875 236.315 213.943 242.626 238.428 252.976C239.438 252.976 240.7 251.966 240.7 251.209Z" fill="black"/>
<path d="M69.8045 322.645H65.7656L88.4841 315.324L69.8045 322.645Z" fill="black"/>
<path d="M119.787 111.111L83.4375 18.4707C93.787 19.4804 117.111 28.0125 127.612 54.0629C138.113 80.1134 126.771 102.95 119.787 111.111Z" fill="#18BAB9"/>
<path d="M84.196 145.189L79.6523 113.383L163.206 92.4316L84.196 145.189Z" fill="#284CF0"/>
<path d="M63.4955 168.917L71.5732 79.3057C62.4017 82.1665 42.8975 95.1076 38.2528 123.985C33.6081 152.863 53.146 165.972 63.4955 168.917Z" fill="#5322E6"/>
<path opacity="0.5" d="M89.7475 51.5384L45.3203 47.752L81.6698 59.3636L89.7475 51.5384Z" fill="#A44F33"/>
<path d="M87.224 137.364L33.457 153.267L68.5444 155.791L87.224 137.364Z" fill="#A44F33"/>
<path d="M69.3014 27.3057L10.7383 33.8688L80.4082 67.1892L69.3014 27.3057Z" fill="white"/>
<path d="M136.698 106.568L71.8242 59.1113C71.8242 68.1146 71.8242 88.8977 89.4941 102.024C104.761 113.365 126.853 110.354 136.698 106.568Z" fill="#2AD425"/>
<path d="M136.192 90.6646L132.91 102.529L184.405 83.3442L199.299 47.752L136.192 90.6646Z" fill="#267849"/>
<path d="M99.8438 127.014L185.669 70.4707C188.109 81.0726 187.335 106.214 164.718 121.966C142.1 137.717 112.044 131.895 99.8438 127.014Z" fill="#A44F33"/>
<path d="M198.542 68.1989L185.668 44.9756L240.697 51.2863L198.542 68.1989Z" fill="#FBE216"/>
<path d="M130.137 119.442L170.525 35.1309C173.049 44.3024 180.875 63.4027 167.244 90.6648C156.493 112.166 138.888 119.189 130.137 119.442Z" fill="#284CF0"/>
<path d="M146.289 68.4511C173.753 56.7385 191.894 65.422 197.532 71.2278L108.93 117.17C109.939 105.81 118.825 80.1637 146.289 68.4511Z" fill="#2AD425"/>
<path d="M160.176 112.373L191.477 172.703C193.664 165.803 196.121 148.268 188.448 133.325C180.774 118.381 166.402 113.13 160.176 112.373Z" fill="#5322E6"/>
<path d="M203.594 172.956L177.594 137.869C181.548 136.859 191.275 137.314 198.545 147.209C205.815 157.104 204.94 168.497 203.594 172.956Z" fill="#CAEF5C"/>
<path d="M207.629 163.616L209.396 135.092C215.37 148.891 227.47 176.742 228.076 177.752C228.681 178.762 214.697 168.749 207.629 163.616Z" fill="#284CF0"/>
<path d="M220 144.936C201.573 131.221 164.314 103.538 162.699 102.528L154.621 118.684L220 144.936Z" fill="#CAEF5C"/>
<path d="M100.602 144.432L93.2812 145.441L130.136 151.5C128.705 150.322 125.743 147.915 125.339 147.713C124.936 147.511 108.679 145.441 100.602 144.432Z" fill="black"/>
<path d="M166.486 142.664L148.311 148.47L144.777 152.256L171.282 143.926L166.486 142.664Z" fill="black"/>
<path d="M137.203 189.868L134.679 155.033L124.582 189.111L137.203 189.868Z" fill="white"/>
<path d="M108.425 180.277C103.713 177.164 94.0371 170.887 93.0273 170.685L94.2895 176.743L102.367 184.568L108.425 180.277Z" fill="white"/>
<path d="M161.436 194.665L150.582 180.782L175.572 170.685L172.291 183.306L161.436 194.665Z" fill="white"/>
<path d="M141.746 189.869L139.727 178.762C141.325 180.949 144.624 185.426 145.028 185.83C145.431 186.234 143.008 188.691 141.746 189.869Z" fill="#247A69"/>
<path d="M133.922 199.208L135.941 192.897L139.223 200.218L133.922 199.208Z" fill="#247A69"/>
<path d="M95.552 199.46L91.7656 194.664L93.5326 202.489L97.5714 205.014L95.552 199.46Z" fill="#247A69"/>
<path d="M162.192 207.286L160.93 212.839L164.211 211.577L165.221 205.267L162.192 207.286Z" fill="#247A69"/>
<path d="M132.66 214.859L115.242 211.577L136.951 206.276L155.631 207.286L147.3 213.597H138.718L132.66 214.859Z" fill="#18B9B9"/>
<path d="M169.512 155.034C158.203 154.024 150.159 158.82 147.551 161.345L166.23 159.325C167.24 157.811 167.997 156.044 169.512 155.034Z" fill="#8F6BCE"/>
<path d="M122.562 162.354C115.898 155.891 104.134 153.771 99.0859 153.519L103.125 160.082C108.426 160.334 115.241 159.577 122.562 162.354Z" fill="#8F6BCE"/>
<path d="M157.396 163.364C162.445 162.758 165.221 160.587 165.979 159.577C164.969 159.157 161.839 158.366 157.396 158.568C152.953 158.77 149.487 160.503 148.309 161.344C149.234 162.27 152.347 163.97 157.396 163.364Z" fill="#18BAB9"/>
<path d="M112.97 158.82C108.527 157.608 104.555 158.988 103.125 159.829C104.387 160.923 107.972 163.212 112.212 163.616C116.453 164.02 120.711 162.943 122.309 162.354C121.047 161.68 117.412 160.031 112.97 158.82Z" fill="#18BAB9"/>
<path d="M52.8932 249.694L47.3398 229.752L56.1748 224.956L52.8932 249.694Z" fill="#7ED4C3"/>
<path opacity="0.5" d="M80.6581 295.383L70.3086 307.5L109.435 290.082L80.6581 295.383Z" fill="#CAEF5C"/>
<path d="M67.2816 320.122L64 319.617L95.5534 310.024C95.5534 310.024 71.9094 319.028 67.2816 320.122Z" fill="black"/>
<path d="M154.218 218.044C153.97 217.993 153.765 217.941 153.609 217.888C153.812 217.94 154.015 217.992 154.218 218.044C158.667 218.949 177.085 219.402 177.085 219.402L179.105 221.674C175.223 221.592 164.908 220.747 154.218 218.044Z" fill="black"/>
<path d="M191.475 224.704C172.493 223.492 152.77 220.16 145.281 218.646C163.254 223.694 185.081 225.798 193.747 226.218C193.242 225.713 192.485 225.209 191.475 224.704Z" fill="black"/>
<path d="M235.396 287.305L152.348 244.393L215.202 256.762L235.396 287.305Z" fill="#8F6BCE"/>
<path d="M130.895 203.752L114.234 211.577L134.681 209.053L140.234 210.315L142.506 208.043L155.632 207.034L145.788 203.752L139.225 205.519L130.895 203.752Z" fill="#8F6BCE"/>
<path d="M149.572 131.81L117.262 118.431L149.572 110.354L209.145 128.528L149.572 131.81Z" fill="#FBE216"/>
<path d="M100.853 158.567C86.1108 166.847 65.9335 165.215 57.6875 163.363C77.8817 170.633 95.3833 164.71 101.61 160.839C101.357 160.334 101.357 159.577 100.853 158.567Z" fill="black"/>
<path d="M105.9 151.5C97.2161 158.77 81.0776 161.765 74.0938 162.354C91.2588 162.354 102.786 157.138 106.404 154.529C106.404 153.773 106.404 152.762 105.9 151.5Z" fill="black"/>
<path d="M147.303 100.762L145.284 99.2471C145.284 108.738 143.769 132.315 143.012 142.917C143.012 142.917 146.546 120.451 147.303 100.762Z" fill="black"/>
<path d="M143.513 109.345L141.494 107.83C141.999 122.723 140.484 147.966 140.484 147.966C140.484 147.966 143.766 116.244 143.513 109.345Z" fill="black"/>
<path d="M98.8345 77.0334L55.9219 71.2275C73.1711 78.3796 107.871 92.6838 108.679 92.6838C109.487 92.6838 102.453 82.2502 98.8345 77.0334Z" fill="#284CF0"/>
<path d="M94.543 109.849L142.757 16.9561C147.132 27.8946 160.426 50.024 140.737 79.0531C125.933 100.88 104.892 109.344 94.543 109.849Z" fill="#CAEF5C"/>
<path d="M77.8827 129.956L130.063 39.2317C133.962 50.3489 146.288 73.0319 125.364 101.184C109.631 122.35 88.2443 129.899 77.8827 129.956Z" fill="#5322E6"/>
<path d="M80.9115 141.908L69.8047 137.364L106.911 97.9854L80.9115 141.908Z" fill="#FBE216"/>
</svg>
