<svg width="30" height="30" viewBox="0 0 30 30" fill="none" xmlns="http://www.w3.org/2000/svg">
<path fill-rule="evenodd" clip-rule="evenodd" d="M2.21719 0C0.993047 0 0 0.962812 0 2.14898V27.8517C0 29.038 0.993164 30 2.21719 30H27.7828C29.0074 30 30 29.0379 30 27.8514V2.14898C30 0.962812 29.0074 0 27.7828 0H2.21719ZM9.11906 11.6003V25.1064H4.62984V11.6003H9.11906ZM9.41496 7.42339C9.41496 8.71948 8.44055 9.75659 6.87539 9.75659L6.87504 9.75647H6.84598C5.3393 9.75647 4.36523 8.71937 4.36523 7.42327C4.36523 6.09776 5.36871 5.0896 6.90516 5.0896C8.44055 5.0896 9.38566 6.09776 9.41496 7.42339ZM16.0928 25.1064H11.6039L11.6038 25.1069C11.6038 25.1069 11.6627 12.8678 11.6041 11.6008H16.0931V13.5125C16.6899 12.5924 17.7579 11.2837 20.139 11.2837C23.0925 11.2837 25.3069 13.2141 25.3069 17.3624V25.1064H20.8181V17.8818C20.8181 16.066 20.1681 14.8275 18.5441 14.8275C17.3037 14.8275 16.565 15.6627 16.2407 16.4696C16.1221 16.7575 16.0928 17.1617 16.0928 17.5648V25.1064Z" fill="white"/>
</svg>
