<svg width="330" height="350" viewBox="0 0 330 350" fill="none" xmlns="http://www.w3.org/2000/svg">
<path d="M212.277 226.48L302.563 240.511L233.6 261.809L212.277 226.48Z" fill="#248DC3"/>
<path d="M245.967 327.303L296.188 247.834H229.891L245.967 327.303Z" fill="#005181"/>
<path d="M114.219 294.471L154.589 336.226L233.984 326.4L220.961 274.73L125.862 276.737L114.219 294.471Z" fill="#69A9CC"/>
<path d="M74.6308 224.544L3.19922 272.556L137.785 349.085L74.6308 224.544Z" fill="#00629C"/>
<path d="M3.19922 264.952L86.6109 241.24L68.711 221.794L3.19922 264.952Z" fill="#248DC3"/>
<path d="M172.234 342.784L72.3582 204.998C50.5006 262.742 101.043 331.091 172.234 342.784Z" fill="#0A446D"/>
<path d="M15.4317 222.972L13.0469 230.183C13.0469 230.183 50.923 229.931 92.166 271.349C92.166 271.349 75.9213 234.926 15.4317 222.972Z" fill="black"/>
<path d="M2.02006 232.962L0 236.863C0 236.863 31.5915 236.442 63.2111 255.439C32.4613 231.896 2.02006 232.962 2.02006 232.962Z" fill="black"/>
<path d="M235.337 346.985L196.598 211.72C241.729 226.579 265.222 286.412 235.337 346.985Z" fill="#0A446D"/>
<path d="M86.6094 208.381L160.875 284.762L108.381 189.019L86.6094 208.381Z" fill="#69A9CC"/>
<path d="M103.332 201.28L99.3477 247.833L183.18 318.378L193.421 191.627L103.332 201.28Z" fill="#E4BCA0"/>
<path d="M169.824 203.609L182.085 318.378L212.274 285.771L193.42 191.627L169.824 203.609Z" fill="#B67D72"/>
<path d="M177.684 323.571L209.275 214.134C233.207 259.115 220.133 303.34 177.684 323.571Z" fill="#69A9CC"/>
<path d="M26.1758 134.778L63.1822 180.714C63.1822 180.714 65.9878 163.597 55.5508 149.314C44.3002 133.964 26.1758 134.778 26.1758 134.778Z" fill="#69A9CC"/>
<path d="M317.035 197.381L329.997 194.575L326.21 198.897L317.035 197.381Z" fill="#005181"/>
<path d="M303.01 131.886L301.215 136.123L306.041 139.687L303.01 131.886Z" fill="#FBB14B"/>
<path d="M27.75 202.18L40.179 206.782L34.6519 208.381L27.75 202.18Z" fill="#DB7744"/>
<path d="M113.106 35.0188L119.118 14.313L92.9886 0.84027L113.106 35.0188Z" fill="#509ABA"/>
<path d="M103.331 124.675L99.9644 178.44C99.9644 178.44 88.6016 171.677 88.6016 149.144C88.6016 129.894 103.331 124.675 103.331 124.675Z" fill="#EDC9AA"/>
<path d="M61.418 97.9326L155.351 118.81C155.351 118.81 138.068 131.746 100.388 124.927C69.2738 119.315 61.418 97.9326 61.418 97.9326Z" fill="#27778C"/>
<path d="M102.63 98.5791L205.401 118.222L242.043 135.984L183.91 250.024L133.661 247.835L99.3477 197.017L102.63 98.5791Z" fill="#EDC9AA"/>
<path d="M140.029 114.826L101.985 107.643L99.3477 197.017L133.661 247.835L152.402 250.08L135.989 183.912L140.029 114.826Z" fill="#FEE0C3"/>
<path d="M288.45 29.998L274.281 71.8369C274.281 71.8369 291.48 70.3216 297.063 54.86C302.646 39.4265 288.45 29.998 288.45 29.998Z" fill="#FBB14B"/>
<path d="M295.631 33.5332L287.074 84.4919C287.074 84.4919 302.73 72.7905 305.03 59.9666C307.303 47.1989 295.631 33.5332 295.631 33.5332Z" fill="#44A7C9"/>
<path d="M243.391 67.9922C243.391 67.9922 325.428 85.9793 323.969 86.4282C322.51 86.8772 283.259 98.9153 283.259 98.9153L243.391 67.9922Z" fill="#8AD7F8"/>
<path d="M95.8164 97.5676L127.576 32.5785C147.132 16.9766 167.304 20.9893 167.304 20.9893L163.152 112.272L95.8164 97.5676Z" fill="#69A9CC"/>
<path d="M165.785 27.5285L153.805 109.803L245.998 131.017L238.367 62.1277C221.14 27.1357 165.785 27.5285 165.785 27.5285Z" fill="#C2E8FB"/>
<path d="M146.875 215.704L151.42 228.837L158.659 229.987L165.953 216.714L146.875 215.704Z" fill="#917760"/>
<path d="M211.852 195.192L229.808 146.562C229.808 146.562 239.796 159.92 233.455 176.588C226.665 194.463 211.852 195.192 211.852 195.192Z" fill="#E2B18F"/>
<path d="M104.48 58.5069L152.85 13.7217C152.85 13.7217 167.159 43.0734 147.631 58.535C127.767 74.2491 104.48 58.5069 104.48 58.5069Z" fill="#509ABA"/>
<path d="M220.441 0L265.837 92.1241C265.837 92.1241 232.421 93.4149 213.764 60.1627C194.433 25.7599 220.441 0 220.441 0Z" fill="white"/>
<path d="M199.904 20.9609L248.834 89.7102C248.834 89.7102 222.068 94.7893 202.569 70.264C182.368 44.8969 199.904 20.9609 199.904 20.9609Z" fill="#DEF2FD"/>
<path d="M138.342 115.836L137.473 142.213L260.051 151.614L138.342 115.836Z" fill="#E4BCA0"/>
<path d="M98.5898 87.8307C98.5898 87.8307 129.62 74.5578 177.26 87.8307C224.9 101.103 252.451 131.325 252.451 131.325L98.5898 87.8307Z" fill="#A07168"/>
<path d="M158.239 124.787L158.379 137.723C158.379 137.723 140.9 124.141 114.246 128.996C114.218 128.968 131.248 115.386 158.239 124.787Z" fill="black"/>
<path d="M176.84 142.747L186.828 134.385C186.828 134.385 207.758 135.199 217.83 150.295C217.83 150.295 199.061 140.698 176.84 142.747Z" fill="black"/>
<path d="M124.434 190.365L185.26 199.457C185.26 199.457 179.284 211.439 157.652 212.197C131.56 213.151 124.434 190.365 124.434 190.365Z" fill="#CC7F72"/>
<path d="M125.062 188.802L189.61 192.819C189.61 192.819 185.685 207.387 158.302 207.359C132.759 207.331 125.062 188.802 125.062 188.802Z" fill="#BCA088"/>
<path d="M134.746 200.97L152.911 200.378L160.473 204.999L168.874 202.177H181.543C181.543 202.177 173.423 208.479 159.136 208.155C144.849 207.86 134.746 200.97 134.746 200.97Z" fill="#964843"/>
<path d="M152.852 148.668L121.008 144.88C121.008 144.88 127.966 135.367 139.525 137.64C150.804 139.857 152.852 148.668 152.852 148.668Z" fill="white"/>
<path d="M177.344 152.679L208.879 155.036C208.879 155.036 201.949 147.628 192.634 146.702C181.187 145.58 177.344 152.679 177.344 152.679Z" fill="white"/>
<path d="M197.066 150.407C197.066 149.228 196.617 148.162 195.916 147.32C194.878 147.04 193.784 146.843 192.633 146.731C191.174 146.591 189.828 146.562 188.621 146.675C187.499 147.573 186.77 148.92 186.77 150.435C186.77 151.585 187.19 152.652 187.92 153.494L195.383 154.055C196.421 153.129 197.066 151.838 197.066 150.407Z" fill="#7E9B43"/>
<path d="M149.5 250L151.255 235.544L134.898 230.97L128.922 201.282L121.515 212.029L106.645 189.468L100.697 156.777L96.9297 197.017L128.922 247L149.5 250Z" fill="#917760"/>
<path d="M175.594 150.388C176.632 158.89 196.973 170.115 211.113 157.431C211.113 157.431 178.624 151.005 175.594 150.388Z" fill="#E4BCA0"/>
<path d="M69.4953 102.844L148.586 119.316L155.348 110.28L66.9141 77.5049L69.4953 102.844Z" fill="#509ABA"/>
<path d="M149.12 78.6266C118.146 76.6343 95.7852 89.1775 95.7852 89.1775L146.006 106.631L149.12 78.6266Z" fill="#8E625B"/>
<path d="M136.049 99.0557L253.184 127.734L228.298 139.099L133.664 116.004L136.049 99.0557Z" fill="#AEDEF1"/>
<path d="M228.297 138.537L261.74 115.471L283.708 132.644L228.297 138.537Z" fill="#DEF2FD"/>
<path d="M218.363 139.491L257.726 129.586L275.907 147.236L218.363 139.491Z" fill="#69A9CC"/>
<path d="M86.6094 208.379L160.875 284.761L188.37 327.301L90.6214 258.748L86.6094 208.379Z" fill="#AEDEF1"/>
<path d="M86.353 47.8154L85.6797 56.6827C85.6797 56.6827 89.5515 68.4122 104.534 87.2691C104.534 87.2691 87.7559 56.2057 86.353 47.8154Z" fill="black"/>
<path d="M89.7516 45.4863C89.6955 48.7414 90.0883 52.4174 90.0883 52.4174C90.0883 52.4174 102.742 81.4043 121.006 104.47C121.006 104.47 98.4771 64.3433 89.7516 45.4863Z" fill="black"/>
<path d="M182.082 191.544L189.657 203.133L198.046 193.115L182.082 191.544Z" fill="#E4BCA0"/>
<path d="M116.293 184.557L121.063 194.912L131.247 177.626L116.293 184.557Z" fill="#E4BCA0"/>
<path d="M144.131 142.577C144.131 140.781 143.233 139.21 141.887 138.256C141.157 138.031 140.372 137.807 139.53 137.667C138.969 137.554 138.408 137.47 137.847 137.414C135.434 137.891 133.582 140.024 133.582 142.577C133.582 144.205 134.311 145.636 135.462 146.59L141.213 147.263C142.953 146.422 144.131 144.626 144.131 142.577Z" fill="#8FAE59"/>
<path d="M154.441 146.692C149.207 157.048 126.667 156.369 120.574 143C120.574 143 151.616 146.449 154.441 146.692Z" fill="#E4BCA0"/>
<path d="M160.89 144.926L152.488 192.815L170.501 193.816L160.89 144.926Z" fill="#EDC9AA"/>
<path d="M177.005 188.261L169.289 194.911L165.586 145.271L177.005 188.261Z" fill="#E4BCA0"/>
<path d="M144.508 186.492L152.424 192.816L160.825 147.027L144.508 186.492Z" fill="#FEE0C3"/>
<path d="M286.119 284.481L283.033 280.749C283.033 280.749 277.085 277.578 264.066 275.811C264.038 275.811 282.387 281.703 286.119 284.481Z" fill="black"/>
<path d="M285.64 286.699C284.434 285.38 282.891 284.089 282.891 284.089C282.891 284.089 266.955 277.439 251.047 275.25C251.075 275.25 275.091 282.546 285.64 286.699Z" fill="black"/>
<path d="M16.8086 120.916L52.5244 148.668L67.5626 140.783L16.8086 120.916Z" fill="#FBB14B"/>
<path d="M264.293 268.487L303.123 231.643V258.806L264.293 268.487Z" fill="#FBB14B"/>
<path d="M190.084 222.356L184.697 203.611L176 235.545H151.254L149.5 250.024L184.697 254.5L228.297 164.606L190.084 222.356Z" fill="#755840"/>
<path d="M212.864 227.435L209.441 229.287C209.441 229.287 238.901 235.151 268.612 235.741C268.584 235.713 234.945 232.542 212.864 227.435Z" fill="black"/>
<path d="M204.387 222.468L208.567 218.371C208.567 218.371 235.361 228.922 282.384 231.419C282.412 231.419 241.73 233.524 204.387 222.468Z" fill="black"/>
<path d="M154 142.5L121.5 135C121.5 135 129.898 130.37 142.355 133.401C153.493 136.095 154 142.5 154 142.5Z" fill="#B67D72"/>
<path d="M178 146.501L208.5 149.001C208.5 149.001 204.561 143.533 191.711 143.336C180.208 143.168 178 146.501 178 146.501Z" fill="#B67D72"/>
</svg>
