<svg width="260" height="276" viewBox="0 0 260 276" fill="none" xmlns="http://www.w3.org/2000/svg">
<path d="M167.25 178.441L238.385 189.496L184.05 206.276L167.25 178.441Z" fill="#248DC3"/>
<path d="M193.795 257.878L233.364 195.266H181.129L193.795 257.878Z" fill="#005181"/>
<path d="M89.9922 232.01L121.799 264.908L184.353 257.167L174.093 216.457L99.1659 218.038L89.9922 232.01Z" fill="#69A9CC"/>
<path d="M58.7995 176.914L2.51953 214.742L108.558 275.038L58.7995 176.914Z" fill="#00629C"/>
<path d="M2.51953 208.751L68.2384 190.069L54.1353 174.748L2.51953 208.751Z" fill="#248DC3"/>
<path d="M135.7 270.075L57.0094 161.516C39.7881 207.012 79.6095 260.863 135.7 270.075Z" fill="#0A446D"/>
<path d="M12.1602 175.678L10.2812 181.36C10.2812 181.36 40.1233 181.161 72.618 213.793C72.618 213.793 59.8191 185.096 12.1602 175.678Z" fill="black"/>
<path d="M1.59158 183.547L0 186.62C0 186.62 24.8905 186.288 49.8031 201.256C25.5758 182.707 1.59158 183.547 1.59158 183.547Z" fill="black"/>
<path d="M185.417 273.384L154.895 166.811C190.453 178.518 208.963 225.66 185.417 273.384Z" fill="#0A446D"/>
<path d="M68.2383 164.181L126.751 224.361L85.3919 148.926L68.2383 164.181Z" fill="#69A9CC"/>
<path d="M81.4124 158.584L78.2734 195.262L144.324 250.844L152.392 150.979L81.4124 158.584Z" fill="#E4BCA0"/>
<path d="M133.801 160.419L143.461 250.844L167.246 225.154L152.391 150.979L133.801 160.419Z" fill="#B67D72"/>
<path d="M139.996 254.937L164.887 168.713C183.742 204.153 173.441 238.997 139.996 254.937Z" fill="#69A9CC"/>
<path d="M20.625 106.189L49.7818 142.382C49.7818 142.382 51.9923 128.895 43.7692 117.642C34.905 105.548 20.625 106.189 20.625 106.189Z" fill="#69A9CC"/>
<path d="M249.789 155.514L260.002 153.303L257.017 156.707L249.789 155.514Z" fill="#005181"/>
<path d="M238.739 103.912L237.324 107.251L241.126 110.058L238.739 103.912Z" fill="#FBB14B"/>
<path d="M21.8633 159.295L31.6559 162.921L27.3012 164.181L21.8633 159.295Z" fill="#DB7744"/>
<path d="M89.1153 27.5901L93.8524 11.2763L73.2652 0.661339L89.1153 27.5901Z" fill="#509ABA"/>
<path d="M81.4138 98.2305L78.7612 140.591C78.7612 140.591 69.8086 135.263 69.8086 117.509C69.8086 102.343 81.4138 98.2305 81.4138 98.2305Z" fill="#EDC9AA"/>
<path d="M48.3906 77.1602L122.399 93.6091C122.399 93.6091 108.782 103.801 79.0948 98.4288C54.5801 94.0071 48.3906 77.1602 48.3906 77.1602Z" fill="#27778C"/>
<path d="M80.8597 77.668L161.831 93.1441L190.701 107.139L144.899 196.989L105.308 195.265L78.2734 155.226L80.8597 77.668Z" fill="#EDC9AA"/>
<path d="M110.326 90.4685L80.3513 84.8086L78.2734 155.225L105.308 195.264L120.074 197.033L107.143 144.9L110.326 90.4685Z" fill="#FEE0C3"/>
<path d="M227.265 23.6367L216.102 56.601C216.102 56.601 229.652 55.4071 234.051 43.2251C238.45 31.0653 227.265 23.6367 227.265 23.6367Z" fill="#FBB14B"/>
<path d="M232.922 26.418L226.18 66.5676C226.18 66.5676 238.514 57.3482 240.327 47.2445C242.118 37.185 232.922 26.418 232.922 26.418Z" fill="#44A7C9"/>
<path d="M191.766 53.5703C191.766 53.5703 256.401 67.7421 255.252 68.0958C254.102 68.4495 223.177 77.9342 223.177 77.9342L191.766 53.5703Z" fill="#8AD7F8"/>
<path d="M75.4922 76.8735L100.515 25.6695C115.923 13.377 131.816 16.5386 131.816 16.5386L128.545 88.4585L75.4922 76.8735Z" fill="#69A9CC"/>
<path d="M130.619 21.6876L121.18 86.5107L193.818 103.225L187.805 48.9478C174.232 21.3781 130.619 21.6876 130.619 21.6876Z" fill="#C2E8FB"/>
<path d="M115.719 169.949L119.3 180.296L125.003 181.203L130.75 170.745L115.719 169.949Z" fill="#917760"/>
<path d="M166.914 153.789L181.061 115.475C181.061 115.475 188.931 125.998 183.935 139.131C178.586 153.214 166.914 153.789 166.914 153.789Z" fill="#E2B18F"/>
<path d="M82.3203 46.0982L120.43 10.8125C120.43 10.8125 131.703 33.9383 116.318 46.1203C100.668 58.5012 82.3203 46.0982 82.3203 46.0982Z" fill="#509ABA"/>
<path d="M173.681 0L209.447 72.5832C209.447 72.5832 183.12 73.6002 168.42 47.4013C153.189 20.2959 173.681 0 173.681 0Z" fill="white"/>
<path d="M157.5 16.5156L196.051 70.6822C196.051 70.6822 174.963 74.6839 159.6 55.3608C143.684 35.3744 157.5 16.5156 157.5 16.5156Z" fill="#DEF2FD"/>
<path d="M108.998 91.2656L108.312 112.048L204.89 119.454L108.998 91.2656Z" fill="#E4BCA0"/>
<path d="M77.6758 69.1985C77.6758 69.1985 102.124 58.7411 139.659 69.1985C177.194 79.656 198.901 103.467 198.901 103.467L77.6758 69.1985Z" fill="#A07168"/>
<path d="M124.673 98.3182L124.783 108.51C124.783 108.51 111.012 97.8097 90.0117 101.634C89.9896 101.612 103.408 90.9117 124.673 98.3182Z" fill="black"/>
<path d="M139.328 112.467L147.198 105.879C147.198 105.879 163.688 106.52 171.624 118.415C171.624 118.415 156.835 110.853 139.328 112.467Z" fill="black"/>
<path d="M98.0391 149.988L145.963 157.152C145.963 157.152 141.255 166.592 124.212 167.189C103.654 167.941 98.0391 149.988 98.0391 149.988Z" fill="#CC7F72"/>
<path d="M98.5352 148.754L149.391 151.919C149.391 151.919 146.299 163.397 124.724 163.375C104.599 163.353 98.5352 148.754 98.5352 148.754Z" fill="#BCA088"/>
<path d="M106.164 158.342L120.476 157.875L126.434 161.516L133.053 159.293H143.035C143.035 159.293 136.637 164.258 125.381 164.002C114.124 163.77 106.164 158.342 106.164 158.342Z" fill="#964843"/>
<path d="M120.429 117.133L95.3398 114.149C95.3398 114.149 100.822 106.654 109.929 108.444C118.816 110.191 120.429 117.133 120.429 117.133Z" fill="white"/>
<path d="M139.727 120.294L164.573 122.151C164.573 122.151 159.113 116.315 151.774 115.585C142.755 114.701 139.727 120.294 139.727 120.294Z" fill="white"/>
<path d="M155.265 118.503C155.265 117.574 154.911 116.734 154.359 116.071C153.541 115.85 152.679 115.695 151.772 115.607C150.623 115.496 149.562 115.474 148.611 115.562C147.727 116.27 147.152 117.331 147.152 118.525C147.152 119.431 147.484 120.272 148.059 120.935L153.939 121.377C154.757 120.647 155.265 119.63 155.265 118.503Z" fill="#7E9B43"/>
<path d="M117.79 196.972L119.173 185.583L106.286 181.979L101.577 158.588L95.7413 167.056L84.0256 149.28L79.3392 123.523L76.3711 155.227L101.577 194.609L117.79 196.972Z" fill="#917760"/>
<path d="M138.348 118.488C139.166 125.187 155.192 134.031 166.333 124.038C166.333 124.038 140.735 118.975 138.348 118.488Z" fill="#E4BCA0"/>
<path d="M54.7524 81.0287L117.067 94.0066L122.394 86.8875L52.7188 61.0645L54.7524 81.0287Z" fill="#509ABA"/>
<path d="M117.491 61.9502C93.0866 60.3805 75.4688 70.2631 75.4688 70.2631L115.037 84.0148L117.491 61.9502Z" fill="#8E625B"/>
<path d="M107.191 78.043L199.481 100.638L179.873 109.592L105.312 91.3967L107.191 78.043Z" fill="#AEDEF1"/>
<path d="M179.871 109.15L206.221 90.9766L223.529 104.507L179.871 109.15Z" fill="#DEF2FD"/>
<path d="M172.047 109.904L203.061 102.1L217.385 116.006L172.047 109.904Z" fill="#69A9CC"/>
<path d="M68.2383 164.18L126.751 224.36L148.414 257.877L71.3993 203.865L68.2383 164.18Z" fill="#AEDEF1"/>
<path d="M68.0344 37.6738L67.5039 44.6602C67.5039 44.6602 70.5544 53.9017 82.3586 68.7588C82.3586 68.7588 69.1397 44.2844 68.0344 37.6738Z" fill="black"/>
<path d="M70.7153 35.8359C70.671 38.4006 70.9805 41.2968 70.9805 41.2968C70.9805 41.2968 80.95 64.1352 95.3405 82.3087C95.3405 82.3087 77.59 50.6931 70.7153 35.8359Z" fill="black"/>
<path d="M143.461 150.914L149.429 160.045L156.039 152.152L143.461 150.914Z" fill="#E4BCA0"/>
<path d="M91.625 145.408L95.3829 153.566L103.407 139.947L91.625 145.408Z" fill="#E4BCA0"/>
<path d="M113.558 112.334C113.558 110.919 112.85 109.681 111.789 108.929C111.215 108.752 110.596 108.575 109.932 108.465C109.49 108.376 109.048 108.31 108.606 108.266C106.705 108.641 105.246 110.322 105.246 112.334C105.246 113.616 105.821 114.744 106.727 115.495L111.259 116.026C112.629 115.363 113.558 113.948 113.558 112.334Z" fill="#8FAE59"/>
<path d="M121.683 115.577C117.559 123.736 99.8006 123.201 95 112.668C95 112.668 119.457 115.385 121.683 115.577Z" fill="#E4BCA0"/>
<path d="M126.764 114.186L120.145 151.916L134.336 152.705L126.764 114.186Z" fill="#EDC9AA"/>
<path d="M139.458 148.33L133.379 153.569L130.461 114.459L139.458 148.33Z" fill="#E4BCA0"/>
<path d="M113.855 146.934L120.092 151.916L126.712 115.84L113.855 146.934Z" fill="#FEE0C3"/>
<path d="M225.429 224.14L222.998 221.2C222.998 221.2 218.312 218.701 208.055 217.309C208.033 217.309 222.489 221.951 225.429 224.14Z" fill="black"/>
<path d="M225.053 225.886C224.102 224.847 222.886 223.83 222.886 223.83C222.886 223.83 210.331 218.59 197.797 216.865C197.819 216.865 216.741 222.614 225.053 225.886Z" fill="black"/>
<path d="M13.2422 95.2656L41.3822 117.131L53.2306 110.919L13.2422 95.2656Z" fill="#FBB14B"/>
<path d="M208.234 211.535L238.828 182.506V203.907L208.234 211.535Z" fill="#FBB14B"/>
<path d="M149.765 175.189L145.52 160.421L138.668 185.581H119.171L117.789 196.989L145.52 200.515L179.872 129.689L149.765 175.189Z" fill="#755840"/>
<path d="M167.712 179.191L165.016 180.651C165.016 180.651 188.226 185.271 211.636 185.736C211.613 185.713 185.109 183.215 167.712 179.191Z" fill="black"/>
<path d="M161.035 175.279L164.329 172.051C164.329 172.051 185.439 180.364 222.488 182.331C222.51 182.331 190.457 183.99 161.035 175.279Z" fill="black"/>
<path d="M121.333 112.273L95.7266 106.363C95.7266 106.363 102.343 102.716 112.158 105.104C120.933 107.226 121.333 112.273 121.333 112.273Z" fill="#B67D72"/>
<path d="M140.242 115.424L164.273 117.393C164.273 117.393 161.169 113.085 151.045 112.931C141.982 112.798 140.242 115.424 140.242 115.424Z" fill="#B67D72"/>
</svg>
