<svg width="1891" height="1200" viewBox="0 0 1891 1200" fill="none" xmlns="http://www.w3.org/2000/svg">
<path d="M150.316 1033.7C150.196 1033.68 111.062 1012.28 111.062 1012.28L80.5017 939.931L150.316 1033.7Z" fill="#D44197"/>
<path d="M1044.97 212L1041 218.291L1050.58 228.202L1044.97 212Z" fill="#C8BEC2"/>
<path d="M1386.97 992L1383 998.291L1392.58 1008.2L1386.97 992Z" fill="#FF9DC4"/>
<path d="M268 645.447L284.228 642L279.48 647.343L268 645.447Z" fill="white"/>
<path d="M327 134.524L336.322 135.73L335.546 101L327 134.524Z" fill="white"/>
<path d="M588.871 383L589.734 406.096L542 456.166L588.871 383Z" fill="#643C00"/>
<path d="M938.873 1160.09C938.873 1160.09 938.873 1194.1 893.001 1199.23C847.13 1204.35 791.09 1174.26 791.09 1174.26L938.873 1160.09Z" fill="#643C00"/>
<path d="M1588 266C1588.09 266.086 1607.85 306.073 1607.85 306.073L1591.37 382.858L1588 266Z" fill="#D44197"/>
<path d="M320.164 719.871L297.068 720.734L246.998 673L320.164 719.871Z" fill="#B97A1B"/>
<path d="M1630 964.385L1714 858L1630 1042V964.385Z" fill="#B97A1B"/>
<path d="M1096.33 877.603C1131 857.5 1231.08 862.884 1231.08 862.884L1041 932.031C1041 932.031 1061.67 897.707 1096.33 877.603Z" fill="#B97A1B"/>
<path d="M1644.64 965.345L1652 955C1646.47 986.034 1644.64 1045 1644.64 1045C1644.64 1045 1640.95 999.483 1644.64 965.345Z" fill="black"/>
<path d="M1657.22 967.32L1666 957C1659.4 987.96 1652 1086 1652 1086C1652 1086 1652.82 1001.38 1657.22 967.32Z" fill="black"/>
</svg>
