<svg width="1920" height="1200" viewBox="0 0 1920 1200" fill="none" xmlns="http://www.w3.org/2000/svg">
<g clip-path="url(#clip0_817_12895)">
<path d="M1643.43 249.519L1650.02 246.07L1646.71 232.69L1643.43 249.519Z" fill="#E1A710"/>
<path d="M850.292 975L868.294 984L877.246 951L850.292 975Z" fill="#D02AA8"/>
<path d="M994.703 45L986 58.9787L1007 81L994.703 45Z" fill="#D02AA8"/>
<path d="M484.919 537.618L447.429 580.715L358.207 548.457L484.919 537.618Z" fill="#66094F"/>
<path d="M1347.05 373.713L1341.27 430.541L1249.77 455.63L1347.05 373.713Z" fill="#D02AA8"/>
<path d="M203.633 944.687L203.633 984.012L139.999 1003.85L203.633 944.687Z" fill="#E1A710"/>
<path d="M1780 819.671C1780 819.671 1747.65 838.412 1719.27 819.671C1690.89 800.93 1695.24 763 1695.24 763L1780 819.671Z" fill="#FF5A5A"/>
<path d="M832.794 486.844C832.794 486.844 821.409 451.234 845.789 427.519C870.168 403.804 906.288 416.173 906.288 416.173L832.794 486.844Z" fill="#E1A710"/>
<path d="M406.329 63C406.329 63 387.588 30.6508 406.329 2.26838C425.07 -26.114 463 -21.76 463 -21.76L406.329 63Z" fill="#D02AA8"/>
<path d="M1233.85 677.829L1240.45 674.381L1237.13 661L1233.85 677.829Z" fill="#66094F"/>
<path d="M1142.96 1245.92C1142.96 1245.92 1134.65 1209.47 1160.97 1187.92C1187.28 1166.37 1222.22 1181.78 1222.22 1181.78L1142.96 1245.92Z" fill="#66094F"/>
</g>
<defs>
<clipPath id="clip0_817_12895">
<rect width="2000" height="1600" fill="white" transform="translate(-40 -200)"/>
</clipPath>
</defs>
</svg>
